{
.appVersion = "1274";
DisplayStrings = (
"/a-hira/i-hira/u-hira/e-hira/o-hira \012/asmall-hira/ismall-hira/usmall-hira/esmall-hira/osmall-hira \012/ka-hira/ki-hira/ku-hira/ke-hira/ko-hira \012/ga-hira/gi-hira/gu-hira/ge-hira/go-hira \012/sa-hira/si-hira/su-hira/se-hira/so-hira \012/za-hira/zi-hira/zu-hira/ze-hira/zo-hira \012/ta-hira/ti-hira/tu-hira/te-hira/to-hira \012/da-hira/di-hira/du-hira/de-hira/do-hira \012/na-hira/ni-hira/nu-hira/ne-hira/no-hira \012/ha-hira/hi-hira/hu-hira/he-hira/ho-hira \012/ba-hira/bi-hira/bu-hira/be-hira/bo-hira \012/pa-hira/pi-hira/pu-hira/pe-hira/po-hira \012/ma-hira/mi-hira/mu-hira/me-hira/mo-hira \012/ya-hira/yu-hira/yo-hira \012/yasmall-hira/yusmall-hira/yosmall-hira \012/ra-hira/ri-hira/ru-hira/re-hira/ro-hira \012/wa-hira/wo-hira/n-hira \012/tusmall-hira \012/si-hira/ma-hira/tusmall-hira/ta-hira/period-han",

glyphs = (
{
glyphname = A;
layers = (
{
layerId = "F0262224-B9C7-46EB-9294-168F9DBDA589";
paths = (
{
closed = 1;
nodes = (
"399 795 LINE SMOOTH",
"392 815 OFFCURVE",
"376 817 OFFCURVE",
"368 796 CURVE SMOOTH",
"61 24 LINE SMOOTH",
"56 10 OFFCURVE",
"66 -3 OFFCURVE",
"79 -3 CURVE SMOOTH",
"88 -3 OFFCURVE",
"95 2 OFFCURVE",
"98 9 CURVE SMOOTH",
"378 711 LINE",
"387 742 OFFCURVE",
"388 765 OFFCURVE",
"381 765 CURVE SMOOTH",
"377 765 OFFCURVE",
"378 743 OFFCURVE",
"385 711 CURVE",
"650 10 LINE",
"653 3 OFFCURVE",
"660 -3 OFFCURVE",
"669 -3 CURVE SMOOTH",
"683 -3 OFFCURVE",
"693 11 OFFCURVE",
"688 24 CURVE SMOOTH"
);
},
{
closed = 1;
nodes = (
"229 390 LINE",
"215 350 LINE",
"539 350 LINE",
"519 390 LINE"
);
}
);
width = 749;
},
{
layerId = "2E7D65B2-411D-4607-BF7C-7C0096008F1D";
paths = (
{
closed = 1;
nodes = (
"437 776 LINE SMOOTH",
"418 822 OFFCURVE",
"369 823 OFFCURVE",
"350 777 CURVE SMOOTH",
"63 64 LINE SMOOTH",
"50 31 OFFCURVE",
"75 -3 OFFCURVE",
"109 -3 CURVE SMOOTH",
"129 -3 OFFCURVE",
"149 9 OFFCURVE",
"156 27 CURVE SMOOTH",
"385 606 LINE",
"397 648 OFFCURVE",
"399 688 OFFCURVE",
"392 688 CURVE SMOOTH",
"386 688 OFFCURVE",
"385 646 OFFCURVE",
"397 606 CURVE",
"632 29 LINE SMOOTH",
"640 10 OFFCURVE",
"658 -3 OFFCURVE",
"679 -3 CURVE SMOOTH",
"714 -3 OFFCURVE",
"739 32 OFFCURVE",
"726 65 CURVE SMOOTH"
);
},
{
closed = 1;
nodes = (
"218 384 LINE",
"183 284 LINE",
"597 284 LINE",
"547 384 LINE"
);
}
);
width = 789;
}
);
leftKerningGroup = A;
leftMetricsKey = "=H-20";
rightKerningGroup = A;
rightMetricsKey = "=|";
unicode = 0041;
},
{
glyphname = AE;
layers = (
{
layerId = "F0262224-B9C7-46EB-9294-168F9DBDA589";
paths = (
{
closed = 1;
nodes = (
"266 362 LINE",
"244 322 LINE",
"473 322 LINE",
"473 362 LINE"
);
},
{
closed = 1;
nodes = (
"481 467 LINE",
"481 427 LINE",
"691 427 LINE SMOOTH",
"702 427 OFFCURVE",
"711 436 OFFCURVE",
"711 447 CURVE SMOOTH",
"711 458 OFFCURVE",
"702 467 OFFCURVE",
"691 467 CURVE SMOOTH"
);
},
{
closed = 1;
nodes = (
"43 10 OFFCURVE",
"56 -3 OFFCURVE",
"69 -3 CURVE SMOOTH",
"78 -3 OFFCURVE",
"84 2 OFFCURVE",
"88 9 CURVE SMOOTH",
"448 670 LINE",
"462 703 OFFCURVE",
"472 731 OFFCURVE",
"467 734 CURVE SMOOTH",
"461 738 OFFCURVE",
"454 700 OFFCURVE",
"454 663 CURVE",
"454 25 LINE SMOOTH",
"454 10 OFFCURVE",
"463 1 OFFCURVE",
"478 1 CURVE SMOOTH",
"753 1 LINE SMOOTH",
"764 1 OFFCURVE",
"773 10 OFFCURVE",
"773 21 CURVE SMOOTH",
"773 32 OFFCURVE",
"764 41 OFFCURVE",
"753 41 CURVE SMOOTH",
"494 41 LINE",
"494 760 LINE",
"733 760 LINE SMOOTH",
"744 760 OFFCURVE",
"753 769 OFFCURVE",
"753 780 CURVE SMOOTH",
"753 791 OFFCURVE",
"744 800 OFFCURVE",
"733 800 CURVE SMOOTH",
"478 800 LINE SMOOTH",
"465 800 OFFCURVE",
"461 796 OFFCURVE",
"455 785 CURVE SMOOTH",
"51 24 LINE SMOOTH"
);
}
);
width = 823;
},
{
layerId = "2E7D65B2-411D-4607-BF7C-7C0096008F1D";
paths = (
{
closed = 1;
nodes = (
"280 325 LINE",
"225 225 LINE",
"535 225 LINE",
"535 325 LINE"
);
},
{
closed = 1;
nodes = (
"483 497 LINE",
"483 397 LINE",
"723 397 LINE SMOOTH",
"751 397 OFFCURVE",
"773 419 OFFCURVE",
"773 447 CURVE SMOOTH",
"773 475 OFFCURVE",
"751 497 OFFCURVE",
"723 497 CURVE SMOOTH"
);
},
{
closed = 1;
nodes = (
"37 25 OFFCURVE",
"65 -13 OFFCURVE",
"101 -13 CURVE SMOOTH",
"120 -13 OFFCURVE",
"136 -3 OFFCURVE",
"146 14 CURVE SMOOTH",
"443 527 LINE",
"481 612 OFFCURVE",
"506 695 OFFCURVE",
"494 700 CURVE SMOOTH",
"482 705 OFFCURVE",
"456 600 OFFCURVE",
"456 527 CURVE",
"456 55 LINE SMOOTH",
"456 23 OFFCURVE",
"478 1 OFFCURVE",
"510 1 CURVE SMOOTH",
"785 1 LINE SMOOTH",
"813 1 OFFCURVE",
"835 23 OFFCURVE",
"835 51 CURVE SMOOTH",
"835 79 OFFCURVE",
"813 101 OFFCURVE",
"785 101 CURVE SMOOTH",
"556 101 LINE",
"556 700 LINE",
"765 700 LINE SMOOTH",
"793 700 OFFCURVE",
"815 722 OFFCURVE",
"815 750 CURVE SMOOTH",
"815 778 OFFCURVE",
"793 800 OFFCURVE",
"765 800 CURVE SMOOTH",
"510 800 LINE SMOOTH",
"487 800 OFFCURVE",
"474 791 OFFCURVE",
"461 769 CURVE SMOOTH",
"56 58 LINE SMOOTH"
);
}
);
width = 885;
}
);
leftKerningGroup = A;
unicode = 00C6;
},
{
glyphname = B;
layers = (
{
layerId = "F0262224-B9C7-46EB-9294-168F9DBDA589";
paths = (
{
closed = 1;
nodes = (
"177 1 OFFCURVE",
"311 0 OFFCURVE",
"333 0 CURVE SMOOTH",
"487 0 OFFCURVE",
"580 114 OFFCURVE",
"580 234 CURVE SMOOTH",
"580 335 OFFCURVE",
"501 445 OFFCURVE",
"389 455 CURVE",
"389 448 LINE",
"468 475 OFFCURVE",
"514 535 OFFCURVE",
"514 618 CURVE SMOOTH",
"514 738 OFFCURVE",
"431 802 OFFCURVE",
"297 802 CURVE SMOOTH",
"271 802 OFFCURVE",
"121 801 OFFCURVE",
"104 800 CURVE SMOOTH",
"88 799 OFFCURVE",
"80 791 OFFCURVE",
"80 776 CURVE SMOOTH",
"80 24 LINE SMOOTH",
"80 10 OFFCURVE",
"90 0 OFFCURVE",
"104 0 CURVE"
);
},
{
closed = 1;
nodes = (
"120 760 LINE",
"131 761 OFFCURVE",
"272 762 OFFCURVE",
"297 762 CURVE SMOOTH",
"410 762 OFFCURVE",
"474 716 OFFCURVE",
"474 618 CURVE SMOOTH",
"474 515 OFFCURVE",
"411 467 OFFCURVE",
"299 467 CURVE SMOOTH",
"111 467 LINE",
"111 427 LINE",
"346 427 LINE SMOOTH",
"458 427 OFFCURVE",
"540 337 OFFCURVE",
"540 234 CURVE SMOOTH",
"540 136 OFFCURVE",
"466 40 OFFCURVE",
"333 40 CURVE SMOOTH",
"310 40 OFFCURVE",
"151 41 OFFCURVE",
"120 42 CURVE"
);
}
);
width = 620;
},
{
layerId = "2E7D65B2-411D-4607-BF7C-7C0096008F1D";
paths = (
{
closed = 1;
nodes = (
"197 -10 OFFCURVE",
"317 -10 OFFCURVE",
"368 -10 CURVE SMOOTH",
"526 -10 OFFCURVE",
"645 95 OFFCURVE",
"645 244 CURVE SMOOTH",
"645 351 OFFCURVE",
"558 449 OFFCURVE",
"456 470 CURVE",
"456 431 LINE",
"540 475 OFFCURVE",
"579 530 OFFCURVE",
"579 608 CURVE SMOOTH",
"579 722 OFFCURVE",
"486 812 OFFCURVE",
"332 812 CURVE SMOOTH",
"306 812 OFFCURVE",
"155 811 OFFCURVE",
"137 810 CURVE SMOOTH",
"106 808 OFFCURVE",
"80 787 OFFCURVE",
"80 756 CURVE SMOOTH",
"80 44 LINE SMOOTH",
"80 14 OFFCURVE",
"109 -10 OFFCURVE",
"139 -10 CURVE SMOOTH"
);
},
{
closed = 1;
nodes = (
"190 701 LINE",
"230 701 OFFCURVE",
"297 702 OFFCURVE",
"332 702 CURVE SMOOTH",
"433 702 OFFCURVE",
"469 665 OFFCURVE",
"469 608 CURVE SMOOTH",
"469 526 OFFCURVE",
"433 492 OFFCURVE",
"334 492 CURVE SMOOTH",
"116 492 LINE",
"116 397 LINE",
"381 397 LINE SMOOTH",
"473 397 OFFCURVE",
"535 335 OFFCURVE",
"535 244 CURVE SMOOTH",
"535 150 OFFCURVE",
"472 100 OFFCURVE",
"368 100 CURVE SMOOTH",
"349 100 OFFCURVE",
"246 101 OFFCURVE",
"190 101 CURVE"
);
}
);
width = 685;
}
);
leftMetricsKey = "=H";
unicode = 0042;
},
{
glyphname = C;
layers = (
{
layerId = "F0262224-B9C7-46EB-9294-168F9DBDA589";
paths = (
{
closed = 1;
nodes = (
"639 56 OFFCURVE",
"545 30 OFFCURVE",
"441 30 CURVE SMOOTH",
"246 30 OFFCURVE",
"100 179 OFFCURVE",
"100 391 CURVE SMOOTH",
"100 604 OFFCURVE",
"246 763 OFFCURVE",
"441 763 CURVE SMOOTH",
"535 763 OFFCURVE",
"611 740 OFFCURVE",
"677 665 CURVE SMOOTH",
"680 662 OFFCURVE",
"685 660 OFFCURVE",
"690 660 CURVE SMOOTH",
"702 660 OFFCURVE",
"711 669 OFFCURVE",
"711 680 CURVE SMOOTH",
"711 685 OFFCURVE",
"708 690 OFFCURVE",
"703 696 CURVE SMOOTH",
"632 776 OFFCURVE",
"545 803 OFFCURVE",
"441 803 CURVE SMOOTH",
"223 803 OFFCURVE",
"60 626 OFFCURVE",
"60 391 CURVE SMOOTH",
"60 156 OFFCURVE",
"223 -10 OFFCURVE",
"441 -10 CURVE SMOOTH",
"538 -10 OFFCURVE",
"648 24 OFFCURVE",
"715 91 CURVE SMOOTH",
"719 95 OFFCURVE",
"722 101 OFFCURVE",
"722 107 CURVE SMOOTH",
"722 118 OFFCURVE",
"713 127 OFFCURVE",
"702 127 CURVE SMOOTH",
"698 127 OFFCURVE",
"692 125 OFFCURVE",
"690 122 CURVE SMOOTH"
);
}
);
width = 771;
},
{
layerId = "2E7D65B2-411D-4607-BF7C-7C0096008F1D";
paths = (
{
closed = 1;
nodes = (
"649 103 OFFCURVE",
"557 80 OFFCURVE",
"471 80 CURVE SMOOTH",
"293 80 OFFCURVE",
"170 208 OFFCURVE",
"170 391 CURVE SMOOTH",
"170 575 OFFCURVE",
"293 703 OFFCURVE",
"471 703 CURVE SMOOTH",
"549 703 OFFCURVE",
"640 675 OFFCURVE",
"684 625 CURVE",
"690 619 OFFCURVE",
"704 610 OFFCURVE",
"720 610 CURVE SMOOTH",
"749 610 OFFCURVE",
"771 632 OFFCURVE",
"771 660 CURVE SMOOTH",
"771 672 OFFCURVE",
"765 684 OFFCURVE",
"756 696 CURVE",
"696 763 OFFCURVE",
"574 813 OFFCURVE",
"471 813 CURVE SMOOTH",
"236 813 OFFCURVE",
"60 632 OFFCURVE",
"60 391 CURVE SMOOTH",
"60 150 OFFCURVE",
"236 -30 OFFCURVE",
"471 -30 CURVE SMOOTH",
"578 -30 OFFCURVE",
"700 17 OFFCURVE",
"756 79 CURVE SMOOTH",
"765 89 OFFCURVE",
"771 102 OFFCURVE",
"771 115 CURVE SMOOTH",
"771 143 OFFCURVE",
"749 165 OFFCURVE",
"721 165 CURVE SMOOTH",
"707 165 OFFCURVE",
"693 158 OFFCURVE",
"684 147 CURVE SMOOTH"
);
}
);
width = 831;
}
);
leftMetricsKey = "=O";
unicode = 0043;
},
{
glyphname = D;
layers = (
{
layerId = "F0262224-B9C7-46EB-9294-168F9DBDA589";
paths = (
{
closed = 1;
nodes = (
"278 0 LINE SMOOTH",
"515 0 OFFCURVE",
"693 178 OFFCURVE",
"693 415 CURVE SMOOTH",
"693 635 OFFCURVE",
"515 800 OFFCURVE",
"278 800 CURVE SMOOTH",
"104 800 LINE SMOOTH",
"89 800 OFFCURVE",
"80 791 OFFCURVE",
"80 776 CURVE SMOOTH",
"80 24 LINE SMOOTH",
"80 9 OFFCURVE",
"89 0 OFFCURVE",
"104 0 CURVE SMOOTH"
);
},
{
closed = 1;
nodes = (
"120 759 LINE",
"154 759 OFFCURVE",
"188 760 OFFCURVE",
"278 760 CURVE SMOOTH",
"492 760 OFFCURVE",
"653 612 OFFCURVE",
"653 415 CURVE SMOOTH",
"653 201 OFFCURVE",
"492 40 OFFCURVE",
"278 40 CURVE SMOOTH",
"210 40 OFFCURVE",
"154 40 OFFCURVE",
"120 40 CURVE"
);
}
);
width = 753;
},
{
layerId = "2E7D65B2-411D-4607-BF7C-7C0096008F1D";
paths = (
{
closed = 1;
nodes = (
"303 -5 LINE SMOOTH",
"557 -5 OFFCURVE",
"748 178 OFFCURVE",
"748 415 CURVE SMOOTH",
"748 635 OFFCURVE",
"557 805 OFFCURVE",
"303 805 CURVE SMOOTH",
"139 805 LINE SMOOTH",
"107 805 OFFCURVE",
"80 783 OFFCURVE",
"80 751 CURVE SMOOTH",
"80 49 LINE SMOOTH",
"80 17 OFFCURVE",
"107 -5 OFFCURVE",
"139 -5 CURVE SMOOTH"
);
},
{
closed = 1;
nodes = (
"190 695 LINE",
"217 695 OFFCURVE",
"255 695 OFFCURVE",
"303 695 CURVE SMOOTH",
"500 695 OFFCURVE",
"638 578 OFFCURVE",
"638 415 CURVE SMOOTH",
"638 235 OFFCURVE",
"500 105 OFFCURVE",
"303 105 CURVE SMOOTH",
"247 105 OFFCURVE",
"223 105 OFFCURVE",
"190 105 CURVE"
);
}
);
width = 808;
}
);
leftMetricsKey = "=H";
rightMetricsKey = "=O";
unicode = 0044;
},
{
glyphname = Eth;
layers = (
{
components = (
{
name = D;
transform = "{1, 0, 0, 1, 81, 0}";
}
);
layerId = "F0262224-B9C7-46EB-9294-168F9DBDA589";
paths = (
{
closed = 1;
nodes = (
"60 437 LINE SMOOTH",
"49 437 OFFCURVE",
"40 428 OFFCURVE",
"40 417 CURVE SMOOTH",
"40 406 OFFCURVE",
"49 397 OFFCURVE",
"60 397 CURVE SMOOTH",
"310 397 LINE SMOOTH",
"321 397 OFFCURVE",
"330 406 OFFCURVE",
"330 417 CURVE SMOOTH",
"330 428 OFFCURVE",
"321 437 OFFCURVE",
"310 437 CURVE SMOOTH"
);
}
);
width = 834;
},
{
components = (
{
name = D;
transform = "{1, 0, 0, 1, 80, 0}";
}
);
layerId = "2E7D65B2-411D-4607-BF7C-7C0096008F1D";
paths = (
{
closed = 1;
nodes = (
"100 467 LINE SMOOTH",
"72 467 OFFCURVE",
"50 445 OFFCURVE",
"50 417 CURVE SMOOTH",
"50 389 OFFCURVE",
"72 367 OFFCURVE",
"100 367 CURVE SMOOTH",
"350 367 LINE SMOOTH",
"378 367 OFFCURVE",
"400 389 OFFCURVE",
"400 417 CURVE SMOOTH",
"400 445 OFFCURVE",
"378 467 OFFCURVE",
"350 467 CURVE SMOOTH"
);
}
);
width = 888;
}
);
rightMetricsKey = "=D";
unicode = 00D0;
},
{
glyphname = E;
layers = (
{
components = (
{
name = C;
}
);
layerId = "F0262224-B9C7-46EB-9294-168F9DBDA589";
paths = (
{
closed = 1;
nodes = (
"62 436 LINE",
"62 396 LINE",
"509 396 LINE SMOOTH",
"520 396 OFFCURVE",
"529 405 OFFCURVE",
"529 416 CURVE SMOOTH",
"529 427 OFFCURVE",
"520 436 OFFCURVE",
"509 436 CURVE SMOOTH"
);
}
);
width = 771;
},
{
components = (
{
name = C;
}
);
layerId = "2E7D65B2-411D-4607-BF7C-7C0096008F1D";
paths = (
{
closed = 1;
nodes = (
"110 466 LINE",
"110 366 LINE",
"509 366 LINE SMOOTH",
"537 366 OFFCURVE",
"559 388 OFFCURVE",
"559 416 CURVE SMOOTH",
"559 444 OFFCURVE",
"537 466 OFFCURVE",
"509 466 CURVE SMOOTH"
);
}
);
width = 831;
}
);
leftMetricsKey = "=O";
rightMetricsKey = "=C";
unicode = 0045;
},
{
glyphname = F;
layers = (
{
layerId = "F0262224-B9C7-46EB-9294-168F9DBDA589";
paths = (
{
closed = 1;
nodes = (
"120 760 LINE",
"445 760 LINE SMOOTH",
"456 760 OFFCURVE",
"465 769 OFFCURVE",
"465 780 CURVE SMOOTH",
"465 791 OFFCURVE",
"456 800 OFFCURVE",
"445 800 CURVE SMOOTH",
"104 800 LINE SMOOTH",
"89 800 OFFCURVE",
"80 791 OFFCURVE",
"80 776 CURVE SMOOTH",
"80 20 LINE SMOOTH",
"80 9 OFFCURVE",
"89 0 OFFCURVE",
"100 0 CURVE SMOOTH",
"111 0 OFFCURVE",
"120 9 OFFCURVE",
"120 20 CURVE SMOOTH"
);
},
{
closed = 1;
nodes = (
"409 432 LINE SMOOTH",
"420 432 OFFCURVE",
"429 441 OFFCURVE",
"429 452 CURVE SMOOTH",
"429 463 OFFCURVE",
"420 472 OFFCURVE",
"409 472 CURVE SMOOTH",
"95 472 LINE",
"95 432 LINE"
);
}
);
width = 525;
},
{
layerId = "2E7D65B2-411D-4607-BF7C-7C0096008F1D";
paths = (
{
closed = 1;
nodes = (
"180 700 LINE",
"465 700 LINE SMOOTH",
"493 700 OFFCURVE",
"515 722 OFFCURVE",
"515 750 CURVE SMOOTH",
"515 778 OFFCURVE",
"493 800 OFFCURVE",
"465 800 CURVE SMOOTH",
"134 800 LINE SMOOTH",
"102 800 OFFCURVE",
"80 778 OFFCURVE",
"80 746 CURVE SMOOTH",
"80 40 LINE SMOOTH",
"80 12 OFFCURVE",
"102 -10 OFFCURVE",
"130 -10 CURVE SMOOTH",
"158 -10 OFFCURVE",
"180 12 OFFCURVE",
"180 40 CURVE SMOOTH"
);
},
{
closed = 1;
nodes = (
"429 402 LINE SMOOTH",
"457 402 OFFCURVE",
"479 424 OFFCURVE",
"479 452 CURVE SMOOTH",
"479 480 OFFCURVE",
"457 502 OFFCURVE",
"429 502 CURVE SMOOTH",
"95 502 LINE",
"95 402 LINE"
);
}
);
width = 575;
}
);
leftMetricsKey = "=H";
unicode = 0046;
},
{
glyphname = G;
layers = (
{
layerId = "F0262224-B9C7-46EB-9294-168F9DBDA589";
paths = (
{
closed = 1;
nodes = (
"633 -20 OFFCURVE",
"769 89 OFFCURVE",
"769 246 CURVE SMOOTH",
"769 338 OFFCURVE",
"718 425 OFFCURVE",
"556 425 CURVE SMOOTH",
"526 425 OFFCURVE",
"481 422 OFFCURVE",
"464 419 CURVE SMOOTH",
"451 417 OFFCURVE",
"438 412 OFFCURVE",
"438 401 CURVE SMOOTH",
"438 387 OFFCURVE",
"451 378 OFFCURVE",
"464 379 CURVE SMOOTH",
"493 381 OFFCURVE",
"538 385 OFFCURVE",
"566 385 CURVE SMOOTH",
"696 385 OFFCURVE",
"729 316 OFFCURVE",
"729 246 CURVE SMOOTH",
"729 112 OFFCURVE",
"612 20 OFFCURVE",
"439 20 CURVE SMOOTH",
"245 20 OFFCURVE",
"100 182 OFFCURVE",
"100 399 CURVE SMOOTH",
"100 609 OFFCURVE",
"250 765 OFFCURVE",
"450 765 CURVE SMOOTH",
"552 765 OFFCURVE",
"628 735 OFFCURVE",
"677 675 CURVE SMOOTH",
"680 671 OFFCURVE",
"686 668 OFFCURVE",
"692 668 CURVE SMOOTH",
"703 668 OFFCURVE",
"712 677 OFFCURVE",
"712 688 CURVE SMOOTH",
"712 692 OFFCURVE",
"711 696 OFFCURVE",
"708 700 CURVE SMOOTH",
"650 770 OFFCURVE",
"562 805 OFFCURVE",
"450 805 CURVE SMOOTH",
"228 805 OFFCURVE",
"60 630 OFFCURVE",
"60 399 CURVE SMOOTH",
"60 160 OFFCURVE",
"223 -20 OFFCURVE",
"439 -20 CURVE SMOOTH"
);
}
);
width = 818;
},
{
layerId = "2E7D65B2-411D-4607-BF7C-7C0096008F1D";
paths = (
{
closed = 1;
nodes = (
"670 -30 OFFCURVE",
"818 88 OFFCURVE",
"818 246 CURVE SMOOTH",
"818 362 OFFCURVE",
"738 459 OFFCURVE",
"590 459 CURVE SMOOTH",
"564 459 OFFCURVE",
"509 456 OFFCURVE",
"489 453 CURVE SMOOTH",
"444 446 OFFCURVE",
"423 427 OFFCURVE",
"423 398 CURVE SMOOTH",
"423 369 OFFCURVE",
"444 348 OFFCURVE",
"489 353 CURVE SMOOTH",
"515 356 OFFCURVE",
"567 359 OFFCURVE",
"592 359 CURVE SMOOTH",
"676 359 OFFCURVE",
"718 305 OFFCURVE",
"718 246 CURVE SMOOTH",
"718 145 OFFCURVE",
"613 80 OFFCURVE",
"464 80 CURVE SMOOTH",
"287 80 OFFCURVE",
"170 211 OFFCURVE",
"170 399 CURVE SMOOTH",
"170 574 OFFCURVE",
"297 715 OFFCURVE",
"480 715 CURVE SMOOTH",
"556 715 OFFCURVE",
"643 671 OFFCURVE",
"684 626 CURVE SMOOTH",
"693 616 OFFCURVE",
"710 608 OFFCURVE",
"722 608 CURVE SMOOTH",
"751 608 OFFCURVE",
"772 629 OFFCURVE",
"772 658 CURVE SMOOTH",
"772 668 OFFCURVE",
"767 682 OFFCURVE",
"760 691 CURVE SMOOTH",
"709 756 OFFCURVE",
"589 815 OFFCURVE",
"480 815 CURVE SMOOTH",
"240 815 OFFCURVE",
"60 631 OFFCURVE",
"60 399 CURVE SMOOTH",
"60 154 OFFCURVE",
"230 -30 OFFCURVE",
"464 -30 CURVE SMOOTH"
);
}
);
width = 878;
}
);
leftMetricsKey = "=O";
rightMetricsKey = "=C";
unicode = 0047;
},
{
glyphname = H;
layers = (
{
layerId = "F0262224-B9C7-46EB-9294-168F9DBDA589";
paths = (
{
closed = 1;
nodes = (
"120 782 LINE SMOOTH",
"120 793 OFFCURVE",
"111 802 OFFCURVE",
"100 802 CURVE SMOOTH",
"89 802 OFFCURVE",
"80 793 OFFCURVE",
"80 782 CURVE SMOOTH",
"80 28 LINE SMOOTH",
"80 17 OFFCURVE",
"89 8 OFFCURVE",
"100 8 CURVE SMOOTH",
"111 8 OFFCURVE",
"120 17 OFFCURVE",
"120 28 CURVE SMOOTH"
);
},
{
closed = 1;
nodes = (
"628 782 LINE SMOOTH",
"628 793 OFFCURVE",
"619 802 OFFCURVE",
"608 802 CURVE SMOOTH",
"597 802 OFFCURVE",
"588 793 OFFCURVE",
"588 782 CURVE SMOOTH",
"588 28 LINE SMOOTH",
"588 17 OFFCURVE",
"597 8 OFFCURVE",
"608 8 CURVE SMOOTH",
"619 8 OFFCURVE",
"628 17 OFFCURVE",
"628 28 CURVE SMOOTH"
);
},
{
closed = 1;
nodes = (
"102 455 LINE",
"102 415 LINE",
"603 415 LINE",
"603 455 LINE"
);
}
);
width = 708;
},
{
layerId = "2E7D65B2-411D-4607-BF7C-7C0096008F1D";
paths = (
{
closed = 1;
nodes = (
"190 762 LINE SMOOTH",
"190 790 OFFCURVE",
"163 812 OFFCURVE",
"135 812 CURVE SMOOTH",
"107 812 OFFCURVE",
"80 790 OFFCURVE",
"80 762 CURVE SMOOTH",
"80 48 LINE SMOOTH",
"80 20 OFFCURVE",
"107 -2 OFFCURVE",
"135 -2 CURVE SMOOTH",
"163 -2 OFFCURVE",
"190 20 OFFCURVE",
"190 48 CURVE SMOOTH"
);
},
{
closed = 1;
nodes = (
"698 762 LINE SMOOTH",
"698 790 OFFCURVE",
"671 812 OFFCURVE",
"643 812 CURVE SMOOTH",
"615 812 OFFCURVE",
"588 790 OFFCURVE",
"588 762 CURVE SMOOTH",
"588 48 LINE SMOOTH",
"588 20 OFFCURVE",
"615 -2 OFFCURVE",
"643 -2 CURVE SMOOTH",
"671 -2 OFFCURVE",
"698 20 OFFCURVE",
"698 48 CURVE SMOOTH"
);
},
{
closed = 1;
nodes = (
"107 485 LINE",
"107 385 LINE",
"668 385 LINE",
"668 485 LINE"
);
}
);
width = 778;
}
);
unicode = 0048;
},
{
glyphname = I;
layers = (
{
layerId = "F0262224-B9C7-46EB-9294-168F9DBDA589";
paths = (
{
closed = 1;
nodes = (
"140 782 LINE SMOOTH",
"140 793 OFFCURVE",
"131 802 OFFCURVE",
"120 802 CURVE SMOOTH",
"109 802 OFFCURVE",
"100 793 OFFCURVE",
"100 782 CURVE SMOOTH",
"100 28 LINE SMOOTH",
"100 17 OFFCURVE",
"109 8 OFFCURVE",
"120 8 CURVE SMOOTH",
"131 8 OFFCURVE",
"140 17 OFFCURVE",
"140 28 CURVE SMOOTH"
);
}
);
width = 240;
},
{
layerId = "2E7D65B2-411D-4607-BF7C-7C0096008F1D";
paths = (
{
closed = 1;
nodes = (
"200 762 LINE SMOOTH",
"200 790 OFFCURVE",
"178 812 OFFCURVE",
"150 812 CURVE SMOOTH",
"122 812 OFFCURVE",
"100 790 OFFCURVE",
"100 762 CURVE SMOOTH",
"100 48 LINE SMOOTH",
"100 20 OFFCURVE",
"122 -2 OFFCURVE",
"150 -2 CURVE SMOOTH",
"178 -2 OFFCURVE",
"200 20 OFFCURVE",
"200 48 CURVE SMOOTH"
);
}
);
width = 300;
}
);
leftMetricsKey = "=H+20";
rightMetricsKey = "=|";
unicode = 0049;
},
{
glyphname = J;
layers = (
{
layerId = "F0262224-B9C7-46EB-9294-168F9DBDA589";
paths = (
{
closed = 1;
nodes = (
"212 -291 OFFCURVE",
"340 -127 OFFCURVE",
"340 94 CURVE SMOOTH",
"340 789 LINE SMOOTH",
"340 800 OFFCURVE",
"331 809 OFFCURVE",
"320 809 CURVE SMOOTH",
"309 809 OFFCURVE",
"300 800 OFFCURVE",
"300 789 CURVE SMOOTH",
"300 94 LINE SMOOTH",
"300 -107 OFFCURVE",
"187 -251 OFFCURVE",
"18 -268 CURVE SMOOTH",
"8 -269 OFFCURVE",
"0 -277 OFFCURVE",
"0 -288 CURVE SMOOTH",
"0 -300 OFFCURVE",
"11 -309 OFFCURVE",
"22 -308 CURVE SMOOTH"
);
}
);
width = 420;
},
{
layerId = "2E7D65B2-411D-4607-BF7C-7C0096008F1D";
paths = (
{
closed = 1;
nodes = (
"262 -294 OFFCURVE",
"400 -132 OFFCURVE",
"400 104 CURVE SMOOTH",
"400 769 LINE SMOOTH",
"400 797 OFFCURVE",
"378 819 OFFCURVE",
"350 819 CURVE SMOOTH",
"322 819 OFFCURVE",
"300 797 OFFCURVE",
"300 769 CURVE SMOOTH",
"300 104 LINE SMOOTH",
"300 -81 OFFCURVE",
"199 -190 OFFCURVE",
"45 -208 CURVE SMOOTH",
"19 -211 OFFCURVE",
"0 -232 OFFCURVE",
"0 -258 CURVE SMOOTH",
"0 -287 OFFCURVE",
"26 -310 OFFCURVE",
"55 -308 CURVE SMOOTH"
);
}
);
width = 480;
}
);
rightMetricsKey = "=H";
unicode = 004A;
},
{
glyphname = K;
layers = (
{
layerId = "F0262224-B9C7-46EB-9294-168F9DBDA589";
paths = (
{
closed = 1;
nodes = (
"120 784 LINE SMOOTH",
"120 795 OFFCURVE",
"111 804 OFFCURVE",
"100 804 CURVE SMOOTH",
"89 804 OFFCURVE",
"80 795 OFFCURVE",
"80 784 CURVE SMOOTH",
"80 19 LINE SMOOTH",
"80 8 OFFCURVE",
"89 -1 OFFCURVE",
"100 -1 CURVE SMOOTH",
"111 -1 OFFCURVE",
"120 8 OFFCURVE",
"120 19 CURVE SMOOTH"
);
},
{
closed = 1;
nodes = (
"159 414 LINE",
"135 432 OFFCURVE",
"128 424 OFFCURVE",
"128 418 CURVE SMOOTH",
"128 409 OFFCURVE",
"136 408 OFFCURVE",
"159 426 CURVE",
"567 775 LINE SMOOTH",
"571 779 OFFCURVE",
"574 785 OFFCURVE",
"574 791 CURVE SMOOTH",
"574 802 OFFCURVE",
"565 811 OFFCURVE",
"555 811 CURVE SMOOTH",
"550 811 OFFCURVE",
"545 809 OFFCURVE",
"542 806 CURVE SMOOTH",
"113 436 LINE",
"112 403 LINE",
"549 -3 LINE SMOOTH",
"552 -6 OFFCURVE",
"557 -8 OFFCURVE",
"562 -8 CURVE SMOOTH",
"573 -8 OFFCURVE",
"582 1 OFFCURVE",
"582 12 CURVE SMOOTH",
"582 18 OFFCURVE",
"579 24 OFFCURVE",
"575 27 CURVE SMOOTH"
);
}
);
width = 622;
},
{
layerId = "2E7D65B2-411D-4607-BF7C-7C0096008F1D";
paths = (
{
closed = 1;
nodes = (
"180 764 LINE SMOOTH",
"180 792 OFFCURVE",
"158 814 OFFCURVE",
"130 814 CURVE SMOOTH",
"102 814 OFFCURVE",
"80 792 OFFCURVE",
"80 764 CURVE SMOOTH",
"80 39 LINE SMOOTH",
"80 11 OFFCURVE",
"102 -11 OFFCURVE",
"130 -11 CURVE SMOOTH",
"158 -11 OFFCURVE",
"180 11 OFFCURVE",
"180 39 CURVE SMOOTH"
);
},
{
closed = 1;
nodes = (
"264 408 LINE",
"229 437 OFFCURVE",
"189 463 OFFCURVE",
"189 421 CURVE SMOOTH",
"189 388 OFFCURVE",
"227 407 OFFCURVE",
"264 437 CURVE",
"607 733 LINE SMOOTH",
"617 741 OFFCURVE",
"624 757 OFFCURVE",
"624 771 CURVE SMOOTH",
"624 798 OFFCURVE",
"602 821 OFFCURVE",
"575 821 CURVE SMOOTH",
"563 821 OFFCURVE",
"551 816 OFFCURVE",
"542 808 CURVE SMOOTH",
"133 450 LINE",
"132 395 LINE",
"548 -5 LINE SMOOTH",
"557 -13 OFFCURVE",
"570 -18 OFFCURVE",
"582 -18 CURVE SMOOTH",
"610 -18 OFFCURVE",
"632 4 OFFCURVE",
"632 32 CURVE SMOOTH",
"632 46 OFFCURVE",
"624 60 OFFCURVE",
"614 70 CURVE SMOOTH"
);
}
);
width = 672;
}
);
leftMetricsKey = "=H";
unicode = 004B;
},
{
glyphname = L;
layers = (
{
layerId = "F0262224-B9C7-46EB-9294-168F9DBDA589";
paths = (
{
closed = 1;
nodes = (
"120 55 LINE",
"120 781 LINE SMOOTH",
"120 792 OFFCURVE",
"111 801 OFFCURVE",
"100 801 CURVE SMOOTH",
"89 801 OFFCURVE",
"80 792 OFFCURVE",
"80 781 CURVE SMOOTH",
"80 39 LINE SMOOTH",
"80 24 OFFCURVE",
"89 15 OFFCURVE",
"104 15 CURVE SMOOTH",
"372 15 LINE SMOOTH",
"383 15 OFFCURVE",
"392 24 OFFCURVE",
"392 35 CURVE SMOOTH",
"392 46 OFFCURVE",
"383 55 OFFCURVE",
"372 55 CURVE SMOOTH"
);
}
);
width = 442;
},
{
layerId = "2E7D65B2-411D-4607-BF7C-7C0096008F1D";
paths = (
{
closed = 1;
nodes = (
"180 100 LINE",
"180 761 LINE SMOOTH",
"180 789 OFFCURVE",
"158 811 OFFCURVE",
"130 811 CURVE SMOOTH",
"102 811 OFFCURVE",
"80 789 OFFCURVE",
"80 761 CURVE SMOOTH",
"80 54 LINE SMOOTH",
"80 22 OFFCURVE",
"102 0 OFFCURVE",
"134 0 CURVE SMOOTH",
"402 0 LINE SMOOTH",
"430 0 OFFCURVE",
"452 22 OFFCURVE",
"452 50 CURVE SMOOTH",
"452 78 OFFCURVE",
"430 100 OFFCURVE",
"402 100 CURVE SMOOTH"
);
}
);
width = 502;
}
);
leftMetricsKey = "=H";
unicode = 004C;
},
{
glyphname = M;
layers = (
{
layerId = "F0262224-B9C7-46EB-9294-168F9DBDA589";
paths = (
{
closed = 1;
nodes = (
"89 4 OFFCURVE",
"97 11 OFFCURVE",
"99 19 CURVE SMOOTH",
"256 720 LINE",
"263 748 OFFCURVE",
"261 758 OFFCURVE",
"258 758 CURVE SMOOTH",
"255 758 OFFCURVE",
"255 749 OFFCURVE",
"262 720 CURVE",
"477 27 LINE SMOOTH",
"480 17 OFFCURVE",
"489 10 OFFCURVE",
"500 10 CURVE SMOOTH",
"511 10 OFFCURVE",
"520 17 OFFCURVE",
"523 28 CURVE SMOOTH",
"719 725 LINE",
"724 746 OFFCURVE",
"724 751 OFFCURVE",
"721 751 CURVE SMOOTH",
"718 751 OFFCURVE",
"719 746 OFFCURVE",
"723 725 CURVE",
"896 9 LINE SMOOTH",
"898 0 OFFCURVE",
"906 -6 OFFCURVE",
"915 -6 CURVE SMOOTH",
"928 -6 OFFCURVE",
"937 7 OFFCURVE",
"934 19 CURVE SMOOTH",
"743 799 LINE SMOOTH",
"740 810 OFFCURVE",
"731 816 OFFCURVE",
"720 816 CURVE SMOOTH",
"709 816 OFFCURVE",
"700 809 OFFCURVE",
"697 798 CURVE SMOOTH",
"503 106 LINE",
"496 81 OFFCURVE",
"497 67 OFFCURVE",
"500 68 CURVE SMOOTH",
"503 68 OFFCURVE",
"501 85 OFFCURVE",
"496 106 CURVE",
"280 792 LINE SMOOTH",
"277 802 OFFCURVE",
"268 809 OFFCURVE",
"257 809 CURVE SMOOTH",
"246 809 OFFCURVE",
"237 802 OFFCURVE",
"234 791 CURVE SMOOTH",
"61 29 LINE SMOOTH",
"58 16 OFFCURVE",
"68 4 OFFCURVE",
"80 4 CURVE SMOOTH"
);
}
);
width = 995;
},
{
layerId = "2E7D65B2-411D-4607-BF7C-7C0096008F1D";
paths = (
{
closed = 1;
nodes = (
"132 -6 OFFCURVE",
"158 11 OFFCURVE",
"162 32 CURVE SMOOTH",
"273 600 LINE",
"279 631 OFFCURVE",
"310 746 OFFCURVE",
"277 746 CURVE SMOOTH",
"244 746 OFFCURVE",
"277 637 OFFCURVE",
"281 600 CURVE",
"466 49 LINE SMOOTH",
"474 26 OFFCURVE",
"499 10 OFFCURVE",
"523 10 CURVE SMOOTH",
"548 10 OFFCURVE",
"567 26 OFFCURVE",
"575 50 CURVE SMOOTH",
"754 600 LINE",
"758 637 OFFCURVE",
"794 751 OFFCURVE",
"760 751 CURVE SMOOTH",
"725 751 OFFCURVE",
"758 637 OFFCURVE",
"762 600 CURVE",
"891 22 LINE SMOOTH",
"896 0 OFFCURVE",
"921 -16 OFFCURVE",
"944 -16 CURVE SMOOTH",
"976 -16 OFFCURVE",
"1007 15 OFFCURVE",
"999 47 CURVE SMOOTH",
"818 777 LINE SMOOTH",
"812 801 OFFCURVE",
"784 816 OFFCURVE",
"759 816 CURVE SMOOTH",
"734 816 OFFCURVE",
"711 800 OFFCURVE",
"703 776 CURVE SMOOTH",
"522 203 LINE",
"509 137 OFFCURVE",
"487 64 OFFCURVE",
"523 64 CURVE SMOOTH",
"552 64 OFFCURVE",
"521 135 OFFCURVE",
"510 203 CURVE",
"328 770 LINE SMOOTH",
"321 793 OFFCURVE",
"300 809 OFFCURVE",
"276 809 CURVE SMOOTH",
"251 809 OFFCURVE",
"230 793 OFFCURVE",
"224 769 CURVE SMOOTH",
"61 56 LINE SMOOTH",
"54 24 OFFCURVE",
"77 -6 OFFCURVE",
"109 -6 CURVE SMOOTH"
);
}
);
width = 1060;
}
);
leftMetricsKey = "=A";
rightMetricsKey = "=|";
unicode = 004D;
},
{
glyphname = N;
layers = (
{
layerId = "F0262224-B9C7-46EB-9294-168F9DBDA589";
paths = (
{
closed = 1;
nodes = (
"111 10 OFFCURVE",
"120 19 OFFCURVE",
"120 30 CURVE SMOOTH",
"120 728 LINE SMOOTH",
"120 745 OFFCURVE",
"117 755 OFFCURVE",
"114 754 CURVE SMOOTH",
"111 753 OFFCURVE",
"115 743 OFFCURVE",
"125 729 CURVE SMOOTH",
"654 15 LINE SMOOTH",
"658 9 OFFCURVE",
"665 5 OFFCURVE",
"674 5 CURVE SMOOTH",
"688 5 OFFCURVE",
"699 16 OFFCURVE",
"699 30 CURVE SMOOTH",
"699 776 LINE SMOOTH",
"699 787 OFFCURVE",
"690 796 OFFCURVE",
"679 796 CURVE SMOOTH",
"668 796 OFFCURVE",
"659 787 OFFCURVE",
"659 776 CURVE SMOOTH",
"659 83 LINE SMOOTH",
"659 66 OFFCURVE",
"662 56 OFFCURVE",
"665 57 CURVE SMOOTH",
"668 58 OFFCURVE",
"664 68 OFFCURVE",
"654 82 CURVE SMOOTH",
"125 796 LINE SMOOTH",
"121 802 OFFCURVE",
"114 806 OFFCURVE",
"105 806 CURVE SMOOTH",
"91 806 OFFCURVE",
"80 795 OFFCURVE",
"80 781 CURVE SMOOTH",
"80 30 LINE SMOOTH",
"80 19 OFFCURVE",
"89 10 OFFCURVE",
"100 10 CURVE SMOOTH"
);
}
);
width = 779;
},
{
layerId = "2E7D65B2-411D-4607-BF7C-7C0096008F1D";
paths = (
{
closed = 1;
nodes = (
"163 -20 OFFCURVE",
"190 2 OFFCURVE",
"190 30 CURVE SMOOTH",
"190 607 LINE",
"190 641 OFFCURVE",
"172 763 OFFCURVE",
"140 752 CURVE SMOOTH",
"107 741 OFFCURVE",
"185 631 OFFCURVE",
"197 604 CURVE",
"665 18 LINE SMOOTH",
"676 4 OFFCURVE",
"691 -5 OFFCURVE",
"709 -5 CURVE SMOOTH",
"739 -5 OFFCURVE",
"769 20 OFFCURVE",
"769 50 CURVE SMOOTH",
"769 766 LINE SMOOTH",
"769 794 OFFCURVE",
"742 816 OFFCURVE",
"714 816 CURVE SMOOTH",
"686 816 OFFCURVE",
"659 794 OFFCURVE",
"659 766 CURVE SMOOTH",
"659 103 LINE SMOOTH",
"659 69 OFFCURVE",
"677 40 OFFCURVE",
"709 49 CURVE SMOOTH",
"747 60 OFFCURVE",
"676 150 OFFCURVE",
"644 201 CURVE",
"184 783 LINE SMOOTH",
"173 797 OFFCURVE",
"158 806 OFFCURVE",
"140 806 CURVE SMOOTH",
"110 806 OFFCURVE",
"80 781 OFFCURVE",
"80 751 CURVE SMOOTH",
"80 30 LINE SMOOTH",
"80 2 OFFCURVE",
"107 -20 OFFCURVE",
"135 -20 CURVE SMOOTH"
);
}
);
width = 849;
}
);
leftMetricsKey = "=H";
rightMetricsKey = "=|";
unicode = 004E;
},
{
glyphname = O;
layers = (
{
layerId = "F0262224-B9C7-46EB-9294-168F9DBDA589";
paths = (
{
closed = 1;
nodes = (
"660 -20 OFFCURVE",
"824 157 OFFCURVE",
"824 393 CURVE SMOOTH",
"824 629 OFFCURVE",
"660 806 OFFCURVE",
"442 806 CURVE SMOOTH",
"224 806 OFFCURVE",
"60 629 OFFCURVE",
"60 393 CURVE SMOOTH",
"60 157 OFFCURVE",
"224 -20 OFFCURVE",
"442 -20 CURVE SMOOTH"
);
},
{
closed = 1;
nodes = (
"247 20 OFFCURVE",
"100 180 OFFCURVE",
"100 393 CURVE SMOOTH",
"100 606 OFFCURVE",
"247 766 OFFCURVE",
"442 766 CURVE SMOOTH",
"637 766 OFFCURVE",
"784 606 OFFCURVE",
"784 393 CURVE SMOOTH",
"784 180 OFFCURVE",
"637 20 OFFCURVE",
"442 20 CURVE SMOOTH"
);
}
);
width = 884;
},
{
layerId = "2E7D65B2-411D-4607-BF7C-7C0096008F1D";
paths = (
{
closed = 1;
nodes = (
"684 -35 OFFCURVE",
"854 148 OFFCURVE",
"854 393 CURVE SMOOTH",
"854 638 OFFCURVE",
"684 821 OFFCURVE",
"457 821 CURVE SMOOTH",
"230 821 OFFCURVE",
"60 638 OFFCURVE",
"60 393 CURVE SMOOTH",
"60 148 OFFCURVE",
"230 -35 OFFCURVE",
"457 -35 CURVE SMOOTH"
);
},
{
closed = 1;
nodes = (
"293 75 OFFCURVE",
"170 211 OFFCURVE",
"170 393 CURVE SMOOTH",
"170 575 OFFCURVE",
"293 711 OFFCURVE",
"457 711 CURVE SMOOTH",
"621 711 OFFCURVE",
"744 575 OFFCURVE",
"744 393 CURVE SMOOTH",
"744 211 OFFCURVE",
"621 75 OFFCURVE",
"457 75 CURVE SMOOTH"
);
}
);
width = 914;
}
);
leftMetricsKey = "=H-20";
rightMetricsKey = "=|";
unicode = 004F;
},
{
glyphname = Oslash;
layers = (
{
components = (
{
name = O;
}
);
layerId = "F0262224-B9C7-46EB-9294-168F9DBDA589";
paths = (
{
closed = 1;
nodes = (
"780 800 LINE SMOOTH",
"787 810 OFFCURVE",
"785 821 OFFCURVE",
"776 828 CURVE SMOOTH",
"767 835 OFFCURVE",
"755 832 OFFCURVE",
"748 823 CURVE SMOOTH",
"109 -23 LINE SMOOTH",
"102 -33 OFFCURVE",
"104 -44 OFFCURVE",
"113 -51 CURVE SMOOTH",
"122 -58 OFFCURVE",
"134 -55 OFFCURVE",
"141 -46 CURVE SMOOTH"
);
}
);
width = 884;
},
{
components = (
{
name = O;
}
);
layerId = "2E7D65B2-411D-4607-BF7C-7C0096008F1D";
paths = (
{
closed = 1;
nodes = (
"810 775 LINE SMOOTH",
"825 795 OFFCURVE",
"821 821 OFFCURVE",
"801 837 CURVE SMOOTH",
"781 853 OFFCURVE",
"754 847 OFFCURVE",
"738 827 CURVE SMOOTH",
"76 -11 LINE SMOOTH",
"60 -31 OFFCURVE",
"65 -57 OFFCURVE",
"85 -73 CURVE SMOOTH",
"105 -89 OFFCURVE",
"131 -84 OFFCURVE",
"148 -63 CURVE SMOOTH"
);
}
);
width = 914;
}
);
unicode = 00D8;
},
{
glyphname = OE;
layers = (
{
layerId = "F0262224-B9C7-46EB-9294-168F9DBDA589";
paths = (
{
closed = 1;
nodes = (
"595 467 LINE",
"595 427 LINE",
"805 427 LINE SMOOTH",
"816 427 OFFCURVE",
"825 436 OFFCURVE",
"825 447 CURVE SMOOTH",
"825 458 OFFCURVE",
"816 467 OFFCURVE",
"805 467 CURVE SMOOTH"
);
},
{
closed = 1;
nodes = (
"568 25 LINE",
"568 10 OFFCURVE",
"577 1 OFFCURVE",
"592 1 CURVE SMOOTH",
"867 1 LINE SMOOTH",
"878 1 OFFCURVE",
"887 10 OFFCURVE",
"887 21 CURVE SMOOTH",
"887 32 OFFCURVE",
"878 41 OFFCURVE",
"867 41 CURVE SMOOTH",
"608 41 LINE",
"608 760 LINE",
"847 760 LINE SMOOTH",
"858 760 OFFCURVE",
"867 769 OFFCURVE",
"867 780 CURVE SMOOTH",
"867 791 OFFCURVE",
"858 800 OFFCURVE",
"847 800 CURVE SMOOTH",
"592 800 LINE SMOOTH",
"579 800 OFFCURVE",
"575 796 OFFCURVE",
"569 785 CURVE"
);
},
{
closed = 1;
nodes = (
"519 -20 OFFCURVE",
"604 157 OFFCURVE",
"604 393 CURVE SMOOTH",
"604 629 OFFCURVE",
"519 806 OFFCURVE",
"352 806 CURVE SMOOTH",
"185 806 OFFCURVE",
"60 629 OFFCURVE",
"60 393 CURVE SMOOTH",
"60 157 OFFCURVE",
"185 -20 OFFCURVE",
"352 -20 CURVE SMOOTH"
);
},
{
closed = 1;
nodes = (
"208 20 OFFCURVE",
"100 180 OFFCURVE",
"100 393 CURVE SMOOTH",
"100 606 OFFCURVE",
"208 766 OFFCURVE",
"352 766 CURVE SMOOTH",
"496 766 OFFCURVE",
"564 606 OFFCURVE",
"564 393 CURVE SMOOTH",
"564 180 OFFCURVE",
"496 20 OFFCURVE",
"352 20 CURVE SMOOTH"
);
}
);
width = 947;
},
{
layerId = "2E7D65B2-411D-4607-BF7C-7C0096008F1D";
paths = (
{
closed = 1;
nodes = (
"615 497 LINE",
"615 397 LINE",
"855 397 LINE SMOOTH",
"883 397 OFFCURVE",
"905 419 OFFCURVE",
"905 447 CURVE SMOOTH",
"905 475 OFFCURVE",
"883 497 OFFCURVE",
"855 497 CURVE SMOOTH"
);
},
{
closed = 1;
nodes = (
"588 55 LINE SMOOTH",
"588 23 OFFCURVE",
"610 1 OFFCURVE",
"642 1 CURVE SMOOTH",
"917 1 LINE SMOOTH",
"945 1 OFFCURVE",
"967 23 OFFCURVE",
"967 51 CURVE SMOOTH",
"967 79 OFFCURVE",
"945 101 OFFCURVE",
"917 101 CURVE SMOOTH",
"688 101 LINE",
"688 700 LINE",
"897 700 LINE SMOOTH",
"925 700 OFFCURVE",
"947 722 OFFCURVE",
"947 750 CURVE SMOOTH",
"947 778 OFFCURVE",
"925 800 OFFCURVE",
"897 800 CURVE SMOOTH",
"642 800 LINE SMOOTH",
"616 800 OFFCURVE",
"601 789 OFFCURVE",
"589 762 CURVE"
);
},
{
closed = 1;
nodes = (
"567 -20 OFFCURVE",
"664 140 OFFCURVE",
"664 393 CURVE SMOOTH",
"664 616 OFFCURVE",
"567 806 OFFCURVE",
"382 806 CURVE SMOOTH",
"197 806 OFFCURVE",
"60 646 OFFCURVE",
"60 393 CURVE SMOOTH",
"60 140 OFFCURVE",
"197 -20 OFFCURVE",
"382 -20 CURVE SMOOTH"
);
},
{
closed = 1;
nodes = (
"256 80 OFFCURVE",
"160 196 OFFCURVE",
"160 393 CURVE SMOOTH",
"160 590 OFFCURVE",
"256 706 OFFCURVE",
"382 706 CURVE SMOOTH",
"508 706 OFFCURVE",
"564 590 OFFCURVE",
"564 393 CURVE SMOOTH",
"564 196 OFFCURVE",
"508 80 OFFCURVE",
"382 80 CURVE SMOOTH"
);
}
);
width = 1027;
}
);
leftMetricsKey = "=O";
unicode = 0152;
},
{
glyphname = P;
layers = (
{
layerId = "F0262224-B9C7-46EB-9294-168F9DBDA589";
paths = (
{
closed = 1;
nodes = (
"297 427 LINE SMOOTH",
"433 427 OFFCURVE",
"514 498 OFFCURVE",
"514 618 CURVE SMOOTH",
"514 734 OFFCURVE",
"433 802 OFFCURVE",
"297 802 CURVE SMOOTH",
"271 802 OFFCURVE",
"121 801 OFFCURVE",
"104 800 CURVE SMOOTH",
"88 799 OFFCURVE",
"80 791 OFFCURVE",
"80 776 CURVE SMOOTH",
"80 19 LINE SMOOTH",
"80 8 OFFCURVE",
"89 -1 OFFCURVE",
"100 -1 CURVE SMOOTH",
"111 -1 OFFCURVE",
"120 8 OFFCURVE",
"120 19 CURVE SMOOTH",
"120 760 LINE",
"131 761 OFFCURVE",
"272 762 OFFCURVE",
"297 762 CURVE SMOOTH",
"408 762 OFFCURVE",
"474 709 OFFCURVE",
"474 618 CURVE SMOOTH",
"474 523 OFFCURVE",
"409 467 OFFCURVE",
"299 467 CURVE SMOOTH",
"111 467 LINE",
"111 427 LINE"
);
}
);
width = 554;
},
{
layerId = "2E7D65B2-411D-4607-BF7C-7C0096008F1D";
paths = (
{
closed = 1;
nodes = (
"334 387 LINE SMOOTH",
"488 387 OFFCURVE",
"579 475 OFFCURVE",
"579 608 CURVE SMOOTH",
"579 736 OFFCURVE",
"487 812 OFFCURVE",
"332 812 CURVE SMOOTH",
"304 812 OFFCURVE",
"154 811 OFFCURVE",
"137 810 CURVE SMOOTH",
"106 808 OFFCURVE",
"80 787 OFFCURVE",
"80 756 CURVE SMOOTH",
"80 39 LINE SMOOTH",
"80 11 OFFCURVE",
"107 -11 OFFCURVE",
"135 -11 CURVE SMOOTH",
"163 -11 OFFCURVE",
"190 11 OFFCURVE",
"190 39 CURVE SMOOTH",
"190 701 LINE",
"205 702 OFFCURVE",
"318 702 OFFCURVE",
"332 702 CURVE SMOOTH",
"424 702 OFFCURVE",
"469 673 OFFCURVE",
"469 608 CURVE SMOOTH",
"469 532 OFFCURVE",
"425 487 OFFCURVE",
"334 487 CURVE SMOOTH",
"116 487 LINE",
"116 387 LINE"
);
}
);
width = 619;
}
);
leftMetricsKey = "=H";
unicode = 0050;
},
{
glyphname = Thorn;
layers = (
{
layerId = "F0262224-B9C7-46EB-9294-168F9DBDA589";
paths = (
{
closed = 1;
nodes = (
"119 565 LINE",
"113 566 OFFCURVE",
"270 567 OFFCURVE",
"297 567 CURVE SMOOTH",
"408 567 OFFCURVE",
"474 514 OFFCURVE",
"474 423 CURVE SMOOTH",
"474 328 OFFCURVE",
"409 272 OFFCURVE",
"299 272 CURVE SMOOTH",
"111 272 LINE",
"111 232 LINE",
"297 232 LINE SMOOTH",
"433 232 OFFCURVE",
"514 303 OFFCURVE",
"514 423 CURVE SMOOTH",
"514 539 OFFCURVE",
"433 607 OFFCURVE",
"297 607 CURVE SMOOTH",
"271 607 OFFCURVE",
"121 606 OFFCURVE",
"104 605 CURVE"
);
},
{
closed = 1;
nodes = (
"87 800 OFFCURVE",
"80 791 OFFCURVE",
"80 776 CURVE SMOOTH",
"80 19 LINE SMOOTH",
"80 8 OFFCURVE",
"89 -1 OFFCURVE",
"100 -1 CURVE SMOOTH",
"111 -1 OFFCURVE",
"120 8 OFFCURVE",
"120 19 CURVE SMOOTH",
"120 776 LINE SMOOTH",
"120 791 OFFCURVE",
"112 800 OFFCURVE",
"99 800 CURVE SMOOTH"
);
}
);
width = 554;
},
{
layerId = "2E7D65B2-411D-4607-BF7C-7C0096008F1D";
paths = (
{
closed = 1;
nodes = (
"121 537 LINE",
"167 537 OFFCURVE",
"194 537 OFFCURVE",
"327 537 CURVE SMOOTH",
"422 537 OFFCURVE",
"474 496 OFFCURVE",
"474 423 CURVE SMOOTH",
"474 345 OFFCURVE",
"423 302 OFFCURVE",
"329 302 CURVE SMOOTH",
"111 302 LINE",
"111 202 LINE",
"327 202 LINE SMOOTH",
"479 202 OFFCURVE",
"574 286 OFFCURVE",
"574 423 CURVE SMOOTH",
"574 556 OFFCURVE",
"479 637 OFFCURVE",
"327 637 CURVE SMOOTH",
"301 637 OFFCURVE",
"150 636 OFFCURVE",
"132 635 CURVE"
);
},
{
closed = 1;
nodes = (
"99 810 OFFCURVE",
"80 786 OFFCURVE",
"80 756 CURVE SMOOTH",
"80 39 LINE SMOOTH",
"80 11 OFFCURVE",
"102 -11 OFFCURVE",
"130 -11 CURVE SMOOTH",
"158 -11 OFFCURVE",
"180 11 OFFCURVE",
"180 39 CURVE SMOOTH",
"180 756 LINE SMOOTH",
"180 787 OFFCURVE",
"159 810 OFFCURVE",
"129 810 CURVE SMOOTH"
);
}
);
width = 614;
}
);
leftMetricsKey = "=P";
rightMetricsKey = "=P";
unicode = 00DE;
},
{
glyphname = Q;
layers = (
{
components = (
{
name = O;
}
);
layerId = "F0262224-B9C7-46EB-9294-168F9DBDA589";
paths = (
{
closed = 1;
nodes = (
"643 -126 OFFCURVE",
"522 12 OFFCURVE",
"405 12 CURVE SMOOTH",
"327 12 OFFCURVE",
"265 -12 OFFCURVE",
"211 -65 CURVE SMOOTH",
"208 -68 OFFCURVE",
"205 -74 OFFCURVE",
"205 -79 CURVE SMOOTH",
"205 -90 OFFCURVE",
"213 -99 OFFCURVE",
"224 -99 CURVE SMOOTH",
"230 -99 OFFCURVE",
"235 -97 OFFCURVE",
"238 -94 CURVE SMOOTH",
"285 -47 OFFCURVE",
"336 -28 OFFCURVE",
"405 -28 CURVE SMOOTH",
"511 -28 OFFCURVE",
"632 -160 OFFCURVE",
"751 -183 CURVE SMOOTH",
"763 -185 OFFCURVE",
"773 -176 OFFCURVE",
"773 -164 CURVE SMOOTH",
"773 -153 OFFCURVE",
"765 -145 OFFCURVE",
"756 -144 CURVE SMOOTH"
);
}
);
width = 884;
},
{
components = (
{
name = O;
}
);
layerId = "2E7D65B2-411D-4607-BF7C-7C0096008F1D";
paths = (
{
closed = 1;
nodes = (
"653 -96 OFFCURVE",
"543 25 OFFCURVE",
"438 25 CURVE SMOOTH",
"352 25 OFFCURVE",
"285 -15 OFFCURVE",
"223 -70 CURVE SMOOTH",
"214 -78 OFFCURVE",
"208 -93 OFFCURVE",
"208 -105 CURVE SMOOTH",
"208 -133 OFFCURVE",
"229 -155 OFFCURVE",
"257 -155 CURVE SMOOTH",
"270 -155 OFFCURVE",
"283 -150 OFFCURVE",
"292 -141 CURVE SMOOTH",
"333 -100 OFFCURVE",
"375 -57 OFFCURVE",
"438 -57 CURVE SMOOTH",
"509 -57 OFFCURVE",
"621 -195 OFFCURVE",
"736 -195 CURVE SMOOTH",
"769 -195 OFFCURVE",
"792 -176 OFFCURVE",
"792 -146 CURVE SMOOTH",
"792 -120 OFFCURVE",
"769 -96 OFFCURVE",
"745 -96 CURVE SMOOTH"
);
}
);
width = 914;
}
);
leftMetricsKey = "=O";
rightMetricsKey = "=|";
unicode = 0051;
},
{
glyphname = R;
layers = (
{
layerId = "F0262224-B9C7-46EB-9294-168F9DBDA589";
paths = (
{
closed = 1;
nodes = (
"249 427 LINE",
"333 437 LINE",
"445 447 OFFCURVE",
"514 517 OFFCURVE",
"514 618 CURVE SMOOTH",
"514 738 OFFCURVE",
"431 802 OFFCURVE",
"297 802 CURVE SMOOTH",
"271 802 OFFCURVE",
"121 801 OFFCURVE",
"104 800 CURVE SMOOTH",
"88 799 OFFCURVE",
"80 791 OFFCURVE",
"80 776 CURVE SMOOTH",
"80 19 LINE SMOOTH",
"80 8 OFFCURVE",
"89 -1 OFFCURVE",
"100 -1 CURVE SMOOTH",
"111 -1 OFFCURVE",
"120 8 OFFCURVE",
"120 19 CURVE SMOOTH",
"120 760 LINE",
"131 761 OFFCURVE",
"272 762 OFFCURVE",
"297 762 CURVE SMOOTH",
"410 762 OFFCURVE",
"474 716 OFFCURVE",
"474 618 CURVE SMOOTH",
"474 515 OFFCURVE",
"411 467 OFFCURVE",
"299 467 CURVE SMOOTH",
"111 467 LINE",
"111 427 LINE"
);
},
{
closed = 1;
nodes = (
"513 41 OFFCURVE",
"495 86 OFFCURVE",
"489 154 CURVE SMOOTH",
"486 188 OFFCURVE",
"484 227 OFFCURVE",
"478 300 CURVE SMOOTH",
"469 411 OFFCURVE",
"336 450 OFFCURVE",
"254 459 CURVE",
"246 427 LINE",
"316 427 OFFCURVE",
"431 381 OFFCURVE",
"438 296 CURVE SMOOTH",
"444 223 OFFCURVE",
"446 184 OFFCURVE",
"449 150 CURVE SMOOTH",
"456 69 OFFCURVE",
"485 11 OFFCURVE",
"524 -7 CURVE SMOOTH",
"537 -13 OFFCURVE",
"552 -3 OFFCURVE",
"552 11 CURVE SMOOTH",
"552 20 OFFCURVE",
"546 27 OFFCURVE",
"539 30 CURVE SMOOTH"
);
}
);
width = 612;
},
{
layerId = "2E7D65B2-411D-4607-BF7C-7C0096008F1D";
paths = (
{
closed = 1;
nodes = (
"329 397 LINE",
"371 421 LINE",
"490 437 OFFCURVE",
"574 487 OFFCURVE",
"574 608 CURVE SMOOTH",
"574 722 OFFCURVE",
"481 812 OFFCURVE",
"327 812 CURVE SMOOTH",
"299 812 OFFCURVE",
"149 811 OFFCURVE",
"132 810 CURVE SMOOTH",
"101 808 OFFCURVE",
"80 787 OFFCURVE",
"80 756 CURVE SMOOTH",
"80 39 LINE SMOOTH",
"80 11 OFFCURVE",
"102 -11 OFFCURVE",
"130 -11 CURVE SMOOTH",
"158 -11 OFFCURVE",
"180 11 OFFCURVE",
"180 39 CURVE SMOOTH",
"180 711 LINE",
"195 712 OFFCURVE",
"313 712 OFFCURVE",
"327 712 CURVE SMOOTH",
"428 712 OFFCURVE",
"474 665 OFFCURVE",
"474 608 CURVE SMOOTH",
"474 526 OFFCURVE",
"428 487 OFFCURVE",
"329 487 CURVE SMOOTH",
"111 487 LINE",
"111 397 LINE"
);
},
{
closed = 1;
nodes = (
"557 97 OFFCURVE",
"552 126 OFFCURVE",
"549 157 CURVE SMOOTH",
"545 195 OFFCURVE",
"544 222 OFFCURVE",
"538 302 CURVE SMOOTH",
"530 413 OFFCURVE",
"430 438 OFFCURVE",
"299 443 CURVE",
"278 397 LINE",
"363 402 OFFCURVE",
"433 359 OFFCURVE",
"438 294 CURVE SMOOTH",
"441 254 OFFCURVE",
"448 159 OFFCURVE",
"449 147 CURVE SMOOTH",
"455 76 OFFCURVE",
"476 22 OFFCURVE",
"536 -11 CURVE SMOOTH",
"571 -30 OFFCURVE",
"612 -5 OFFCURVE",
"612 31 CURVE SMOOTH",
"612 52 OFFCURVE",
"591 68 OFFCURVE",
"579 78 CURVE SMOOTH"
);
}
);
width = 672;
},
{
associatedMasterId = "F0262224-B9C7-46EB-9294-168F9DBDA589";
layerId = "247ACDAB-EDAB-4122-BD51-2AC198AB46BF";
name = "Sep 30 19, 21:02";
paths = (
{
closed = 1;
nodes = (
"199 427 LINE SMOOTH",
"333 427 OFFCURVE",
"414 493 OFFCURVE",
"414 618 CURVE SMOOTH",
"414 738 OFFCURVE",
"331 802 OFFCURVE",
"197 802 CURVE SMOOTH",
"171 802 OFFCURVE",
"121 801 OFFCURVE",
"104 800 CURVE SMOOTH",
"88 799 OFFCURVE",
"80 791 OFFCURVE",
"80 776 CURVE SMOOTH",
"80 19 LINE SMOOTH",
"80 8 OFFCURVE",
"89 -1 OFFCURVE",
"100 -1 CURVE SMOOTH",
"111 -1 OFFCURVE",
"120 8 OFFCURVE",
"120 19 CURVE SMOOTH",
"120 760 LINE",
"131 761 OFFCURVE",
"172 762 OFFCURVE",
"197 762 CURVE SMOOTH",
"310 762 OFFCURVE",
"374 716 OFFCURVE",
"374 618 CURVE SMOOTH",
"374 515 OFFCURVE",
"311 467 OFFCURVE",
"199 467 CURVE SMOOTH",
"111 467 LINE",
"111 427 LINE"
);
},
{
closed = 1;
nodes = (
"413 41 OFFCURVE",
"395 86 OFFCURVE",
"389 154 CURVE SMOOTH",
"386 188 OFFCURVE",
"384 227 OFFCURVE",
"378 300 CURVE SMOOTH",
"369 404 OFFCURVE",
"286 450 OFFCURVE",
"204 459 CURVE",
"196 427 LINE",
"259 420 OFFCURVE",
"331 381 OFFCURVE",
"338 296 CURVE SMOOTH",
"344 223 OFFCURVE",
"346 184 OFFCURVE",
"349 150 CURVE SMOOTH",
"356 69 OFFCURVE",
"385 11 OFFCURVE",
"424 -7 CURVE SMOOTH",
"437 -13 OFFCURVE",
"452 -3 OFFCURVE",
"452 11 CURVE SMOOTH",
"452 20 OFFCURVE",
"446 27 OFFCURVE",
"439 30 CURVE SMOOTH"
);
}
);
width = 512;
}
);
leftMetricsKey = "=H";
unicode = 0052;
},
{
glyphname = S;
layers = (
{
layerId = "F0262224-B9C7-46EB-9294-168F9DBDA589";
paths = (
{
closed = 1;
nodes = (
"457 -9 OFFCURVE",
"547 78 OFFCURVE",
"547 194 CURVE SMOOTH",
"547 288 OFFCURVE",
"492 368 OFFCURVE",
"336 440 CURVE SMOOTH",
"202 502 OFFCURVE",
"148 552 OFFCURVE",
"148 623 CURVE SMOOTH",
"148 705 OFFCURVE",
"219 771 OFFCURVE",
"322 771 CURVE SMOOTH",
"407 771 OFFCURVE",
"466 742 OFFCURVE",
"503 682 CURVE SMOOTH",
"508 674 OFFCURVE",
"517 667 OFFCURVE",
"527 667 CURVE SMOOTH",
"539 667 OFFCURVE",
"549 685 OFFCURVE",
"539 699 CURVE SMOOTH",
"487 772 OFFCURVE",
"421 812 OFFCURVE",
"322 812 CURVE SMOOTH",
"202 812 OFFCURVE",
"108 729 OFFCURVE",
"108 623 CURVE SMOOTH",
"108 530 OFFCURVE",
"163 473 OFFCURVE",
"320 401 CURVE SMOOTH",
"448 342 OFFCURVE",
"507 264 OFFCURVE",
"507 194 CURVE SMOOTH",
"507 108 OFFCURVE",
"435 33 OFFCURVE",
"314 33 CURVE SMOOTH",
"227 33 OFFCURVE",
"176 65 OFFCURVE",
"128 133 CURVE SMOOTH",
"121 143 OFFCURVE",
"117 149 OFFCURVE",
"105 149 CURVE SMOOTH",
"96 149 OFFCURVE",
"88 139 OFFCURVE",
"88 126 CURVE SMOOTH",
"88 122 OFFCURVE",
"88 118 OFFCURVE",
"90 115 CURVE SMOOTH",
"140 40 OFFCURVE",
"224 -9 OFFCURVE",
"314 -9 CURVE SMOOTH"
);
}
);
width = 614;
},
{
layerId = "2E7D65B2-411D-4607-BF7C-7C0096008F1D";
paths = (
{
closed = 1;
nodes = (
"461 -19 OFFCURVE",
"569 67 OFFCURVE",
"569 204 CURVE SMOOTH",
"569 312 OFFCURVE",
"512 395 OFFCURVE",
"347 472 CURVE SMOOTH",
"220 531 OFFCURVE",
"186 558 OFFCURVE",
"186 613 CURVE SMOOTH",
"186 672 OFFCURVE",
"237 711 OFFCURVE",
"320 711 CURVE SMOOTH",
"395 711 OFFCURVE",
"439 687 OFFCURVE",
"470 646 CURVE SMOOTH",
"482 630 OFFCURVE",
"506 617 OFFCURVE",
"525 617 CURVE SMOOTH",
"564 617 OFFCURVE",
"579 664 OFFCURVE",
"561 696 CURVE SMOOTH",
"518 773 OFFCURVE",
"423 822 OFFCURVE",
"320 822 CURVE SMOOTH",
"184 822 OFFCURVE",
"76 736 OFFCURVE",
"76 613 CURVE SMOOTH",
"76 507 OFFCURVE",
"138 447 OFFCURVE",
"306 370 CURVE SMOOTH",
"423 316 OFFCURVE",
"459 260 OFFCURVE",
"459 204 CURVE SMOOTH",
"459 128 OFFCURVE",
"402 93 OFFCURVE",
"306 93 CURVE SMOOTH",
"246 93 OFFCURVE",
"181 126 OFFCURVE",
"155 170 CURVE SMOOTH",
"142 191 OFFCURVE",
"128 204 OFFCURVE",
"97 204 CURVE SMOOTH",
"62 204 OFFCURVE",
"50 174 OFFCURVE",
"50 146 CURVE SMOOTH",
"50 136 OFFCURVE",
"52 126 OFFCURVE",
"57 118 CURVE SMOOTH",
"111 31 OFFCURVE",
"209 -19 OFFCURVE",
"306 -19 CURVE SMOOTH"
);
}
);
width = 619;
}
);
unicode = 0053;
},
{
glyphname = T;
layers = (
{
layerId = "F0262224-B9C7-46EB-9294-168F9DBDA589";
paths = (
{
closed = 1;
nodes = (
"70 800 LINE SMOOTH",
"59 800 OFFCURVE",
"50 791 OFFCURVE",
"50 780 CURVE SMOOTH",
"50 769 OFFCURVE",
"59 760 OFFCURVE",
"70 760 CURVE SMOOTH",
"535 760 LINE SMOOTH",
"546 760 OFFCURVE",
"555 769 OFFCURVE",
"555 780 CURVE SMOOTH",
"555 791 OFFCURVE",
"546 800 OFFCURVE",
"535 800 CURVE SMOOTH"
);
},
{
closed = 1;
nodes = (
"323 782 LINE",
"283 782 LINE",
"283 28 LINE SMOOTH",
"283 17 OFFCURVE",
"292 8 OFFCURVE",
"303 8 CURVE SMOOTH",
"314 8 OFFCURVE",
"323 17 OFFCURVE",
"323 28 CURVE SMOOTH"
);
}
);
width = 605;
},
{
layerId = "2E7D65B2-411D-4607-BF7C-7C0096008F1D";
paths = (
{
closed = 1;
nodes = (
"100 800 LINE SMOOTH",
"72 800 OFFCURVE",
"50 778 OFFCURVE",
"50 750 CURVE SMOOTH",
"50 722 OFFCURVE",
"72 700 OFFCURVE",
"100 700 CURVE SMOOTH",
"645 700 LINE SMOOTH",
"673 700 OFFCURVE",
"695 722 OFFCURVE",
"695 750 CURVE SMOOTH",
"695 778 OFFCURVE",
"673 800 OFFCURVE",
"645 800 CURVE SMOOTH"
);
},
{
closed = 1;
nodes = (
"428 772 LINE",
"318 772 LINE",
"318 48 LINE SMOOTH",
"318 20 OFFCURVE",
"345 -2 OFFCURVE",
"373 -2 CURVE SMOOTH",
"401 -2 OFFCURVE",
"428 20 OFFCURVE",
"428 48 CURVE SMOOTH"
);
}
);
width = 745;
}
);
rightMetricsKey = "=|";
unicode = 0054;
},
{
glyphname = U;
layers = (
{
layerId = "F0262224-B9C7-46EB-9294-168F9DBDA589";
paths = (
{
closed = 1;
nodes = (
"575 272 LINE SMOOTH",
"575 129 OFFCURVE",
"492 22 OFFCURVE",
"347 22 CURVE SMOOTH",
"203 22 OFFCURVE",
"120 129 OFFCURVE",
"120 272 CURVE SMOOTH",
"120 785 LINE SMOOTH",
"120 796 OFFCURVE",
"111 805 OFFCURVE",
"100 805 CURVE SMOOTH",
"89 805 OFFCURVE",
"80 796 OFFCURVE",
"80 785 CURVE SMOOTH",
"80 272 LINE SMOOTH",
"80 107 OFFCURVE",
"181 -18 OFFCURVE",
"347 -18 CURVE SMOOTH",
"514 -18 OFFCURVE",
"615 107 OFFCURVE",
"615 272 CURVE SMOOTH",
"615 776 LINE SMOOTH",
"615 787 OFFCURVE",
"606 796 OFFCURVE",
"595 796 CURVE SMOOTH",
"584 796 OFFCURVE",
"575 787 OFFCURVE",
"575 776 CURVE SMOOTH"
);
}
);
width = 695;
},
{
layerId = "2E7D65B2-411D-4607-BF7C-7C0096008F1D";
paths = (
{
closed = 1;
nodes = (
"585 282 LINE SMOOTH",
"585 144 OFFCURVE",
"511 62 OFFCURVE",
"387 62 CURVE SMOOTH",
"263 62 OFFCURVE",
"190 144 OFFCURVE",
"190 282 CURVE SMOOTH",
"190 765 LINE SMOOTH",
"190 793 OFFCURVE",
"163 815 OFFCURVE",
"135 815 CURVE SMOOTH",
"107 815 OFFCURVE",
"80 793 OFFCURVE",
"80 765 CURVE SMOOTH",
"80 282 LINE SMOOTH",
"80 75 OFFCURVE",
"194 -48 OFFCURVE",
"387 -48 CURVE SMOOTH",
"581 -48 OFFCURVE",
"695 75 OFFCURVE",
"695 282 CURVE SMOOTH",
"695 756 LINE SMOOTH",
"695 784 OFFCURVE",
"668 806 OFFCURVE",
"640 806 CURVE SMOOTH",
"612 806 OFFCURVE",
"585 784 OFFCURVE",
"585 756 CURVE SMOOTH"
);
}
);
width = 775;
}
);
leftMetricsKey = "=H";
rightMetricsKey = "=|";
unicode = 0055;
},
{
glyphname = V;
layers = (
{
layerId = "F0262224-B9C7-46EB-9294-168F9DBDA589";
paths = (
{
closed = 1;
nodes = (
"594 545 OFFCURVE",
"506 340 OFFCURVE",
"402 100 CURVE",
"391 67 OFFCURVE",
"392 55 OFFCURVE",
"395 55 CURVE SMOOTH",
"398 55 OFFCURVE",
"398 69 OFFCURVE",
"387 100 CURVE",
"286 341 OFFCURVE",
"200 549 OFFCURVE",
"99 790 CURVE SMOOTH",
"96 798 OFFCURVE",
"89 803 OFFCURVE",
"80 803 CURVE SMOOTH",
"66 803 OFFCURVE",
"56 789 OFFCURVE",
"61 776 CURVE SMOOTH",
"380 9 LINE SMOOTH",
"389 -12 OFFCURVE",
"402 -13 OFFCURVE",
"411 8 CURVE SMOOTH",
"736 771 LINE SMOOTH",
"742 785 OFFCURVE",
"731 798 OFFCURVE",
"717 798 CURVE SMOOTH",
"708 798 OFFCURVE",
"701 792 OFFCURVE",
"698 785 CURVE SMOOTH"
);
}
);
width = 798;
},
{
layerId = "2E7D65B2-411D-4607-BF7C-7C0096008F1D";
paths = (
{
closed = 1;
nodes = (
"653 670 OFFCURVE",
"489 303 OFFCURVE",
"436 180 CURVE",
"404 95 OFFCURVE",
"383 45 OFFCURVE",
"426 45 CURVE SMOOTH",
"464 45 OFFCURVE",
"446 98 OFFCURVE",
"418 180 CURVE",
"374 286 OFFCURVE",
"210 664 OFFCURVE",
"163 781 CURVE SMOOTH",
"155 801 OFFCURVE",
"132 813 OFFCURVE",
"111 813 CURVE SMOOTH",
"76 813 OFFCURVE",
"49 778 OFFCURVE",
"64 745 CURVE SMOOTH",
"383 17 LINE SMOOTH",
"403 -29 OFFCURVE",
"450 -29 OFFCURVE",
"470 16 CURVE SMOOTH",
"795 739 LINE SMOOTH",
"810 773 OFFCURVE",
"783 808 OFFCURVE",
"748 808 CURVE SMOOTH",
"728 808 OFFCURVE",
"710 805 OFFCURVE",
"702 786 CURVE SMOOTH"
);
}
);
width = 859;
}
);
leftKerningGroup = V;
leftMetricsKey = "=A";
rightKerningGroup = V;
rightMetricsKey = "=|";
unicode = 0056;
},
{
glyphname = W;
layers = (
{
layerId = "F0262224-B9C7-46EB-9294-168F9DBDA589";
paths = (
{
closed = 1;
nodes = (
"565 551 LINE",
"353 71 LINE",
"348 51 OFFCURVE",
"345 44 OFFCURVE",
"348 44 CURVE SMOOTH",
"351 44 OFFCURVE",
"353 55 OFFCURVE",
"347 72 CURVE",
"99 791 LINE SMOOTH",
"96 799 OFFCURVE",
"89 806 OFFCURVE",
"80 806 CURVE SMOOTH",
"68 806 OFFCURVE",
"57 794 OFFCURVE",
"61 781 CURVE SMOOTH",
"324 9 LINE SMOOTH",
"328 -2 OFFCURVE",
"336 -9 OFFCURVE",
"347 -9 CURVE SMOOTH",
"358 -9 OFFCURVE",
"365 -2 OFFCURVE",
"370 8 CURVE SMOOTH",
"585 489 LINE"
);
},
{
closed = 1;
nodes = (
"469 794 OFFCURVE",
"460 783 OFFCURVE",
"460 772 CURVE SMOOTH",
"460 751 OFFCURVE",
"476 719 OFFCURVE",
"480 708 CURVE SMOOTH",
"762 12 LINE SMOOTH",
"766 1 OFFCURVE",
"774 -6 OFFCURVE",
"785 -6 CURVE SMOOTH",
"796 -6 OFFCURVE",
"805 0 OFFCURVE",
"808 11 CURVE SMOOTH",
"1044 791 LINE SMOOTH",
"1048 803 OFFCURVE",
"1038 816 OFFCURVE",
"1025 816 CURVE SMOOTH",
"1016 816 OFFCURVE",
"1009 810 OFFCURVE",
"1006 801 CURVE SMOOTH",
"788 75 LINE",
"783 59 OFFCURVE",
"783 49 OFFCURVE",
"786 49 CURVE SMOOTH",
"789 49 OFFCURVE",
"790 58 OFFCURVE",
"784 75 CURVE",
"503 776 LINE SMOOTH",
"499 787 OFFCURVE",
"491 794 OFFCURVE",
"480 794 CURVE SMOOTH"
);
}
);
width = 1105;
},
{
layerId = "2E7D65B2-411D-4607-BF7C-7C0096008F1D";
paths = (
{
closed = 1;
nodes = (
"565 597 LINE",
"378 181 LINE",
"365 145 OFFCURVE",
"357 109 OFFCURVE",
"369 109 CURVE SMOOTH",
"383 109 OFFCURVE",
"375 135 OFFCURVE",
"365 181 CURVE",
"163 782 LINE SMOOTH",
"156 803 OFFCURVE",
"138 820 OFFCURVE",
"115 820 CURVE SMOOTH",
"83 820 OFFCURVE",
"51 790 OFFCURVE",
"62 758 CURVE SMOOTH",
"304 31 LINE SMOOTH",
"312 7 OFFCURVE",
"336 -9 OFFCURVE",
"361 -9 CURVE SMOOTH",
"385 -9 OFFCURVE",
"403 7 OFFCURVE",
"413 30 CURVE SMOOTH",
"610 473 LINE"
);
},
{
closed = 1;
nodes = (
"491 815 OFFCURVE",
"467 794 OFFCURVE",
"467 770 CURVE SMOOTH",
"467 746 OFFCURVE",
"478 721 OFFCURVE",
"486 700 CURVE SMOOTH",
"738 24 LINE SMOOTH",
"747 0 OFFCURVE",
"770 -16 OFFCURVE",
"795 -16 CURVE SMOOTH",
"820 -16 OFFCURVE",
"845 -1 OFFCURVE",
"852 23 CURVE SMOOTH",
"1063 753 LINE SMOOTH",
"1072 785 OFFCURVE",
"1042 816 OFFCURVE",
"1010 816 CURVE SMOOTH",
"987 816 OFFCURVE",
"968 800 OFFCURVE",
"962 778 CURVE SMOOTH",
"794 185 LINE",
"786 132 OFFCURVE",
"780 109 OFFCURVE",
"791 109 CURVE SMOOTH",
"805 109 OFFCURVE",
"799 141 OFFCURVE",
"785 185 CURVE",
"571 782 LINE SMOOTH",
"562 806 OFFCURVE",
"545 815 OFFCURVE",
"520 815 CURVE SMOOTH"
);
}
);
width = 1125;
}
);
leftKerningGroup = V;
leftMetricsKey = "=A";
rightKerningGroup = V;
rightMetricsKey = "=A";
unicode = 0057;
},
{
glyphname = X;
layers = (
{
layerId = "F0262224-B9C7-46EB-9294-168F9DBDA589";
paths = (
{
closed = 1;
nodes = (
"111 798 LINE SMOOTH",
"108 803 OFFCURVE",
"101 806 OFFCURVE",
"95 806 CURVE SMOOTH",
"84 806 OFFCURVE",
"75 797 OFFCURVE",
"75 786 CURVE SMOOTH",
"75 781 OFFCURVE",
"77 777 OFFCURVE",
"79 774 CURVE SMOOTH",
"655 2 LINE SMOOTH",
"658 -3 OFFCURVE",
"665 -6 OFFCURVE",
"671 -6 CURVE SMOOTH",
"682 -6 OFFCURVE",
"691 3 OFFCURVE",
"691 14 CURVE SMOOTH",
"691 19 OFFCURVE",
"689 23 OFFCURVE",
"687 26 CURVE SMOOTH"
);
},
{
closed = 1;
nodes = (
"662 774 LINE SMOOTH",
"664 777 OFFCURVE",
"666 781 OFFCURVE",
"666 786 CURVE SMOOTH",
"666 797 OFFCURVE",
"657 806 OFFCURVE",
"646 806 CURVE SMOOTH",
"639 806 OFFCURVE",
"632 803 OFFCURVE",
"629 798 CURVE SMOOTH",
"64 26 LINE SMOOTH",
"62 23 OFFCURVE",
"60 19 OFFCURVE",
"60 14 CURVE SMOOTH",
"60 3 OFFCURVE",
"69 -6 OFFCURVE",
"80 -6 CURVE SMOOTH",
"87 -6 OFFCURVE",
"94 -2 OFFCURVE",
"97 3 CURVE SMOOTH"
);
}
);
width = 751;
},
{
layerId = "2E7D65B2-411D-4607-BF7C-7C0096008F1D";
paths = (
{
closed = 1;
nodes = (
"166 795 LINE SMOOTH",
"156 808 OFFCURVE",
"141 816 OFFCURVE",
"125 816 CURVE SMOOTH",
"97 816 OFFCURVE",
"75 794 OFFCURVE",
"75 766 CURVE SMOOTH",
"75 756 OFFCURVE",
"79 745 OFFCURVE",
"85 737 CURVE SMOOTH",
"660 5 LINE SMOOTH",
"670 -8 OFFCURVE",
"685 -16 OFFCURVE",
"701 -16 CURVE SMOOTH",
"729 -16 OFFCURVE",
"751 6 OFFCURVE",
"751 34 CURVE SMOOTH",
"751 44 OFFCURVE",
"747 55 OFFCURVE",
"741 63 CURVE SMOOTH"
);
},
{
closed = 1;
nodes = (
"716 737 LINE SMOOTH",
"722 745 OFFCURVE",
"726 756 OFFCURVE",
"726 766 CURVE SMOOTH",
"726 794 OFFCURVE",
"704 816 OFFCURVE",
"676 816 CURVE SMOOTH",
"660 816 OFFCURVE",
"644 808 OFFCURVE",
"634 795 CURVE SMOOTH",
"69 63 LINE SMOOTH",
"63 55 OFFCURVE",
"60 44 OFFCURVE",
"60 34 CURVE SMOOTH",
"60 6 OFFCURVE",
"82 -16 OFFCURVE",
"110 -16 CURVE SMOOTH",
"126 -16 OFFCURVE",
"142 -7 OFFCURVE",
"152 6 CURVE SMOOTH"
);
}
);
width = 811;
}
);
leftMetricsKey = "=A";
rightMetricsKey = "=|";
unicode = 0058;
},
{
glyphname = Y;
layers = (
{
layerId = "F0262224-B9C7-46EB-9294-168F9DBDA589";
paths = (
{
closed = 1;
nodes = (
"512 679 OFFCURVE",
"398 479 OFFCURVE",
"338 383 CURVE",
"330 362 OFFCURVE",
"330 354 OFFCURVE",
"333 354 CURVE SMOOTH",
"336 354 OFFCURVE",
"338 363 OFFCURVE",
"331 383 CURVE",
"276 483 OFFCURVE",
"186 641 OFFCURVE",
"102 790 CURVE SMOOTH",
"97 798 OFFCURVE",
"87 803 OFFCURVE",
"78 803 CURVE SMOOTH",
"64 803 OFFCURVE",
"56 783 OFFCURVE",
"63 770 CURVE SMOOTH",
"318 329 LINE",
"349 328 LINE",
"609 764 LINE SMOOTH",
"617 778 OFFCURVE",
"609 798 OFFCURVE",
"595 798 CURVE SMOOTH",
"586 798 OFFCURVE",
"575 793 OFFCURVE",
"571 785 CURVE SMOOTH"
);
},
{
closed = 1;
nodes = (
"354 359 LINE",
"314 359 LINE",
"314 21 LINE SMOOTH",
"314 7 OFFCURVE",
"323 -3 OFFCURVE",
"334 -3 CURVE SMOOTH",
"345 -3 OFFCURVE",
"354 7 OFFCURVE",
"354 21 CURVE SMOOTH"
);
}
);
width = 672;
},
{
layerId = "2E7D65B2-411D-4607-BF7C-7C0096008F1D";
paths = (
{
closed = 1;
nodes = (
"515 674 OFFCURVE",
"438 550 OFFCURVE",
"378 456 CURVE",
"356 409 OFFCURVE",
"330 383 OFFCURVE",
"370 383 CURVE SMOOTH",
"421 383 OFFCURVE",
"382 413 OFFCURVE",
"359 458 CURVE",
"295 558 OFFCURVE",
"163 787 OFFCURVE",
"163 787 CURVE SMOOTH",
"153 805 OFFCURVE",
"131 816 OFFCURVE",
"111 816 CURVE SMOOTH",
"71 816 OFFCURVE",
"47 768 OFFCURVE",
"67 734 CURVE SMOOTH",
"332 297 LINE",
"400 294 LINE",
"670 727 LINE SMOOTH",
"692 763 OFFCURVE",
"668 811 OFFCURVE",
"628 811 CURVE SMOOTH",
"607 811 OFFCURVE",
"585 799 OFFCURVE",
"575 781 CURVE SMOOTH"
);
},
{
closed = 1;
nodes = (
"420 392 LINE",
"314 392 LINE",
"314 41 LINE SMOOTH",
"314 10 OFFCURVE",
"337 -16 OFFCURVE",
"367 -16 CURVE SMOOTH",
"397 -16 OFFCURVE",
"420 10 OFFCURVE",
"420 41 CURVE SMOOTH"
);
}
);
width = 738;
}
);
leftKerningGroup = Y;
leftMetricsKey = "=A";
rightKerningGroup = Y;
rightMetricsKey = "=|";
unicode = 0059;
},
{
glyphname = Z;
layers = (
{
layerId = "F0262224-B9C7-46EB-9294-168F9DBDA589";
paths = (
{
closed = 1;
nodes = (
"106 40 LINE",
"104 35 OFFCURVE",
"99 34 OFFCURVE",
"99 25 CURVE SMOOTH",
"99 20 OFFCURVE",
"107 25 OFFCURVE",
"139 56 CURVE",
"709 771 LINE SMOOTH",
"722 787 OFFCURVE",
"714 800 OFFCURVE",
"694 800 CURVE SMOOTH",
"102 800 LINE SMOOTH",
"91 800 OFFCURVE",
"82 791 OFFCURVE",
"82 780 CURVE SMOOTH",
"82 769 OFFCURVE",
"91 760 OFFCURVE",
"102 760 CURVE SMOOTH",
"669 760 LINE",
"670 764 OFFCURVE",
"672 767 OFFCURVE",
"672 771 CURVE SMOOTH",
"672 776 OFFCURVE",
"655 763 OFFCURVE",
"641 750 CURVE",
"66 29 LINE SMOOTH",
"53 13 OFFCURVE",
"61 0 OFFCURVE",
"81 0 CURVE SMOOTH",
"700 0 LINE SMOOTH",
"711 0 OFFCURVE",
"720 9 OFFCURVE",
"720 20 CURVE SMOOTH",
"720 31 OFFCURVE",
"711 40 OFFCURVE",
"700 40 CURVE SMOOTH"
);
}
);
width = 780;
},
{
layerId = "2E7D65B2-411D-4607-BF7C-7C0096008F1D";
paths = (
{
closed = 1;
nodes = (
"120 100 LINE",
"108 88 OFFCURVE",
"100 69 OFFCURVE",
"100 55 CURVE SMOOTH",
"100 35 OFFCURVE",
"191 65 OFFCURVE",
"247 129 CURVE",
"763 722 LINE SMOOTH",
"794 758 OFFCURVE",
"771 800 OFFCURVE",
"725 800 CURVE SMOOTH",
"133 800 LINE SMOOTH",
"105 800 OFFCURVE",
"83 778 OFFCURVE",
"83 750 CURVE SMOOTH",
"83 722 OFFCURVE",
"105 700 OFFCURVE",
"133 700 CURVE SMOOTH",
"700 700 LINE",
"711 700 OFFCURVE",
"733 725 OFFCURVE",
"733 741 CURVE SMOOTH",
"733 770 OFFCURVE",
"634 716 OFFCURVE",
"600 683 CURVE",
"74 78 LINE SMOOTH",
"43 43 OFFCURVE",
"66 0 OFFCURVE",
"112 0 CURVE SMOOTH",
"731 0 LINE SMOOTH",
"759 0 OFFCURVE",
"781 22 OFFCURVE",
"781 50 CURVE SMOOTH",
"781 78 OFFCURVE",
"759 100 OFFCURVE",
"731 100 CURVE SMOOTH"
);
}
);
width = 841;
}
);
leftMetricsKey = "=A";
rightMetricsKey = "=|";
unicode = 005A;
},
{
glyphname = W.001;
layers = (
{
layerId = "F0262224-B9C7-46EB-9294-168F9DBDA589";
paths = (
{
closed = 1;
nodes = (
"68 806 OFFCURVE",
"58 794 OFFCURVE",
"61 781 CURVE SMOOTH",
"254 19 LINE SMOOTH",
"257 8 OFFCURVE",
"266 1 OFFCURVE",
"277 1 CURVE SMOOTH",
"288 1 OFFCURVE",
"297 8 OFFCURVE",
"300 18 CURVE SMOOTH",
"498 711 LINE SMOOTH",
"502 726 OFFCURVE",
"503 736 OFFCURVE",
"500 736 CURVE SMOOTH",
"497 737 OFFCURVE",
"497 725 OFFCURVE",
"501 708 CURVE SMOOTH",
"677 12 LINE SMOOTH",
"680 1 OFFCURVE",
"689 -6 OFFCURVE",
"700 -6 CURVE SMOOTH",
"711 -6 OFFCURVE",
"720 0 OFFCURVE",
"723 11 CURVE SMOOTH",
"934 791 LINE SMOOTH",
"937 803 OFFCURVE",
"928 816 OFFCURVE",
"915 816 CURVE SMOOTH",
"906 816 OFFCURVE",
"898 810 OFFCURVE",
"896 801 CURVE SMOOTH",
"703 85 LINE SMOOTH",
"699 69 OFFCURVE",
"698 59 OFFCURVE",
"701 59 CURVE SMOOTH",
"704 59 OFFCURVE",
"703 68 OFFCURVE",
"699 85 CURVE SMOOTH",
"523 782 LINE SMOOTH",
"520 793 OFFCURVE",
"511 800 OFFCURVE",
"500 800 CURVE SMOOTH",
"489 800 OFFCURVE",
"480 793 OFFCURVE",
"477 783 CURVE SMOOTH",
"279 90 LINE SMOOTH",
"275 75 OFFCURVE",
"275 64 OFFCURVE",
"278 64 CURVE SMOOTH",
"281 64 OFFCURVE",
"280 73 OFFCURVE",
"276 90 CURVE SMOOTH",
"99 791 LINE SMOOTH",
"97 799 OFFCURVE",
"89 806 OFFCURVE",
"80 806 CURVE SMOOTH"
);
}
);
width = 995;
},
{
layerId = "2E7D65B2-411D-4607-BF7C-7C0096008F1D";
paths = (
{
closed = 1;
nodes = (
"78 806 OFFCURVE",
"54 776 OFFCURVE",
"62 744 CURVE SMOOTH",
"245 31 LINE SMOOTH",
"251 7 OFFCURVE",
"272 -9 OFFCURVE",
"297 -9 CURVE SMOOTH",
"321 -9 OFFCURVE",
"342 7 OFFCURVE",
"349 30 CURVE SMOOTH",
"517 597 LINE",
"528 665 OFFCURVE",
"559 736 OFFCURVE",
"530 736 CURVE SMOOTH",
"494 736 OFFCURVE",
"520 663 OFFCURVE",
"533 597 CURVE",
"688 24 LINE SMOOTH",
"695 0 OFFCURVE",
"715 -16 OFFCURVE",
"740 -16 CURVE SMOOTH",
"765 -16 OFFCURVE",
"785 -1 OFFCURVE",
"792 23 CURVE SMOOTH",
"993 753 LINE SMOOTH",
"1002 785 OFFCURVE",
"977 816 OFFCURVE",
"945 816 CURVE SMOOTH",
"922 816 OFFCURVE",
"903 800 OFFCURVE",
"897 778 CURVE SMOOTH",
"748 200 LINE",
"744 163 OFFCURVE",
"706 49 OFFCURVE",
"741 49 CURVE SMOOTH",
"775 49 OFFCURVE",
"744 163 OFFCURVE",
"740 200 CURVE",
"582 750 LINE SMOOTH",
"575 774 OFFCURVE",
"555 790 OFFCURVE",
"530 790 CURVE SMOOTH",
"506 790 OFFCURVE",
"485 774 OFFCURVE",
"478 751 CURVE SMOOTH",
"302 200 LINE",
"298 163 OFFCURVE",
"265 54 OFFCURVE",
"298 54 CURVE SMOOTH",
"331 54 OFFCURVE",
"295 169 OFFCURVE",
"289 200 CURVE",
"158 768 LINE SMOOTH",
"153 789 OFFCURVE",
"133 806 OFFCURVE",
"110 806 CURVE SMOOTH"
);
}
);
width = 1055;
}
);
leftKerningGroup = V;
leftMetricsKey = "=A";
rightKerningGroup = V;
rightMetricsKey = "=A";
},
{
glyphname = a;
layers = (
{
layerId = "F0262224-B9C7-46EB-9294-168F9DBDA589";
paths = (
{
closed = 1;
nodes = (
"486 -15 OFFCURVE",
"495 -6 OFFCURVE",
"495 4 CURVE SMOOTH",
"495 16 OFFCURVE",
"484 25 OFFCURVE",
"473 24 CURVE SMOOTH",
"454 22 OFFCURVE",
"431 39 OFFCURVE",
"426 65 CURVE SMOOTH",
"416 115 OFFCURVE",
"417 209 OFFCURVE",
"430 362 CURVE SMOOTH",
"437 446 OFFCURVE",
"374 513 OFFCURVE",
"268 513 CURVE SMOOTH",
"196 513 OFFCURVE",
"89 466 OFFCURVE",
"89 411 CURVE SMOOTH",
"89 400 OFFCURVE",
"99 391 OFFCURVE",
"110 391 CURVE SMOOTH",
"117 391 OFFCURVE",
"124 396 OFFCURVE",
"127 402 CURVE SMOOTH",
"150 449 OFFCURVE",
"201 473 OFFCURVE",
"268 473 CURVE SMOOTH",
"360 473 OFFCURVE",
"395 426 OFFCURVE",
"390 366 CURVE SMOOTH",
"379 239 OFFCURVE",
"375 113 OFFCURVE",
"386 57 CURVE SMOOTH",
"395 10 OFFCURVE",
"438 -20 OFFCURVE",
"477 -16 CURVE SMOOTH"
);
},
{
closed = 1;
nodes = (
"240 -20 OFFCURVE",
"290 11 OFFCURVE",
"331 67 CURVE SMOOTH",
"333 70 OFFCURVE",
"335 75 OFFCURVE",
"335 79 CURVE SMOOTH",
"335 90 OFFCURVE",
"326 99 OFFCURVE",
"315 99 CURVE SMOOTH",
"308 99 OFFCURVE",
"301 96 OFFCURVE",
"298 91 CURVE SMOOTH",
"265 44 OFFCURVE",
"227 20 OFFCURVE",
"189 20 CURVE SMOOTH",
"137 20 OFFCURVE",
"100 52 OFFCURVE",
"100 99 CURVE SMOOTH",
"100 166 OFFCURVE",
"176 198 OFFCURVE",
"268 227 CURVE SMOOTH",
"321 244 OFFCURVE",
"395 275 OFFCURVE",
"419 320 CURVE",
"390 366 LINE",
"390 309 OFFCURVE",
"325 289 OFFCURVE",
"255 263 CURVE SMOOTH",
"166 230 OFFCURVE",
"60 191 OFFCURVE",
"60 99 CURVE SMOOTH",
"60 30 OFFCURVE",
"115 -20 OFFCURVE",
"189 -20 CURVE SMOOTH"
);
}
);
width = 525;
},
{
layerId = "2E7D65B2-411D-4607-BF7C-7C0096008F1D";
paths = (
{
closed = 1;
nodes = (
"514 -16 OFFCURVE",
"545 5 OFFCURVE",
"545 34 CURVE SMOOTH",
"545 63 OFFCURVE",
"525 72 OFFCURVE",
"500 79 CURVE SMOOTH",
"480 85 OFFCURVE",
"470 100 OFFCURVE",
"470 128 CURVE SMOOTH",
"470 161 OFFCURVE",
"468 201 OFFCURVE",
"475 354 CURVE SMOOTH",
"480 464 OFFCURVE",
"412 518 OFFCURVE",
"288 518 CURVE SMOOTH",
"192 518 OFFCURVE",
"79 461 OFFCURVE",
"79 386 CURVE SMOOTH",
"79 358 OFFCURVE",
"102 336 OFFCURVE",
"130 336 CURVE SMOOTH",
"148 336 OFFCURVE",
"166 347 OFFCURVE",
"174 364 CURVE SMOOTH",
"191 399 OFFCURVE",
"230 424 OFFCURVE",
"288 424 CURVE SMOOTH",
"333 424 OFFCURVE",
"384 406 OFFCURVE",
"380 363 CURVE SMOOTH",
"368 238 OFFCURVE",
"367 140 OFFCURVE",
"376 72 CURVE SMOOTH",
"383 17 OFFCURVE",
"431 -16 OFFCURVE",
"481 -16 CURVE SMOOTH"
);
},
{
closed = 1;
nodes = (
"239 -16 OFFCURVE",
"298 1 OFFCURVE",
"326 33 CURVE SMOOTH",
"333 41 OFFCURVE",
"342 59 OFFCURVE",
"342 72 CURVE SMOOTH",
"342 100 OFFCURVE",
"320 118 OFFCURVE",
"292 118 CURVE SMOOTH",
"276 118 OFFCURVE",
"262 105 OFFCURVE",
"250 97 CURVE SMOOTH",
"230 84 OFFCURVE",
"219 80 OFFCURVE",
"194 80 CURVE SMOOTH",
"162 80 OFFCURVE",
"145 99 OFFCURVE",
"145 118 CURVE SMOOTH",
"145 151 OFFCURVE",
"178 175 OFFCURVE",
"255 202 CURVE SMOOTH",
"354 237 OFFCURVE",
"409 277 OFFCURVE",
"419 326 CURVE",
"380 372 LINE",
"380 333 OFFCURVE",
"320 306 OFFCURVE",
"245 283 CURVE SMOOTH",
"133 249 OFFCURVE",
"50 193 OFFCURVE",
"50 102 CURVE SMOOTH",
"50 27 OFFCURVE",
"111 -16 OFFCURVE",
"194 -16 CURVE SMOOTH"
);
}
);
width = 585;
}
);
leftKerningGroup = o;
leftMetricsKey = "=h";
rightKerningGroup = o;
rightMetricsKey = "=h-10";
unicode = 0061;
},
{
glyphname = ae;
layers = (
{
layerId = "F0262224-B9C7-46EB-9294-168F9DBDA589";
paths = (
{
closed = 1;
nodes = (
"386 334 OFFCURVE",
"422 324 OFFCURVE",
"430 362 CURVE",
"437 446 OFFCURVE",
"374 513 OFFCURVE",
"268 513 CURVE SMOOTH",
"196 513 OFFCURVE",
"89 466 OFFCURVE",
"89 411 CURVE SMOOTH",
"89 400 OFFCURVE",
"99 391 OFFCURVE",
"110 391 CURVE SMOOTH",
"117 391 OFFCURVE",
"124 396 OFFCURVE",
"127 402 CURVE SMOOTH",
"150 449 OFFCURVE",
"201 473 OFFCURVE",
"268 473 CURVE SMOOTH",
"360 473 OFFCURVE",
"395 426 OFFCURVE",
"390 366 CURVE"
);
},
{
closed = 1;
nodes = (
"240 -20 OFFCURVE",
"290 11 OFFCURVE",
"331 67 CURVE SMOOTH",
"333 70 OFFCURVE",
"335 75 OFFCURVE",
"335 79 CURVE SMOOTH",
"335 90 OFFCURVE",
"326 99 OFFCURVE",
"315 99 CURVE SMOOTH",
"308 99 OFFCURVE",
"301 96 OFFCURVE",
"298 91 CURVE SMOOTH",
"265 44 OFFCURVE",
"227 20 OFFCURVE",
"189 20 CURVE SMOOTH",
"137 20 OFFCURVE",
"100 52 OFFCURVE",
"100 99 CURVE SMOOTH",
"100 166 OFFCURVE",
"176 198 OFFCURVE",
"268 227 CURVE SMOOTH",
"321 244 OFFCURVE",
"395 275 OFFCURVE",
"419 320 CURVE",
"390 366 LINE",
"390 309 OFFCURVE",
"325 289 OFFCURVE",
"255 263 CURVE SMOOTH",
"166 230 OFFCURVE",
"60 191 OFFCURVE",
"60 99 CURVE SMOOTH",
"60 30 OFFCURVE",
"115 -20 OFFCURVE",
"189 -20 CURVE SMOOTH"
);
},
{
closed = 1;
nodes = (
"657 -19 OFFCURVE",
"739 11 OFFCURVE",
"771 54 CURVE SMOOTH",
"774 58 OFFCURVE",
"777 64 OFFCURVE",
"777 68 CURVE SMOOTH",
"777 79 OFFCURVE",
"768 88 OFFCURVE",
"757 88 CURVE SMOOTH",
"751 88 OFFCURVE",
"744 85 OFFCURVE",
"742 82 CURVE SMOOTH",
"718 47 OFFCURVE",
"650 21 OFFCURVE",
"582 21 CURVE SMOOTH",
"487 21 OFFCURVE",
"416 113 OFFCURVE",
"416 236 CURVE SMOOTH",
"416 370 OFFCURVE",
"492 470 OFFCURVE",
"593 470 CURVE SMOOTH",
"664 470 OFFCURVE",
"718 425 OFFCURVE",
"718 365 CURVE SMOOTH",
"718 318 OFFCURVE",
"664 282 OFFCURVE",
"593 282 CURVE SMOOTH",
"524 282 OFFCURVE",
"453 316 OFFCURVE",
"426 361 CURVE",
"409 323 LINE",
"430 277 OFFCURVE",
"509 242 OFFCURVE",
"593 242 CURVE SMOOTH",
"687 242 OFFCURVE",
"758 295 OFFCURVE",
"758 365 CURVE SMOOTH",
"758 448 OFFCURVE",
"687 510 OFFCURVE",
"593 510 CURVE SMOOTH",
"448 510 OFFCURVE",
"373 397 OFFCURVE",
"376 240 CURVE SMOOTH",
"379 95 OFFCURVE",
"443 -19 OFFCURVE",
"582 -19 CURVE SMOOTH"
);
}
);
width = 827;
},
{
layerId = "2E7D65B2-411D-4607-BF7C-7C0096008F1D";
paths = (
{
closed = 1;
nodes = (
"380 323 OFFCURVE",
"457 306 OFFCURVE",
"475 354 CURVE",
"480 464 OFFCURVE",
"412 518 OFFCURVE",
"288 518 CURVE SMOOTH",
"192 518 OFFCURVE",
"79 461 OFFCURVE",
"79 386 CURVE SMOOTH",
"79 358 OFFCURVE",
"102 336 OFFCURVE",
"130 336 CURVE SMOOTH",
"148 336 OFFCURVE",
"166 347 OFFCURVE",
"174 364 CURVE SMOOTH",
"191 399 OFFCURVE",
"230 424 OFFCURVE",
"288 424 CURVE SMOOTH",
"333 424 OFFCURVE",
"384 406 OFFCURVE",
"380 363 CURVE"
);
},
{
closed = 1;
nodes = (
"239 -16 OFFCURVE",
"298 1 OFFCURVE",
"326 33 CURVE SMOOTH",
"333 41 OFFCURVE",
"342 59 OFFCURVE",
"342 72 CURVE SMOOTH",
"342 100 OFFCURVE",
"320 118 OFFCURVE",
"292 118 CURVE SMOOTH",
"276 118 OFFCURVE",
"262 105 OFFCURVE",
"250 97 CURVE SMOOTH",
"230 84 OFFCURVE",
"219 80 OFFCURVE",
"194 80 CURVE SMOOTH",
"162 80 OFFCURVE",
"145 99 OFFCURVE",
"145 118 CURVE SMOOTH",
"145 151 OFFCURVE",
"178 175 OFFCURVE",
"255 202 CURVE SMOOTH",
"354 237 OFFCURVE",
"409 277 OFFCURVE",
"419 326 CURVE",
"380 372 LINE",
"380 333 OFFCURVE",
"320 306 OFFCURVE",
"245 283 CURVE SMOOTH",
"133 249 OFFCURVE",
"50 193 OFFCURVE",
"50 102 CURVE SMOOTH",
"50 27 OFFCURVE",
"111 -16 OFFCURVE",
"194 -16 CURVE SMOOTH"
);
},
{
closed = 1;
nodes = (
"673 -19 OFFCURVE",
"736 11 OFFCURVE",
"783 61 CURVE SMOOTH",
"794 73 OFFCURVE",
"795 88 OFFCURVE",
"795 100 CURVE SMOOTH",
"795 124 OFFCURVE",
"773 142 OFFCURVE",
"745 142 CURVE SMOOTH",
"732 142 OFFCURVE",
"718 134 OFFCURVE",
"706 124 CURVE SMOOTH",
"674 97 OFFCURVE",
"640 81 OFFCURVE",
"614 81 CURVE SMOOTH",
"513 81 OFFCURVE",
"478 137 OFFCURVE",
"478 231 CURVE SMOOTH",
"478 339 OFFCURVE",
"533 420 OFFCURVE",
"607 420 CURVE SMOOTH",
"654 420 OFFCURVE",
"690 393 OFFCURVE",
"690 356 CURVE SMOOTH",
"690 325 OFFCURVE",
"657 302 OFFCURVE",
"612 302 CURVE SMOOTH",
"567 302 OFFCURVE",
"509 324 OFFCURVE",
"478 353 CURVE",
"424 311 LINE",
"454 256 OFFCURVE",
"488 209 OFFCURVE",
"612 209 CURVE SMOOTH",
"714 209 OFFCURVE",
"790 272 OFFCURVE",
"790 356 CURVE SMOOTH",
"790 450 OFFCURVE",
"712 520 OFFCURVE",
"607 520 CURVE SMOOTH",
"470 520 OFFCURVE",
"378 402 OFFCURVE",
"378 235 CURVE SMOOTH",
"378 83 OFFCURVE",
"459 -19 OFFCURVE",
"614 -19 CURVE SMOOTH"
);
}
);
width = 835;
}
);
leftMetricsKey = "=a";
rightMetricsKey = "=e";
unicode = 00E6;
},
{
glyphname = b;
layers = (
{
hints = (
{
origin = "{2, 5}";
target = "{2, 6}";
type = Cap;
name = _cap.top;
}
);
layerId = "F0262224-B9C7-46EB-9294-168F9DBDA589";
paths = (
{
closed = 1;
nodes = (
"464 -17 OFFCURVE",
"581 98 OFFCURVE",
"581 252 CURVE SMOOTH",
"581 405 OFFCURVE",
"464 510 OFFCURVE",
"334 510 CURVE SMOOTH",
"204 510 OFFCURVE",
"106 405 OFFCURVE",
"106 252 CURVE SMOOTH",
"106 98 OFFCURVE",
"173 -17 OFFCURVE",
"334 -17 CURVE SMOOTH"
);
},
{
closed = 1;
nodes = (
"227 23 OFFCURVE",
"134 121 OFFCURVE",
"134 252 CURVE SMOOTH",
"134 382 OFFCURVE",
"227 470 OFFCURVE",
"334 470 CURVE SMOOTH",
"441 470 OFFCURVE",
"541 382 OFFCURVE",
"541 252 CURVE SMOOTH",
"541 121 OFFCURVE",
"441 23 OFFCURVE",
"334 23 CURVE SMOOTH"
);
},
{
closed = 1;
nodes = (
"208 15 OFFCURVE",
"127 138 OFFCURVE",
"127 210 CURVE SMOOTH",
"127 430 OFFCURVE",
"133 660 OFFCURVE",
"136 880 CURVE",
"96 880 LINE",
"93 621 OFFCURVE",
"89 428 OFFCURVE",
"87 248 CURVE SMOOTH",
"86 157 OFFCURVE",
"133 74 OFFCURVE",
"184 34 CURVE SMOOTH"
);
}
);
width = 631;
},
{
hints = (
{
origin = "{2, 5}";
target = "{2, 6}";
type = Cap;
name = _cap.top;
}
);
layerId = "2E7D65B2-411D-4607-BF7C-7C0096008F1D";
paths = (
{
closed = 1;
nodes = (
"506 -17 OFFCURVE",
"615 98 OFFCURVE",
"615 252 CURVE SMOOTH",
"615 399 OFFCURVE",
"506 520 OFFCURVE",
"348 520 CURVE SMOOTH",
"201 520 OFFCURVE",
"100 399 OFFCURVE",
"100 252 CURVE SMOOTH",
"100 98 OFFCURVE",
"190 -17 OFFCURVE",
"348 -17 CURVE SMOOTH"
);
},
{
closed = 1;
nodes = (
"252 83 OFFCURVE",
"190 155 OFFCURVE",
"190 252 CURVE SMOOTH",
"190 342 OFFCURVE",
"252 420 OFFCURVE",
"348 420 CURVE SMOOTH",
"449 420 OFFCURVE",
"515 342 OFFCURVE",
"515 252 CURVE SMOOTH",
"515 155 OFFCURVE",
"449 83 OFFCURVE",
"348 83 CURVE SMOOTH"
);
},
{
closed = 1;
nodes = (
"283 -31 OFFCURVE",
"181 84 OFFCURVE",
"181 199 CURVE SMOOTH",
"181 429 OFFCURVE",
"183 648 OFFCURVE",
"186 879 CURVE",
"86 879 LINE",
"85 672 OFFCURVE",
"83 464 OFFCURVE",
"83 257 CURVE SMOOTH",
"83 160 OFFCURVE",
"118 99 OFFCURVE",
"188 44 CURVE SMOOTH"
);
}
);
width = 655;
}
);
leftMetricsKey = "=h-20";
rightKerningGroup = o;
rightMetricsKey = "=o";
unicode = 0062;
},
{
glyphname = c;
layers = (
{
layerId = "F0262224-B9C7-46EB-9294-168F9DBDA589";
paths = (
{
closed = 1;
nodes = (
"374 -19 OFFCURVE",
"453 12 OFFCURVE",
"485 54 CURVE SMOOTH",
"488 59 OFFCURVE",
"491 65 OFFCURVE",
"491 68 CURVE SMOOTH",
"491 79 OFFCURVE",
"482 88 OFFCURVE",
"471 88 CURVE SMOOTH",
"465 88 OFFCURVE",
"458 85 OFFCURVE",
"456 82 CURVE SMOOTH",
"431 47 OFFCURVE",
"364 21 OFFCURVE",
"292 21 CURVE SMOOTH",
"180 21 OFFCURVE",
"90 111 OFFCURVE",
"90 231 CURVE SMOOTH",
"90 368 OFFCURVE",
"179 470 OFFCURVE",
"290 470 CURVE SMOOTH",
"370 470 OFFCURVE",
"428 428 OFFCURVE",
"432 371 CURVE SMOOTH",
"436 331 OFFCURVE",
"475 333 OFFCURVE",
"472 371 CURVE SMOOTH",
"465 450 OFFCURVE",
"391 510 OFFCURVE",
"290 510 CURVE SMOOTH",
"153 510 OFFCURVE",
"47 392 OFFCURVE",
"50 235 CURVE SMOOTH",
"52 90 OFFCURVE",
"159 -19 OFFCURVE",
"292 -19 CURVE SMOOTH"
);
}
);
width = 541;
},
{
layerId = "2E7D65B2-411D-4607-BF7C-7C0096008F1D";
paths = (
{
closed = 1;
nodes = (
"379 -19 OFFCURVE",
"464 16 OFFCURVE",
"502 65 CURVE SMOOTH",
"509 74 OFFCURVE",
"514 88 OFFCURVE",
"514 98 CURVE SMOOTH",
"514 127 OFFCURVE",
"493 148 OFFCURVE",
"464 148 CURVE SMOOTH",
"449 148 OFFCURVE",
"434 139 OFFCURVE",
"425 130 CURVE SMOOTH",
"397 102 OFFCURVE",
"352 81 OFFCURVE",
"296 81 CURVE SMOOTH",
"207 81 OFFCURVE",
"140 154 OFFCURVE",
"140 240 CURVE SMOOTH",
"140 348 OFFCURVE",
"206 420 OFFCURVE",
"294 420 CURVE SMOOTH",
"352 420 OFFCURVE",
"398 389 OFFCURVE",
"402 348 CURVE SMOOTH",
"409 269 OFFCURVE",
"508 276 OFFCURVE",
"502 353 CURVE SMOOTH",
"494 448 OFFCURVE",
"405 520 OFFCURVE",
"294 520 CURVE SMOOTH",
"146 520 OFFCURVE",
"37 407 OFFCURVE",
"40 244 CURVE SMOOTH",
"42 99 OFFCURVE",
"152 -19 OFFCURVE",
"296 -19 CURVE SMOOTH"
);
}
);
width = 554;
}
);
leftKerningGroup = o;
leftMetricsKey = "=o";
rightKerningGroup = o;
rightMetricsKey = "=|";
unicode = 0063;
},
{
glyphname = d;
layers = (
{
hints = (
{
origin = "{2, 12}";
target = "{2, 0}";
type = Cap;
name = _cap.top;
}
);
layerId = "F0262224-B9C7-46EB-9294-168F9DBDA589";
paths = (
{
closed = 1;
nodes = (
"427 -7 OFFCURVE",
"525 108 OFFCURVE",
"525 262 CURVE SMOOTH",
"525 409 OFFCURVE",
"427 520 OFFCURVE",
"297 520 CURVE SMOOTH",
"156 520 OFFCURVE",
"50 409 OFFCURVE",
"50 262 CURVE SMOOTH",
"50 108 OFFCURVE",
"156 -7 OFFCURVE",
"297 -7 CURVE SMOOTH"
);
},
{
closed = 1;
nodes = (
"179 33 OFFCURVE",
"90 131 OFFCURVE",
"90 262 CURVE SMOOTH",
"90 387 OFFCURVE",
"179 480 OFFCURVE",
"297 480 CURVE SMOOTH",
"410 480 OFFCURVE",
"495 387 OFFCURVE",
"495 262 CURVE SMOOTH",
"495 131 OFFCURVE",
"410 33 OFFCURVE",
"297 33 CURVE SMOOTH"
);
},
{
closed = 1;
nodes = (
"533 0 LINE",
"533 57 OFFCURVE",
"542 828 OFFCURVE",
"542 870 CURVE SMOOTH",
"542 881 OFFCURVE",
"533 890 OFFCURVE",
"522 890 CURVE",
"511 890 OFFCURVE",
"502 881 OFFCURVE",
"502 870 CURVE SMOOTH",
"502 822 OFFCURVE",
"493 60 OFFCURVE",
"493 0 CURVE"
);
}
);
width = 629;
},
{
hints = (
{
origin = "{2, 12}";
target = "{2, 0}";
type = Cap;
name = _cap.top;
}
);
layerId = "2E7D65B2-411D-4607-BF7C-7C0096008F1D";
paths = (
{
closed = 1;
nodes = (
"454 -17 OFFCURVE",
"555 98 OFFCURVE",
"555 252 CURVE SMOOTH",
"555 399 OFFCURVE",
"454 520 OFFCURVE",
"307 520 CURVE SMOOTH",
"149 520 OFFCURVE",
"40 399 OFFCURVE",
"40 252 CURVE SMOOTH",
"40 98 OFFCURVE",
"149 -17 OFFCURVE",
"307 -17 CURVE SMOOTH"
);
},
{
closed = 1;
nodes = (
"206 83 OFFCURVE",
"140 155 OFFCURVE",
"140 252 CURVE SMOOTH",
"140 342 OFFCURVE",
"206 420 OFFCURVE",
"307 420 CURVE SMOOTH",
"403 420 OFFCURVE",
"465 342 OFFCURVE",
"465 252 CURVE SMOOTH",
"465 155 OFFCURVE",
"403 83 OFFCURVE",
"307 83 CURVE SMOOTH"
);
},
{
closed = 1;
nodes = (
"564 0 LINE",
"564 31 OFFCURVE",
"573 823 OFFCURVE",
"573 841 CURVE SMOOTH",
"573 870 OFFCURVE",
"554 890 OFFCURVE",
"521 890 CURVE",
"488 890 OFFCURVE",
"473 861 OFFCURVE",
"473 841 CURVE SMOOTH",
"473 822 OFFCURVE",
"464 33 OFFCURVE",
"464 0 CURVE"
);
}
);
width = 670;
},
{
associatedMasterId = "F0262224-B9C7-46EB-9294-168F9DBDA589";
hints = (
{
origin = "{2, 3}";
target = "{2, 4}";
type = Cap;
name = _cap.top;
},
{
origin = "{2, 7}";
target = "{2, 0}";
type = Cap;
name = _cap.top;
}
);
layerId = "04EC7864-68EF-48C4-9D0B-E1F48A5E3E14";
name = "Sep 24 19, 00:04";
paths = (
{
closed = 1;
nodes = (
"427 -7 OFFCURVE",
"525 108 OFFCURVE",
"525 262 CURVE SMOOTH",
"525 409 OFFCURVE",
"427 520 OFFCURVE",
"297 520 CURVE SMOOTH",
"156 520 OFFCURVE",
"50 409 OFFCURVE",
"50 262 CURVE SMOOTH",
"50 108 OFFCURVE",
"156 -7 OFFCURVE",
"297 -7 CURVE SMOOTH"
);
},
{
closed = 1;
nodes = (
"179 33 OFFCURVE",
"90 131 OFFCURVE",
"90 262 CURVE SMOOTH",
"90 387 OFFCURVE",
"179 480 OFFCURVE",
"297 480 CURVE SMOOTH",
"410 480 OFFCURVE",
"495 387 OFFCURVE",
"495 262 CURVE SMOOTH",
"495 131 OFFCURVE",
"410 33 OFFCURVE",
"297 33 CURVE SMOOTH"
);
},
{
closed = 1;
nodes = (
"533 0 LINE",
"533 57 OFFCURVE",
"542 841 OFFCURVE",
"542 880 CURVE",
"502 880 LINE",
"502 838 OFFCURVE",
"493 60 OFFCURVE",
"493 0 CURVE"
);
}
);
width = 629;
},
{
associatedMasterId = "2E7D65B2-411D-4607-BF7C-7C0096008F1D";
hints = (
{
origin = "{2, 3}";
target = "{2, 4}";
type = Cap;
name = _cap.top;
},
{
origin = "{2, 7}";
target = "{2, 0}";
type = Cap;
name = _cap.top;
}
);
layerId = "CCC2E2F6-F56F-4B50-8A08-782A501A5D4D";
name = "Sep 24 19, 00:04";
paths = (
{
closed = 1;
nodes = (
"454 -17 OFFCURVE",
"555 98 OFFCURVE",
"555 252 CURVE SMOOTH",
"555 399 OFFCURVE",
"454 520 OFFCURVE",
"307 520 CURVE SMOOTH",
"149 520 OFFCURVE",
"40 399 OFFCURVE",
"40 252 CURVE SMOOTH",
"40 98 OFFCURVE",
"149 -17 OFFCURVE",
"307 -17 CURVE SMOOTH"
);
},
{
closed = 1;
nodes = (
"206 83 OFFCURVE",
"140 155 OFFCURVE",
"140 252 CURVE SMOOTH",
"140 342 OFFCURVE",
"206 420 OFFCURVE",
"307 420 CURVE SMOOTH",
"403 420 OFFCURVE",
"465 342 OFFCURVE",
"465 252 CURVE SMOOTH",
"465 155 OFFCURVE",
"403 83 OFFCURVE",
"307 83 CURVE SMOOTH"
);
},
{
closed = 1;
nodes = (
"564 0 LINE",
"564 31 OFFCURVE",
"573 862 OFFCURVE",
"573 880 CURVE",
"473 880 LINE",
"473 861 OFFCURVE",
"464 33 OFFCURVE",
"464 0 CURVE"
);
}
);
width = 670;
}
);
leftKerningGroup = o;
leftMetricsKey = "=o";
rightKerningGroup = o;
rightMetricsKey = "=h";
unicode = 0064;
},
{
glyphname = eth;
layers = (
{
layerId = "F0262224-B9C7-46EB-9294-168F9DBDA589";
paths = (
{
closed = 1;
nodes = (
"486 410 OFFCURVE",
"414 510 OFFCURVE",
"287 510 CURVE SMOOTH",
"160 510 OFFCURVE",
"50 400 OFFCURVE",
"50 246 CURVE SMOOTH",
"50 105 OFFCURVE",
"155 -10 OFFCURVE",
"286 -10 CURVE SMOOTH",
"429 -10 OFFCURVE",
"527 113 OFFCURVE",
"527 277 CURVE SMOOTH",
"527 451 OFFCURVE",
"416 736 OFFCURVE",
"291 880 CURVE SMOOTH",
"288 884 OFFCURVE",
"281 887 OFFCURVE",
"275 887 CURVE SMOOTH",
"264 887 OFFCURVE",
"255 878 OFFCURVE",
"255 866 CURVE SMOOTH",
"255 861 OFFCURVE",
"257 856 OFFCURVE",
"260 853 CURVE SMOOTH",
"397 697 OFFCURVE",
"487 424 OFFCURVE",
"487 277 CURVE SMOOTH",
"487 136 OFFCURVE",
"407 30 OFFCURVE",
"286 30 CURVE SMOOTH",
"177 30 OFFCURVE",
"90 127 OFFCURVE",
"90 246 CURVE SMOOTH",
"90 378 OFFCURVE",
"183 470 OFFCURVE",
"287 470 CURVE SMOOTH",
"396 470 OFFCURVE",
"481 378 OFFCURVE",
"487 277 CURVE",
"521 300 LINE"
);
},
{
closed = 1;
nodes = (
"275 680 LINE SMOOTH",
"268 677 OFFCURVE",
"262 670 OFFCURVE",
"262 662 CURVE SMOOTH",
"262 648 OFFCURVE",
"278 638 OFFCURVE",
"290 643 CURVE SMOOTH",
"499 730 LINE SMOOTH",
"506 733 OFFCURVE",
"512 740 OFFCURVE",
"512 748 CURVE SMOOTH",
"512 762 OFFCURVE",
"496 772 OFFCURVE",
"484 767 CURVE SMOOTH"
);
}
);
width = 577;
},
{
layerId = "2E7D65B2-411D-4607-BF7C-7C0096008F1D";
paths = (
{
closed = 1;
nodes = (
"532 459 OFFCURVE",
"435 540 OFFCURVE",
"307 540 CURVE SMOOTH",
"158 540 OFFCURVE",
"40 420 OFFCURVE",
"40 256 CURVE SMOOTH",
"40 98 OFFCURVE",
"159 -20 OFFCURVE",
"306 -20 CURVE SMOOTH",
"464 -20 OFFCURVE",
"577 104 OFFCURVE",
"577 287 CURVE SMOOTH",
"577 468 OFFCURVE",
"458 727 OFFCURVE",
"334 879 CURVE SMOOTH",
"325 890 OFFCURVE",
"309 897 OFFCURVE",
"295 897 CURVE SMOOTH",
"267 897 OFFCURVE",
"245 875 OFFCURVE",
"245 846 CURVE SMOOTH",
"245 834 OFFCURVE",
"250 821 OFFCURVE",
"258 813 CURVE SMOOTH",
"401 670 OFFCURVE",
"477 429 OFFCURVE",
"477 287 CURVE SMOOTH",
"477 159 OFFCURVE",
"406 80 OFFCURVE",
"306 80 CURVE SMOOTH",
"214 80 OFFCURVE",
"140 153 OFFCURVE",
"140 256 CURVE SMOOTH",
"140 365 OFFCURVE",
"214 440 OFFCURVE",
"307 440 CURVE SMOOTH",
"395 440 OFFCURVE",
"472 376 OFFCURVE",
"477 285 CURVE",
"576 297 LINE"
);
},
{
closed = 1;
nodes = (
"283 708 LINE SMOOTH",
"265 700 OFFCURVE",
"252 682 OFFCURVE",
"252 662 CURVE SMOOTH",
"252 626 OFFCURVE",
"290 602 OFFCURVE",
"322 615 CURVE SMOOTH",
"531 702 LINE SMOOTH",
"549 710 OFFCURVE",
"562 728 OFFCURVE",
"562 748 CURVE SMOOTH",
"562 784 OFFCURVE",
"524 808 OFFCURVE",
"492 795 CURVE SMOOTH"
);
}
);
width = 617;
}
);
leftMetricsKey = "=o";
rightMetricsKey = "=o";
unicode = 00F0;
},
{
glyphname = e;
layers = (
{
layerId = "F0262224-B9C7-46EB-9294-168F9DBDA589";
paths = (
{
closed = 1;
nodes = (
"385 -9 OFFCURVE",
"469 18 OFFCURVE",
"505 64 CURVE SMOOTH",
"509 69 OFFCURVE",
"511 73 OFFCURVE",
"511 78 CURVE SMOOTH",
"511 89 OFFCURVE",
"502 98 OFFCURVE",
"491 98 CURVE SMOOTH",
"486 98 OFFCURVE",
"478 95 OFFCURVE",
"476 92 CURVE SMOOTH",
"448 51 OFFCURVE",
"380 31 OFFCURVE",
"296 31 CURVE SMOOTH",
"178 31 OFFCURVE",
"90 116 OFFCURVE",
"90 236 CURVE SMOOTH",
"90 373 OFFCURVE",
"187 470 OFFCURVE",
"307 470 CURVE SMOOTH",
"394 470 OFFCURVE",
"452 422 OFFCURVE",
"452 365 CURVE SMOOTH",
"452 314 OFFCURVE",
"397 282 OFFCURVE",
"307 282 CURVE SMOOTH",
"201 282 OFFCURVE",
"120 327 OFFCURVE",
"100 361 CURVE",
"83 323 LINE",
"101 284 OFFCURVE",
"206 242 OFFCURVE",
"307 242 CURVE SMOOTH",
"420 242 OFFCURVE",
"492 291 OFFCURVE",
"492 365 CURVE SMOOTH",
"492 444 OFFCURVE",
"417 510 OFFCURVE",
"307 510 CURVE SMOOTH",
"162 510 OFFCURVE",
"47 397 OFFCURVE",
"50 240 CURVE SMOOTH",
"52 95 OFFCURVE",
"157 -9 OFFCURVE",
"296 -9 CURVE SMOOTH"
);
}
);
width = 561;
},
{
layerId = "2E7D65B2-411D-4607-BF7C-7C0096008F1D";
paths = (
{
closed = 1;
nodes = (
"397 -19 OFFCURVE",
"473 16 OFFCURVE",
"515 61 CURVE SMOOTH",
"526 73 OFFCURVE",
"527 88 OFFCURVE",
"527 100 CURVE SMOOTH",
"527 124 OFFCURVE",
"505 142 OFFCURVE",
"477 142 CURVE SMOOTH",
"464 142 OFFCURVE",
"450 134 OFFCURVE",
"438 124 CURVE SMOOTH",
"399 93 OFFCURVE",
"377 81 OFFCURVE",
"306 81 CURVE SMOOTH",
"205 81 OFFCURVE",
"140 137 OFFCURVE",
"140 231 CURVE SMOOTH",
"140 353 OFFCURVE",
"198 420 OFFCURVE",
"299 420 CURVE SMOOTH",
"371 420 OFFCURVE",
"422 393 OFFCURVE",
"422 356 CURVE SMOOTH",
"422 325 OFFCURVE",
"376 302 OFFCURVE",
"304 302 CURVE SMOOTH",
"217 302 OFFCURVE",
"168 327 OFFCURVE",
"140 353 CURVE",
"86 311 LINE",
"116 256 OFFCURVE",
"180 209 OFFCURVE",
"304 209 CURVE SMOOTH",
"424 209 OFFCURVE",
"522 264 OFFCURVE",
"522 356 CURVE SMOOTH",
"522 452 OFFCURVE",
"427 520 OFFCURVE",
"299 520 CURVE SMOOTH",
"162 520 OFFCURVE",
"40 402 OFFCURVE",
"40 235 CURVE SMOOTH",
"40 83 OFFCURVE",
"151 -19 OFFCURVE",
"306 -19 CURVE SMOOTH"
);
}
);
width = 567;
}
);
leftKerningGroup = o;
leftMetricsKey = "=o";
rightKerningGroup = o;
rightMetricsKey = "=o";
unicode = 0065;
},
{
glyphname = f;
layers = (
{
layerId = "F0262224-B9C7-46EB-9294-168F9DBDA589";
paths = (
{
closed = 1;
nodes = (
"165 -7 OFFCURVE",
"174 2 OFFCURVE",
"174 13 CURVE SMOOTH",
"176 673 LINE SMOOTH",
"176 767 OFFCURVE",
"217 836 OFFCURVE",
"278 843 CURVE SMOOTH",
"287 844 OFFCURVE",
"295 852 OFFCURVE",
"295 862 CURVE SMOOTH",
"295 875 OFFCURVE",
"283 884 OFFCURVE",
"272 882 CURVE SMOOTH",
"190 867 OFFCURVE",
"136 787 OFFCURVE",
"136 673 CURVE SMOOTH",
"134 13 LINE SMOOTH",
"134 2 OFFCURVE",
"143 -7 OFFCURVE",
"154 -7 CURVE SMOOTH"
);
},
{
closed = 1;
nodes = (
"293 460 LINE SMOOTH",
"304 460 OFFCURVE",
"313 469 OFFCURVE",
"313 480 CURVE SMOOTH",
"313 491 OFFCURVE",
"304 500 OFFCURVE",
"293 500 CURVE SMOOTH",
"70 500 LINE SMOOTH",
"59 500 OFFCURVE",
"50 491 OFFCURVE",
"50 480 CURVE SMOOTH",
"50 469 OFFCURVE",
"59 460 OFFCURVE",
"70 460 CURVE SMOOTH"
);
}
);
width = 353;
},
{
layerId = "2E7D65B2-411D-4607-BF7C-7C0096008F1D";
paths = (
{
closed = 1;
nodes = (
"206 -7 OFFCURVE",
"228 15 OFFCURVE",
"228 43 CURVE SMOOTH",
"230 653 LINE SMOOTH",
"230 731 OFFCURVE",
"261 786 OFFCURVE",
"306 793 CURVE SMOOTH",
"330 797 OFFCURVE",
"349 818 OFFCURVE",
"349 842 CURVE SMOOTH",
"349 873 OFFCURVE",
"321 897 OFFCURVE",
"291 892 CURVE SMOOTH",
"194 876 OFFCURVE",
"130 781 OFFCURVE",
"130 653 CURVE SMOOTH",
"128 43 LINE SMOOTH",
"128 15 OFFCURVE",
"150 -7 OFFCURVE",
"178 -7 CURVE SMOOTH"
);
},
{
closed = 1;
nodes = (
"317 410 LINE SMOOTH",
"345 410 OFFCURVE",
"367 432 OFFCURVE",
"367 460 CURVE SMOOTH",
"367 488 OFFCURVE",
"345 510 OFFCURVE",
"317 510 CURVE SMOOTH",
"90 510 LINE SMOOTH",
"62 510 OFFCURVE",
"40 488 OFFCURVE",
"40 460 CURVE SMOOTH",
"40 432 OFFCURVE",
"62 410 OFFCURVE",
"90 410 CURVE SMOOTH"
);
}
);
width = 407;
}
);
leftMetricsKey = "=t";
unicode = 0066;
},
{
glyphname = g;
layers = (
{
layerId = "F0262224-B9C7-46EB-9294-168F9DBDA589";
paths = (
{
closed = 1;
nodes = (
"389 -300 OFFCURVE",
"487 -239 OFFCURVE",
"487 -136 CURVE SMOOTH",
"487 -46 OFFCURVE",
"431 -10 OFFCURVE",
"285 11 CURVE SMOOTH",
"227 19 OFFCURVE",
"200 38 OFFCURVE",
"200 61 CURVE SMOOTH",
"200 87 OFFCURVE",
"235 118 OFFCURVE",
"281 118 CURVE",
"244 142 LINE",
"186 137 OFFCURVE",
"155 100 OFFCURVE",
"155 61 CURVE SMOOTH",
"155 18 OFFCURVE",
"196 -15 OFFCURVE",
"285 -29 CURVE SMOOTH",
"399 -47 OFFCURVE",
"447 -74 OFFCURVE",
"447 -136 CURVE SMOOTH",
"447 -214 OFFCURVE",
"364 -260 OFFCURVE",
"262 -260 CURVE SMOOTH",
"178 -260 OFFCURVE",
"109 -217 OFFCURVE",
"77 -159 CURVE SMOOTH",
"74 -154 OFFCURVE",
"67 -149 OFFCURVE",
"60 -149 CURVE SMOOTH",
"49 -149 OFFCURVE",
"40 -158 OFFCURVE",
"40 -169 CURVE SMOOTH",
"40 -173 OFFCURVE",
"41 -176 OFFCURVE",
"43 -179 CURVE SMOOTH",
"86 -255 OFFCURVE",
"171 -300 OFFCURVE",
"262 -300 CURVE SMOOTH"
);
},
{
closed = 1;
nodes = (
"385 118 OFFCURVE",
"474 201 OFFCURVE",
"474 312 CURVE SMOOTH",
"474 425 OFFCURVE",
"385 510 OFFCURVE",
"267 510 CURVE SMOOTH",
"148 510 OFFCURVE",
"59 425 OFFCURVE",
"59 312 CURVE SMOOTH",
"59 201 OFFCURVE",
"148 118 OFFCURVE",
"267 118 CURVE SMOOTH"
);
},
{
closed = 1;
nodes = (
"171 158 OFFCURVE",
"99 224 OFFCURVE",
"99 312 CURVE SMOOTH",
"99 402 OFFCURVE",
"171 470 OFFCURVE",
"267 470 CURVE SMOOTH",
"362 470 OFFCURVE",
"434 402 OFFCURVE",
"434 312 CURVE SMOOTH",
"434 224 OFFCURVE",
"362 158 OFFCURVE",
"267 158 CURVE SMOOTH"
);
},
{
closed = 1;
nodes = (
"449 439 OFFCURVE",
"491 459 OFFCURVE",
"523 454 CURVE SMOOTH",
"535 452 OFFCURVE",
"547 461 OFFCURVE",
"547 473 CURVE SMOOTH",
"547 483 OFFCURVE",
"540 491 OFFCURVE",
"531 493 CURVE SMOOTH",
"487 503 OFFCURVE",
"435 483 OFFCURVE",
"407 442 CURVE",
"432 411 LINE"
);
}
);
width = 567;
},
{
layerId = "2E7D65B2-411D-4607-BF7C-7C0096008F1D";
paths = (
{
closed = 1;
nodes = (
"418 -310 OFFCURVE",
"527 -238 OFFCURVE",
"527 -131 CURVE SMOOTH",
"527 -42 OFFCURVE",
"478 8 OFFCURVE",
"298 29 CURVE SMOOTH",
"255 34 OFFCURVE",
"239 52 OFFCURVE",
"239 70 CURVE SMOOTH",
"239 83 OFFCURVE",
"249 103 OFFCURVE",
"277 103 CURVE",
"227 146 LINE",
"202 146 OFFCURVE",
"135 110 OFFCURVE",
"135 52 CURVE SMOOTH",
"135 -8 OFFCURVE",
"195 -42 OFFCURVE",
"303 -54 CURVE SMOOTH",
"400 -65 OFFCURVE",
"427 -92 OFFCURVE",
"427 -131 CURVE SMOOTH",
"427 -179 OFFCURVE",
"381 -210 OFFCURVE",
"295 -210 CURVE SMOOTH",
"187 -210 OFFCURVE",
"148 -182 OFFCURVE",
"113 -124 CURVE SMOOTH",
"104 -109 OFFCURVE",
"87 -99 OFFCURVE",
"70 -99 CURVE SMOOTH",
"42 -99 OFFCURVE",
"20 -121 OFFCURVE",
"20 -149 CURVE SMOOTH",
"20 -158 OFFCURVE",
"23 -168 OFFCURVE",
"28 -176 CURVE SMOOTH",
"84 -265 OFFCURVE",
"159 -310 OFFCURVE",
"295 -310 CURVE SMOOTH"
);
},
{
closed = 1;
nodes = (
"407 103 OFFCURVE",
"504 192 OFFCURVE",
"504 310 CURVE SMOOTH",
"504 430 OFFCURVE",
"407 520 OFFCURVE",
"277 520 CURVE SMOOTH",
"147 520 OFFCURVE",
"49 430 OFFCURVE",
"49 310 CURVE SMOOTH",
"49 192 OFFCURVE",
"147 103 OFFCURVE",
"277 103 CURVE SMOOTH"
);
},
{
closed = 1;
nodes = (
"204 203 OFFCURVE",
"149 249 OFFCURVE",
"149 310 CURVE SMOOTH",
"149 373 OFFCURVE",
"204 420 OFFCURVE",
"277 420 CURVE SMOOTH",
"350 420 OFFCURVE",
"404 373 OFFCURVE",
"404 310 CURVE SMOOTH",
"404 249 OFFCURVE",
"350 203 OFFCURVE",
"277 203 CURVE SMOOTH"
);
},
{
closed = 1;
nodes = (
"479 424 OFFCURVE",
"508 422 OFFCURVE",
"528 419 CURVE SMOOTH",
"558 415 OFFCURVE",
"587 428 OFFCURVE",
"587 459 CURVE SMOOTH",
"587 483 OFFCURVE",
"570 502 OFFCURVE",
"548 507 CURVE SMOOTH",
"483 522 OFFCURVE",
"410 487 OFFCURVE",
"381 424 CURVE",
"469 406 LINE"
);
}
);
width = 607;
}
);
leftKerningGroup = o;
rightKerningGroup = o;
unicode = 0067;
},
{
glyphname = h;
layers = (
{
components = (
{
name = nh_curve;
transform = "{1, 0, 0, 1, -2, 0}";
}
);
hints = (
{
origin = "{0, 5}";
target = "{0, 6}";
type = Cap;
name = _cap.top;
}
);
layerId = "F0262224-B9C7-46EB-9294-168F9DBDA589";
paths = (
{
closed = 1;
nodes = (
"138 -2 OFFCURVE",
"147 7 OFFCURVE",
"147 18 CURVE SMOOTH",
"147 75 OFFCURVE",
"157 860 OFFCURVE",
"156 880 CURVE",
"116 880 LINE",
"116 862 OFFCURVE",
"107 78 OFFCURVE",
"107 18 CURVE SMOOTH",
"107 7 OFFCURVE",
"116 -2 OFFCURVE",
"127 -2 CURVE SMOOTH"
);
}
);
width = 582;
},
{
components = (
{
name = nh_curve;
transform = "{1, 0, 0, 1, 14, 0}";
}
);
hints = (
{
origin = "{0, 5}";
target = "{0, 6}";
type = Cap;
name = _cap.top;
}
);
layerId = "2E7D65B2-411D-4607-BF7C-7C0096008F1D";
paths = (
{
closed = 1;
nodes = (
"175 -12 OFFCURVE",
"197 10 OFFCURVE",
"197 38 CURVE SMOOTH",
"197 70 OFFCURVE",
"206 865 OFFCURVE",
"206 880 CURVE",
"106 880 LINE",
"106 861 OFFCURVE",
"97 92 OFFCURVE",
"97 38 CURVE SMOOTH",
"97 10 OFFCURVE",
"119 -12 OFFCURVE",
"147 -12 CURVE SMOOTH"
);
}
);
width = 628;
}
);
unicode = 0068;
},
{
glyphname = i;
layers = (
{
components = (
{
name = idotless;
}
);
layerId = "F0262224-B9C7-46EB-9294-168F9DBDA589";
paths = (
{
closed = 1;
nodes = (
"165 675 OFFCURVE",
"180 690 OFFCURVE",
"180 711 CURVE SMOOTH",
"180 730 OFFCURVE",
"165 745 OFFCURVE",
"146 745 CURVE SMOOTH",
"125 745 OFFCURVE",
"110 730 OFFCURVE",
"110 711 CURVE SMOOTH",
"110 690 OFFCURVE",
"125 675 OFFCURVE",
"146 675 CURVE SMOOTH"
);
}
);
width = 279;
},
{
components = (
{
name = idotless;
transform = "{1, 0, 0, 1, 15, 0}";
}
);
layerId = "2E7D65B2-411D-4607-BF7C-7C0096008F1D";
paths = (
{
closed = 1;
nodes = (
"196 645 OFFCURVE",
"224 673 OFFCURVE",
"224 708 CURVE SMOOTH",
"224 743 OFFCURVE",
"196 770 OFFCURVE",
"162 770 CURVE SMOOTH",
"127 770 OFFCURVE",
"99 742 OFFCURVE",
"99 708 CURVE SMOOTH",
"99 673 OFFCURVE",
"127 645 OFFCURVE",
"162 645 CURVE SMOOTH"
);
}
);
width = 304;
}
);
leftMetricsKey = "=n+15";
unicode = 0069;
},
{
glyphname = idotless;
layers = (
{
hints = (
{
origin = "{0, 5}";
target = "{0, 6}";
type = Cap;
name = _cap.top;
}
);
layerId = "F0262224-B9C7-46EB-9294-168F9DBDA589";
paths = (
{
closed = 1;
nodes = (
"154 -12 OFFCURVE",
"163 -3 OFFCURVE",
"163 8 CURVE SMOOTH",
"163 65 OFFCURVE",
"171 422 OFFCURVE",
"171 500 CURVE",
"131 500 LINE",
"131 422 OFFCURVE",
"123 68 OFFCURVE",
"123 8 CURVE SMOOTH",
"123 -3 OFFCURVE",
"132 -12 OFFCURVE",
"143 -12 CURVE SMOOTH"
);
}
);
width = 279;
},
{
hints = (
{
origin = "{0, 5}";
target = "{0, 6}";
type = Cap;
name = _cap.top;
}
);
layerId = "2E7D65B2-411D-4607-BF7C-7C0096008F1D";
paths = (
{
closed = 1;
nodes = (
"174 -22 OFFCURVE",
"196 0 OFFCURVE",
"196 28 CURVE SMOOTH",
"196 63 OFFCURVE",
"205 430 OFFCURVE",
"205 502 CURVE",
"105 500 LINE",
"102 367 OFFCURVE",
"96 70 OFFCURVE",
"96 28 CURVE SMOOTH",
"96 0 OFFCURVE",
"118 -22 OFFCURVE",
"146 -22 CURVE SMOOTH"
);
}
);
width = 262;
}
);
unicode = 0131;
},
{
glyphname = j;
layers = (
{
hints = (
{
origin = "{0, 8}";
type = Cap;
name = _cap.top;
}
);
layerId = "F0262224-B9C7-46EB-9294-168F9DBDA589";
paths = (
{
closed = 1;
nodes = (
"54 -269 OFFCURVE",
"57 -269 OFFCURVE",
"60 -267 CURVE SMOOTH",
"121 -226 OFFCURVE",
"171 -137 OFFCURVE",
"171 11 CURVE SMOOTH",
"171 14 OFFCURVE",
"169 396 OFFCURVE",
"170 500 CURVE",
"130 500 LINE",
"129 404 OFFCURVE",
"133 125 OFFCURVE",
"132 38 CURVE SMOOTH",
"130 -96 OFFCURVE",
"91 -197 OFFCURVE",
"40 -231 CURVE SMOOTH",
"34 -235 OFFCURVE",
"30 -241 OFFCURVE",
"30 -249 CURVE SMOOTH",
"30 -260 OFFCURVE",
"39 -269 OFFCURVE",
"50 -269 CURVE SMOOTH"
);
},
{
closed = 1;
nodes = (
"170 675 OFFCURVE",
"184 689 OFFCURVE",
"184 708 CURVE SMOOTH",
"184 726 OFFCURVE",
"170 740 OFFCURVE",
"152 740 CURVE SMOOTH",
"133 740 OFFCURVE",
"119 726 OFFCURVE",
"119 708 CURVE SMOOTH",
"119 689 OFFCURVE",
"133 675 OFFCURVE",
"152 675 CURVE SMOOTH"
);
}
);
width = 283;
},
{
hints = (
{
origin = "{0, 8}";
target = "{0, 9}";
type = Cap;
name = _cap.top;
}
);
layerId = "2E7D65B2-411D-4607-BF7C-7C0096008F1D";
paths = (
{
closed = 1;
nodes = (
"79 -309 OFFCURVE",
"88 -307 OFFCURVE",
"95 -303 CURVE SMOOTH",
"194 -246 OFFCURVE",
"216 -103 OFFCURVE",
"222 49 CURVE SMOOTH",
"230 249 OFFCURVE",
"217 346 OFFCURVE",
"223 509 CURVE",
"121 509 LINE",
"122 488 OFFCURVE",
"128 205 OFFCURVE",
"122 39 CURVE SMOOTH",
"118 -83 OFFCURVE",
"90 -191 OFFCURVE",
"43 -216 CURVE SMOOTH",
"28 -224 OFFCURVE",
"20 -241 OFFCURVE",
"20 -259 CURVE SMOOTH",
"20 -287 OFFCURVE",
"42 -309 OFFCURVE",
"70 -309 CURVE SMOOTH"
);
},
{
closed = 1;
nodes = (
"196 645 OFFCURVE",
"224 673 OFFCURVE",
"224 708 CURVE SMOOTH",
"224 743 OFFCURVE",
"196 770 OFFCURVE",
"162 770 CURVE SMOOTH",
"127 770 OFFCURVE",
"99 742 OFFCURVE",
"99 708 CURVE SMOOTH",
"99 672 OFFCURVE",
"126 645 OFFCURVE",
"162 645 CURVE SMOOTH"
);
}
);
width = 305;
}
);
rightMetricsKey = "=i";
unicode = 006A;
},
{
glyphname = k;
layers = (
{
hints = (
{
origin = "{1, 5}";
type = Cap;
name = _cap.top;
}
);
layerId = "F0262224-B9C7-46EB-9294-168F9DBDA589";
paths = (
{
closed = 1;
nodes = (
"499 -5 OFFCURVE",
"508 4 OFFCURVE",
"508 15 CURVE SMOOTH",
"508 21 OFFCURVE",
"506 27 OFFCURVE",
"502 30 CURVE SMOOTH",
"164 328 LINE",
"162 304 LINE",
"488 477 LINE SMOOTH",
"494 480 OFFCURVE",
"498 487 OFFCURVE",
"498 494 CURVE SMOOTH",
"498 505 OFFCURVE",
"489 514 OFFCURVE",
"478 514 CURVE SMOOTH",
"474 514 OFFCURVE",
"471 513 OFFCURVE",
"468 511 CURVE SMOOTH",
"137 336 LINE SMOOTH",
"123 328 OFFCURVE",
"120 314 OFFCURVE",
"133 303 CURVE SMOOTH",
"474 1 LINE SMOOTH",
"478 -3 OFFCURVE",
"482 -5 OFFCURVE",
"488 -5 CURVE SMOOTH"
);
},
{
closed = 1;
nodes = (
"138 -2 OFFCURVE",
"147 7 OFFCURVE",
"147 18 CURVE SMOOTH",
"147 75 OFFCURVE",
"157 860 OFFCURVE",
"156 880 CURVE",
"116 880 LINE",
"116 862 OFFCURVE",
"107 78 OFFCURVE",
"107 18 CURVE SMOOTH",
"107 7 OFFCURVE",
"116 -2 OFFCURVE",
"127 -2 CURVE SMOOTH"
);
}
);
width = 548;
},
{
hints = (
{
origin = "{1, 5}";
target = "{1, 6}";
type = Cap;
name = _cap.top;
}
);
layerId = "2E7D65B2-411D-4607-BF7C-7C0096008F1D";
paths = (
{
closed = 1;
nodes = (
"526 -15 OFFCURVE",
"548 7 OFFCURVE",
"548 35 CURVE SMOOTH",
"548 49 OFFCURVE",
"542 65 OFFCURVE",
"532 73 CURVE SMOOTH",
"240 330 LINE",
"233 278 LINE",
"514 422 LINE SMOOTH",
"528 429 OFFCURVE",
"538 447 OFFCURVE",
"538 464 CURVE SMOOTH",
"538 492 OFFCURVE",
"516 514 OFFCURVE",
"488 514 CURVE SMOOTH",
"480 514 OFFCURVE",
"469 510 OFFCURVE",
"462 506 CURVE SMOOTH",
"171 351 LINE SMOOTH",
"139 334 OFFCURVE",
"135 296 OFFCURVE",
"162 271 CURVE SMOOTH",
"463 -1 LINE SMOOTH",
"473 -10 OFFCURVE",
"485 -15 OFFCURVE",
"498 -15 CURVE SMOOTH"
);
},
{
closed = 1;
nodes = (
"175 -12 OFFCURVE",
"197 3 OFFCURVE",
"197 38 CURVE SMOOTH",
"197 284 OFFCURVE",
"203 624 OFFCURVE",
"206 880 CURVE",
"106 879 LINE",
"103 623 OFFCURVE",
"97 294 OFFCURVE",
"97 38 CURVE SMOOTH",
"97 10 OFFCURVE",
"119 -12 OFFCURVE",
"147 -12 CURVE SMOOTH"
);
}
);
width = 588;
}
);
leftMetricsKey = "=h";
unicode = 006B;
},
{
glyphname = l;
layers = (
{
hints = (
{
origin = "{0, 8}";
target = "{0, 0}";
type = Cap;
name = _cap.top;
}
);
layerId = "F0262224-B9C7-46EB-9294-168F9DBDA589";
paths = (
{
closed = 1;
nodes = (
"119 0 LINE",
"128 868 LINE SMOOTH",
"128 877 OFFCURVE",
"123 890 OFFCURVE",
"108 890 CURVE SMOOTH",
"94 890 OFFCURVE",
"88 879 OFFCURVE",
"88 868 CURVE SMOOTH",
"79 0 LINE"
);
}
);
width = 225;
},
{
hints = (
{
origin = "{0, 8}";
target = "{0, 0}";
type = Cap;
name = _cap.top;
}
);
layerId = "2E7D65B2-411D-4607-BF7C-7C0096008F1D";
paths = (
{
closed = 1;
nodes = (
"198 0 LINE",
"205 832 LINE SMOOTH",
"205 864 OFFCURVE",
"184 890 OFFCURVE",
"152 890 CURVE",
"119 890 OFFCURVE",
"105 856 OFFCURVE",
"105 828 CURVE SMOOTH",
"98 0 LINE"
);
}
);
width = 314;
},
{
associatedMasterId = "F0262224-B9C7-46EB-9294-168F9DBDA589";
hints = (
{
origin = "{0, 1}";
type = Cap;
name = _cap.top;
},
{
origin = "{0, 3}";
target = "{0, 0}";
type = Cap;
name = _cap.top;
}
);
layerId = "D9297715-B26B-4A7C-9315-A7B2EF3ADFA3";
name = "Sep 24 19, 00:01";
paths = (
{
closed = 1;
nodes = (
"147 0 LINE",
"156 880 LINE",
"116 880 LINE",
"107 0 LINE"
);
}
);
width = 263;
},
{
associatedMasterId = "2E7D65B2-411D-4607-BF7C-7C0096008F1D";
hints = (
{
origin = "{0, 1}";
target = "{0, 2}";
type = Cap;
name = _cap.top;
},
{
origin = "{0, 3}";
target = "{0, 0}";
type = Cap;
name = _cap.top;
}
);
layerId = "42ED195E-60B5-4B52-9FD3-D874742775BD";
name = "Sep 24 19, 00:01";
paths = (
{
closed = 1;
nodes = (
"197 0 LINE",
"206 880 LINE",
"106 880 LINE",
"97 0 LINE"
);
}
);
width = 303;
}
);
rightMetricsKey = "=h+10";
unicode = 006C;
},
{
glyphname = m;
layers = (
{
hints = (
{
origin = "{1, 5}";
type = Cap;
name = _cap.top;
},
{
origin = "{0, 24}";
target = "{0, 0}";
type = Cap;
name = _cap.top;
}
);
layerId = "F0262224-B9C7-46EB-9294-168F9DBDA589";
paths = (
{
closed = 1;
nodes = (
"808 0 LINE",
"807 35 OFFCURVE",
"810 166 OFFCURVE",
"811 308 CURVE SMOOTH",
"812 423 OFFCURVE",
"750 510 OFFCURVE",
"638 510 CURVE SMOOTH",
"562 510 OFFCURVE",
"484 460 OFFCURVE",
"455 354 CURVE SMOOTH",
"451 339 OFFCURVE",
"457 327 OFFCURVE",
"474 327 CURVE SMOOTH",
"481 327 OFFCURVE",
"482 300 OFFCURVE",
"484 318 CURVE SMOOTH",
"494 405 OFFCURVE",
"549 470 OFFCURVE",
"638 470 CURVE SMOOTH",
"727 470 OFFCURVE",
"772 401 OFFCURVE",
"771 308 CURVE SMOOTH",
"770 197 OFFCURVE",
"768 66 OFFCURVE",
"768 0 CURVE"
);
},
{
closed = 1;
nodes = (
"138 -2 OFFCURVE",
"147 7 OFFCURVE",
"147 18 CURVE SMOOTH",
"147 76 OFFCURVE",
"156 481 OFFCURVE",
"156 500 CURVE",
"116 500 LINE",
"116 480 OFFCURVE",
"107 78 OFFCURVE",
"107 18 CURVE SMOOTH",
"107 7 OFFCURVE",
"116 -2 OFFCURVE",
"127 -2 CURVE SMOOTH"
);
},
{
closed = 1;
nodes = (
"471 0 OFFCURVE",
"480 8 OFFCURVE",
"480 18 CURVE SMOOTH",
"480 51 OFFCURVE",
"482 168 OFFCURVE",
"483 308 CURVE SMOOTH",
"484 423 OFFCURVE",
"412 510 OFFCURVE",
"316 510 CURVE SMOOTH",
"240 510 OFFCURVE",
"157 460 OFFCURVE",
"123 354 CURVE SMOOTH",
"118 339 OFFCURVE",
"125 327 OFFCURVE",
"142 327 CURVE SMOOTH",
"149 327 OFFCURVE",
"150 300 OFFCURVE",
"152 318 CURVE SMOOTH",
"162 405 OFFCURVE",
"227 470 OFFCURVE",
"316 470 CURVE SMOOTH",
"390 470 OFFCURVE",
"444 401 OFFCURVE",
"443 308 CURVE SMOOTH",
"442 197 OFFCURVE",
"440 72 OFFCURVE",
"440 18 CURVE SMOOTH",
"440 8 OFFCURVE",
"448 0 OFFCURVE",
"459 0 CURVE"
);
}
);
width = 904;
},
{
hints = (
{
origin = "{1, 5}";
type = Cap;
name = _cap.top;
},
{
origin = "{0, 24}";
target = "{0, 0}";
type = Cap;
name = _cap.top;
}
);
layerId = "2E7D65B2-411D-4607-BF7C-7C0096008F1D";
paths = (
{
closed = 1;
nodes = (
"851 -10 LINE",
"851 29 OFFCURVE",
"852 214 OFFCURVE",
"854 311 CURVE SMOOTH",
"856 429 OFFCURVE",
"780 518 OFFCURVE",
"651 518 CURVE SMOOTH",
"562 518 OFFCURVE",
"493 461 OFFCURVE",
"475 384 CURVE SMOOTH",
"467 350 OFFCURVE",
"452 305 OFFCURVE",
"487 305 CURVE SMOOTH",
"509 305 OFFCURVE",
"529 290 OFFCURVE",
"529 311 CURVE SMOOTH",
"529 359 OFFCURVE",
"568 418 OFFCURVE",
"651 418 CURVE SMOOTH",
"712 418 OFFCURVE",
"756 373 OFFCURVE",
"754 313 CURVE SMOOTH",
"751 216 OFFCURVE",
"751 59 OFFCURVE",
"751 -10 CURVE"
);
},
{
closed = 1;
nodes = (
"175 -12 OFFCURVE",
"197 10 OFFCURVE",
"197 38 CURVE SMOOTH",
"197 70 OFFCURVE",
"206 485 OFFCURVE",
"206 500 CURVE",
"106 500 LINE",
"106 481 OFFCURVE",
"97 92 OFFCURVE",
"97 38 CURVE SMOOTH",
"97 10 OFFCURVE",
"119 -12 OFFCURVE",
"147 -12 CURVE SMOOTH"
);
},
{
closed = 1;
nodes = (
"505 -10 OFFCURVE",
"526 11 OFFCURVE",
"526 38 CURVE SMOOTH",
"526 88 OFFCURVE",
"527 214 OFFCURVE",
"529 311 CURVE SMOOTH",
"531 429 OFFCURVE",
"445 518 OFFCURVE",
"326 518 CURVE SMOOTH",
"237 518 OFFCURVE",
"168 467 OFFCURVE",
"150 384 CURVE SMOOTH",
"143 350 OFFCURVE",
"127 305 OFFCURVE",
"162 305 CURVE SMOOTH",
"184 305 OFFCURVE",
"202 298 OFFCURVE",
"202 319 CURVE SMOOTH",
"202 367 OFFCURVE",
"251 423 OFFCURVE",
"326 423 CURVE SMOOTH",
"388 423 OFFCURVE",
"431 373 OFFCURVE",
"429 313 CURVE SMOOTH",
"426 216 OFFCURVE",
"426 117 OFFCURVE",
"426 38 CURVE SMOOTH",
"426 11 OFFCURVE",
"448 -10 OFFCURVE",
"478 -10 CURVE SMOOTH"
);
}
);
width = 957;
}
);
leftKerningGroup = n;
leftMetricsKey = "=h";
rightKerningGroup = n;
rightMetricsKey = "=h";
unicode = 006D;
},
{
glyphname = n;
layers = (
{
components = (
{
name = nh_curve;
transform = "{1, 0, 0, 1, -2, 0}";
}
);
hints = (
{
origin = "{0, 5}";
target = "{0, 6}";
type = Cap;
name = _cap.top;
}
);
layerId = "F0262224-B9C7-46EB-9294-168F9DBDA589";
paths = (
{
closed = 1;
nodes = (
"138 -2 OFFCURVE",
"147 7 OFFCURVE",
"147 18 CURVE SMOOTH",
"147 76 OFFCURVE",
"156 481 OFFCURVE",
"156 500 CURVE",
"116 500 LINE",
"116 480 OFFCURVE",
"107 78 OFFCURVE",
"107 18 CURVE SMOOTH",
"107 7 OFFCURVE",
"116 -2 OFFCURVE",
"127 -2 CURVE SMOOTH"
);
}
);
width = 582;
},
{
components = (
{
name = nh_curve;
transform = "{1, 0, 0, 1, 18, 0}";
}
);
hints = (
{
origin = "{0, 5}";
target = "{0, 6}";
type = Cap;
name = _cap.top;
}
);
layerId = "2E7D65B2-411D-4607-BF7C-7C0096008F1D";
paths = (
{
closed = 1;
nodes = (
"175 -12 OFFCURVE",
"197 10 OFFCURVE",
"197 38 CURVE SMOOTH",
"197 70 OFFCURVE",
"206 485 OFFCURVE",
"206 500 CURVE",
"106 500 LINE",
"106 481 OFFCURVE",
"97 92 OFFCURVE",
"97 38 CURVE SMOOTH",
"97 10 OFFCURVE",
"119 -12 OFFCURVE",
"147 -12 CURVE SMOOTH"
);
}
);
width = 632;
}
);
leftKerningGroup = n;
leftMetricsKey = "=h";
rightKerningGroup = n;
rightMetricsKey = "=h";
unicode = 006E;
},
{
glyphname = o;
layers = (
{
layerId = "F0262224-B9C7-46EB-9294-168F9DBDA589";
paths = (
{
closed = 1;
nodes = (
"429 -7 OFFCURVE",
"525 104 OFFCURVE",
"525 252 CURVE SMOOTH",
"525 399 OFFCURVE",
"429 510 OFFCURVE",
"288 510 CURVE SMOOTH",
"146 510 OFFCURVE",
"50 399 OFFCURVE",
"50 252 CURVE SMOOTH",
"50 104 OFFCURVE",
"146 -7 OFFCURVE",
"288 -7 CURVE SMOOTH"
);
},
{
closed = 1;
nodes = (
"169 33 OFFCURVE",
"90 127 OFFCURVE",
"90 252 CURVE SMOOTH",
"90 377 OFFCURVE",
"169 470 OFFCURVE",
"288 470 CURVE SMOOTH",
"406 470 OFFCURVE",
"485 377 OFFCURVE",
"485 252 CURVE SMOOTH",
"485 127 OFFCURVE",
"406 33 OFFCURVE",
"288 33 CURVE SMOOTH"
);
}
);
width = 575;
},
{
layerId = "2E7D65B2-411D-4607-BF7C-7C0096008F1D";
paths = (
{
closed = 1;
nodes = (
"451 -17 OFFCURVE",
"555 98 OFFCURVE",
"555 252 CURVE SMOOTH",
"555 405 OFFCURVE",
"451 520 OFFCURVE",
"298 520 CURVE SMOOTH",
"145 520 OFFCURVE",
"40 405 OFFCURVE",
"40 252 CURVE SMOOTH",
"40 98 OFFCURVE",
"145 -17 OFFCURVE",
"298 -17 CURVE SMOOTH"
);
},
{
closed = 1;
nodes = (
"202 83 OFFCURVE",
"140 155 OFFCURVE",
"140 252 CURVE SMOOTH",
"140 348 OFFCURVE",
"202 420 OFFCURVE",
"298 420 CURVE SMOOTH",
"393 420 OFFCURVE",
"455 348 OFFCURVE",
"455 252 CURVE SMOOTH",
"455 155 OFFCURVE",
"393 83 OFFCURVE",
"298 83 CURVE SMOOTH"
);
}
);
width = 595;
}
);
leftKerningGroup = o;
rightKerningGroup = o;
unicode = 006F;
},
{
glyphname = oslash;
layers = (
{
components = (
{
name = o;
}
);
layerId = "F0262224-B9C7-46EB-9294-168F9DBDA589";
paths = (
{
closed = 1;
nodes = (
"493 508 LINE SMOOTH",
"500 518 OFFCURVE",
"498 529 OFFCURVE",
"489 536 CURVE SMOOTH",
"480 543 OFFCURVE",
"468 540 OFFCURVE",
"461 531 CURVE SMOOTH",
"81 5 LINE SMOOTH",
"74 -5 OFFCURVE",
"76 -16 OFFCURVE",
"85 -23 CURVE SMOOTH",
"94 -30 OFFCURVE",
"106 -27 OFFCURVE",
"113 -18 CURVE SMOOTH"
);
}
);
width = 575;
},
{
components = (
{
name = o;
}
);
layerId = "2E7D65B2-411D-4607-BF7C-7C0096008F1D";
paths = (
{
closed = 1;
nodes = (
"521 489 LINE SMOOTH",
"536 509 OFFCURVE",
"532 535 OFFCURVE",
"512 551 CURVE SMOOTH",
"492 567 OFFCURVE",
"464 562 OFFCURVE",
"449 541 CURVE SMOOTH",
"69 14 LINE SMOOTH",
"54 -6 OFFCURVE",
"58 -32 OFFCURVE",
"78 -48 CURVE SMOOTH",
"98 -64 OFFCURVE",
"126 -59 OFFCURVE",
"141 -38 CURVE SMOOTH"
);
}
);
width = 595;
}
);
unicode = 00F8;
},
{
glyphname = oe;
layers = (
{
layerId = "F0262224-B9C7-46EB-9294-168F9DBDA589";
paths = (
{
closed = 1;
nodes = (
"372 -7 OFFCURVE",
"465 104 OFFCURVE",
"465 252 CURVE SMOOTH",
"465 399 OFFCURVE",
"372 510 OFFCURVE",
"248 510 CURVE SMOOTH",
"135 510 OFFCURVE",
"50 399 OFFCURVE",
"50 252 CURVE SMOOTH",
"50 104 OFFCURVE",
"135 -7 OFFCURVE",
"248 -7 CURVE SMOOTH"
);
},
{
closed = 1;
nodes = (
"158 33 OFFCURVE",
"90 127 OFFCURVE",
"90 252 CURVE SMOOTH",
"90 377 OFFCURVE",
"158 470 OFFCURVE",
"248 470 CURVE SMOOTH",
"349 470 OFFCURVE",
"425 377 OFFCURVE",
"425 252 CURVE SMOOTH",
"425 127 OFFCURVE",
"349 33 OFFCURVE",
"248 33 CURVE SMOOTH"
);
},
{
closed = 1;
nodes = (
"731 -19 OFFCURVE",
"812 12 OFFCURVE",
"843 54 CURVE SMOOTH",
"846 59 OFFCURVE",
"849 65 OFFCURVE",
"849 68 CURVE SMOOTH",
"849 79 OFFCURVE",
"840 88 OFFCURVE",
"829 88 CURVE SMOOTH",
"823 88 OFFCURVE",
"816 85 OFFCURVE",
"814 82 CURVE SMOOTH",
"790 47 OFFCURVE",
"722 21 OFFCURVE",
"654 21 CURVE SMOOTH",
"548 21 OFFCURVE",
"468 113 OFFCURVE",
"468 236 CURVE SMOOTH",
"468 370 OFFCURVE",
"552 470 OFFCURVE",
"665 470 CURVE SMOOTH",
"736 470 OFFCURVE",
"790 425 OFFCURVE",
"790 365 CURVE SMOOTH",
"790 318 OFFCURVE",
"736 282 OFFCURVE",
"665 282 CURVE SMOOTH",
"585 282 OFFCURVE",
"505 316 OFFCURVE",
"478 361 CURVE",
"461 323 LINE",
"482 277 OFFCURVE",
"570 242 OFFCURVE",
"665 242 CURVE SMOOTH",
"759 242 OFFCURVE",
"830 295 OFFCURVE",
"830 365 CURVE SMOOTH",
"830 448 OFFCURVE",
"759 510 OFFCURVE",
"665 510 CURVE SMOOTH",
"527 510 OFFCURVE",
"425 394 OFFCURVE",
"428 240 CURVE SMOOTH",
"431 92 OFFCURVE",
"528 -19 OFFCURVE",
"654 -19 CURVE SMOOTH"
);
}
);
width = 899;
},
{
layerId = "2E7D65B2-411D-4607-BF7C-7C0096008F1D";
paths = (
{
closed = 1;
nodes = (
"382 -17 OFFCURVE",
"475 98 OFFCURVE",
"475 252 CURVE SMOOTH",
"475 405 OFFCURVE",
"382 520 OFFCURVE",
"258 520 CURVE SMOOTH",
"133 520 OFFCURVE",
"40 405 OFFCURVE",
"40 252 CURVE SMOOTH",
"40 98 OFFCURVE",
"133 -17 OFFCURVE",
"258 -17 CURVE SMOOTH"
);
},
{
closed = 1;
nodes = (
"191 83 OFFCURVE",
"140 155 OFFCURVE",
"140 252 CURVE SMOOTH",
"140 348 OFFCURVE",
"191 420 OFFCURVE",
"258 420 CURVE SMOOTH",
"325 420 OFFCURVE",
"375 348 OFFCURVE",
"375 252 CURVE SMOOTH",
"375 155 OFFCURVE",
"325 83 OFFCURVE",
"258 83 CURVE SMOOTH"
);
},
{
closed = 1;
nodes = (
"668 -19 OFFCURVE",
"744 15 OFFCURVE",
"790 61 CURVE SMOOTH",
"797 68 OFFCURVE",
"802 85 OFFCURVE",
"802 100 CURVE SMOOTH",
"802 124 OFFCURVE",
"781 142 OFFCURVE",
"752 142 CURVE SMOOTH",
"742 142 OFFCURVE",
"725 134 OFFCURVE",
"713 124 CURVE SMOOTH",
"684 99 OFFCURVE",
"641 81 OFFCURVE",
"611 81 CURVE SMOOTH",
"539 81 OFFCURVE",
"475 145 OFFCURVE",
"475 231 CURVE SMOOTH",
"475 339 OFFCURVE",
"536 420 OFFCURVE",
"604 420 CURVE SMOOTH",
"657 420 OFFCURVE",
"697 393 OFFCURVE",
"697 356 CURVE SMOOTH",
"697 325 OFFCURVE",
"659 302 OFFCURVE",
"609 302 CURVE SMOOTH",
"564 302 OFFCURVE",
"506 324 OFFCURVE",
"475 353 CURVE",
"421 311 LINE",
"453 253 OFFCURVE",
"539 209 OFFCURVE",
"609 209 CURVE SMOOTH",
"716 209 OFFCURVE",
"797 272 OFFCURVE",
"797 356 CURVE SMOOTH",
"797 450 OFFCURVE",
"714 520 OFFCURVE",
"604 520 CURVE SMOOTH",
"479 520 OFFCURVE",
"375 398 OFFCURVE",
"375 235 CURVE SMOOTH",
"375 90 OFFCURVE",
"482 -19 OFFCURVE",
"611 -19 CURVE SMOOTH"
);
}
);
width = 842;
}
);
leftMetricsKey = "=o";
rightMetricsKey = "=e";
unicode = 0153;
},
{
glyphname = p;
layers = (
{
components = (
{
name = bp_curve;
}
);
hints = (
{
origin = "{0, 5}";
target = "{0, 6}";
type = Cap;
name = _cap.top;
}
);
layerId = "F0262224-B9C7-46EB-9294-168F9DBDA589";
paths = (
{
closed = 1;
nodes = (
"138 -279 OFFCURVE",
"147 -270 OFFCURVE",
"147 -259 CURVE SMOOTH",
"147 -202 OFFCURVE",
"156 480 OFFCURVE",
"156 500 CURVE",
"116 500 LINE",
"117 480 OFFCURVE",
"107 -199 OFFCURVE",
"107 -259 CURVE SMOOTH",
"107 -270 OFFCURVE",
"116 -279 OFFCURVE",
"127 -279 CURVE SMOOTH"
);
}
);
width = 649;
},
{
components = (
{
name = bp_curve;
transform = "{1, 0, 0, 1, 10, 0}";
}
);
hints = (
{
origin = "{0, 5}";
target = "{0, 6}";
type = Cap;
name = _cap.top;
}
);
layerId = "2E7D65B2-411D-4607-BF7C-7C0096008F1D";
paths = (
{
closed = 1;
nodes = (
"175 -309 OFFCURVE",
"197 -287 OFFCURVE",
"197 -259 CURVE SMOOTH",
"197 -225 OFFCURVE",
"206 452 OFFCURVE",
"206 500 CURVE",
"106 499 LINE",
"106 457 OFFCURVE",
"97 -235 OFFCURVE",
"97 -259 CURVE SMOOTH",
"97 -287 OFFCURVE",
"119 -309 OFFCURVE",
"147 -309 CURVE SMOOTH"
);
}
);
width = 669;
}
);
leftKerningGroup = n;
leftMetricsKey = "=h";
rightKerningGroup = o;
rightMetricsKey = "=o";
unicode = 0070;
},
{
glyphname = thorn;
layers = (
{
components = (
{
name = bp_curve;
transform = "{1, 0, 0, 1, -47, 0}";
}
);
layerId = "F0262224-B9C7-46EB-9294-168F9DBDA589";
paths = (
{
closed = 1;
nodes = (
"91 -279 OFFCURVE",
"100 -270 OFFCURVE",
"100 -259 CURVE SMOOTH",
"100 -207 OFFCURVE",
"109 589 OFFCURVE",
"109 767 CURVE SMOOTH",
"109 785 OFFCURVE",
"100 798 OFFCURVE",
"89 798 CURVE SMOOTH",
"78 798 OFFCURVE",
"69 785 OFFCURVE",
"69 767 CURVE SMOOTH",
"69 590 OFFCURVE",
"60 -205 OFFCURVE",
"60 -259 CURVE SMOOTH",
"60 -270 OFFCURVE",
"69 -279 OFFCURVE",
"80 -279 CURVE SMOOTH"
);
}
);
width = 602;
},
{
components = (
{
name = bp_curve;
transform = "{1, 0, 0, 1, -37, 0}";
}
);
layerId = "2E7D65B2-411D-4607-BF7C-7C0096008F1D";
paths = (
{
closed = 1;
nodes = (
"128 -309 OFFCURVE",
"150 -287 OFFCURVE",
"150 -259 CURVE SMOOTH",
"150 -229 OFFCURVE",
"159 554 OFFCURVE",
"159 767 CURVE SMOOTH",
"159 798 OFFCURVE",
"137 820 OFFCURVE",
"109 819 CURVE SMOOTH",
"80 818 OFFCURVE",
"59 798 OFFCURVE",
"59 769 CURVE SMOOTH",
"59 560 OFFCURVE",
"50 -238 OFFCURVE",
"50 -259 CURVE SMOOTH",
"50 -287 OFFCURVE",
"72 -309 OFFCURVE",
"100 -309 CURVE SMOOTH"
);
}
);
width = 622;
}
);
leftMetricsKey = "=h";
rightMetricsKey = "=o";
unicode = 00FE;
},
{
glyphname = q;
layers = (
{
components = (
{
name = bp_curve;
transform = "{-1, 0, 0, 1, 649, 0}";
}
);
layerId = "F0262224-B9C7-46EB-9294-168F9DBDA589";
paths = (
{
closed = 1;
nodes = (
"519 -279 OFFCURVE",
"528 -270 OFFCURVE",
"528 -259 CURVE SMOOTH",
"528 -202 OFFCURVE",
"536 454 OFFCURVE",
"536 478 CURVE SMOOTH",
"536 491 OFFCURVE",
"527 500 OFFCURVE",
"516 500 CURVE",
"505 500 OFFCURVE",
"496 491 OFFCURVE",
"496 478 CURVE SMOOTH",
"496 454 OFFCURVE",
"488 -199 OFFCURVE",
"488 -259 CURVE SMOOTH",
"488 -270 OFFCURVE",
"497 -279 OFFCURVE",
"508 -279 CURVE SMOOTH"
);
}
);
width = 617;
},
{
components = (
{
name = bp_curve;
transform = "{-1, 0, 0, 1, 659, 0}";
}
);
layerId = "2E7D65B2-411D-4607-BF7C-7C0096008F1D";
paths = (
{
closed = 1;
nodes = (
"540 -309 OFFCURVE",
"562 -287 OFFCURVE",
"562 -259 CURVE SMOOTH",
"562 -226 OFFCURVE",
"571 403 OFFCURVE",
"571 459 CURVE SMOOTH",
"571 491 OFFCURVE",
"549 519 OFFCURVE",
"519 519 CURVE SMOOTH",
"492 519 OFFCURVE",
"471 491 OFFCURVE",
"471 467 CURVE SMOOTH",
"471 420 OFFCURVE",
"462 -235 OFFCURVE",
"462 -259 CURVE SMOOTH",
"462 -287 OFFCURVE",
"484 -309 OFFCURVE",
"512 -309 CURVE SMOOTH"
);
}
);
width = 651;
}
);
leftKerningGroup = o;
leftMetricsKey = "=o";
unicode = 0071;
},
{
glyphname = r;
layers = (
{
layerId = "F0262224-B9C7-46EB-9294-168F9DBDA589";
paths = (
{
closed = 1;
nodes = (
"369 319 OFFCURVE",
"404 357 OFFCURVE",
"404 402 CURVE SMOOTH",
"404 462 OFFCURVE",
"352 502 OFFCURVE",
"291 502 CURVE SMOOTH",
"239 502 OFFCURVE",
"147 500 OFFCURVE",
"78 500 CURVE",
"130 462 LINE",
"174 462 OFFCURVE",
"240 462 OFFCURVE",
"291 462 CURVE SMOOTH",
"330 462 OFFCURVE",
"364 440 OFFCURVE",
"364 402 CURVE SMOOTH",
"364 374 OFFCURVE",
"338 349 OFFCURVE",
"314 339 CURVE SMOOTH",
"307 336 OFFCURVE",
"301 329 OFFCURVE",
"301 320 CURVE SMOOTH",
"301 306 OFFCURVE",
"317 297 OFFCURVE",
"329 302 CURVE SMOOTH"
);
},
{
closed = 1;
nodes = (
"138 -12 OFFCURVE",
"147 -3 OFFCURVE",
"147 8 CURVE SMOOTH",
"147 65 OFFCURVE",
"156 379 OFFCURVE",
"156 399 CURVE SMOOTH",
"156 454 OFFCURVE",
"124 500 OFFCURVE",
"78 500 CURVE SMOOTH",
"68 500 OFFCURVE",
"60 491 OFFCURVE",
"60 480 CURVE SMOOTH",
"60 468 OFFCURVE",
"72 464 OFFCURVE",
"83 460 CURVE SMOOTH",
"100 454 OFFCURVE",
"116 428 OFFCURVE",
"116 397 CURVE SMOOTH",
"116 379 OFFCURVE",
"107 68 OFFCURVE",
"107 8 CURVE SMOOTH",
"107 -3 OFFCURVE",
"116 -12 OFFCURVE",
"127 -12 CURVE SMOOTH"
);
}
);
width = 444;
},
{
layerId = "2E7D65B2-411D-4607-BF7C-7C0096008F1D";
paths = (
{
closed = 1;
nodes = (
"417 277 OFFCURVE",
"454 329 OFFCURVE",
"454 382 CURVE SMOOTH",
"454 456 OFFCURVE",
"392 512 OFFCURVE",
"311 512 CURVE SMOOTH",
"287 512 OFFCURVE",
"131 510 OFFCURVE",
"98 510 CURVE",
"140 422 LINE",
"185 422 OFFCURVE",
"255 422 OFFCURVE",
"311 422 CURVE SMOOTH",
"337 422 OFFCURVE",
"354 399 OFFCURVE",
"354 382 CURVE SMOOTH",
"354 370 OFFCURVE",
"340 354 OFFCURVE",
"322 347 CURVE SMOOTH",
"303 340 OFFCURVE",
"291 320 OFFCURVE",
"291 300 CURVE SMOOTH",
"291 264 OFFCURVE",
"329 241 OFFCURVE",
"361 254 CURVE SMOOTH"
);
},
{
closed = 1;
nodes = (
"175 -19 OFFCURVE",
"197 3 OFFCURVE",
"197 31 CURVE SMOOTH",
"197 66 OFFCURVE",
"204 247 OFFCURVE",
"206 329 CURVE SMOOTH",
"208 403 OFFCURVE",
"159 510 OFFCURVE",
"98 510 CURVE SMOOTH",
"71 510 OFFCURVE",
"50 488 OFFCURVE",
"50 460 CURVE SMOOTH",
"50 434 OFFCURVE",
"73 432 OFFCURVE",
"93 412 CURVE SMOOTH",
"102 403 OFFCURVE",
"106 366 OFFCURVE",
"106 340 CURVE SMOOTH",
"106 295 OFFCURVE",
"97 82 OFFCURVE",
"97 31 CURVE SMOOTH",
"97 3 OFFCURVE",
"119 -19 OFFCURVE",
"147 -19 CURVE SMOOTH"
);
}
);
width = 504;
}
);
leftKerningGroup = n;
leftMetricsKey = "=h";
unicode = 0072;
},
{
glyphname = s;
layers = (
{
layerId = "F0262224-B9C7-46EB-9294-168F9DBDA589";
paths = (
{
closed = 1;
nodes = (
"366 -7 OFFCURVE",
"435 39 OFFCURVE",
"435 117 CURVE SMOOTH",
"435 194 OFFCURVE",
"393 235 OFFCURVE",
"270 275 CURVE SMOOTH",
"208 295 OFFCURVE",
"122 322 OFFCURVE",
"122 386 CURVE SMOOTH",
"122 436 OFFCURVE",
"179 473 OFFCURVE",
"256 473 CURVE SMOOTH",
"323 473 OFFCURVE",
"380 439 OFFCURVE",
"400 393 CURVE SMOOTH",
"403 386 OFFCURVE",
"411 381 OFFCURVE",
"419 381 CURVE SMOOTH",
"434 381 OFFCURVE",
"442 396 OFFCURVE",
"437 409 CURVE SMOOTH",
"414 468 OFFCURVE",
"341 513 OFFCURVE",
"256 513 CURVE SMOOTH",
"161 513 OFFCURVE",
"82 459 OFFCURVE",
"82 386 CURVE SMOOTH",
"82 292 OFFCURVE",
"192 261 OFFCURVE",
"252 239 CURVE SMOOTH",
"358 200 OFFCURVE",
"395 169 OFFCURVE",
"395 117 CURVE SMOOTH",
"395 64 OFFCURVE",
"341 33 OFFCURVE",
"250 33 CURVE SMOOTH",
"187 33 OFFCURVE",
"111 69 OFFCURVE",
"87 117 CURVE SMOOTH",
"84 123 OFFCURVE",
"77 127 OFFCURVE",
"70 127 CURVE SMOOTH",
"59 127 OFFCURVE",
"50 118 OFFCURVE",
"50 107 CURVE SMOOTH",
"50 103 OFFCURVE",
"51 100 OFFCURVE",
"53 97 CURVE SMOOTH",
"93 38 OFFCURVE",
"183 -7 OFFCURVE",
"250 -7 CURVE SMOOTH"
);
}
);
width = 488;
},
{
layerId = "2E7D65B2-411D-4607-BF7C-7C0096008F1D";
paths = (
{
closed = 1;
nodes = (
"395 -17 OFFCURVE",
"475 41 OFFCURVE",
"475 132 CURVE SMOOTH",
"475 234 OFFCURVE",
"388 270 OFFCURVE",
"283 302 CURVE SMOOTH",
"210 324 OFFCURVE",
"162 331 OFFCURVE",
"162 366 CURVE SMOOTH",
"162 395 OFFCURVE",
"200 423 OFFCURVE",
"258 423 CURVE SMOOTH",
"319 423 OFFCURVE",
"349 402 OFFCURVE",
"372 361 CURVE SMOOTH",
"381 344 OFFCURVE",
"399 331 OFFCURVE",
"419 331 CURVE SMOOTH",
"457 331 OFFCURVE",
"480 371 OFFCURVE",
"463 405 CURVE SMOOTH",
"428 475 OFFCURVE",
"361 523 OFFCURVE",
"258 523 CURVE SMOOTH",
"150 523 OFFCURVE",
"62 454 OFFCURVE",
"62 366 CURVE SMOOTH",
"62 250 OFFCURVE",
"200 225 OFFCURVE",
"259 207 CURVE SMOOTH",
"342 182 OFFCURVE",
"375 166 OFFCURVE",
"375 132 CURVE SMOOTH",
"375 105 OFFCURVE",
"353 83 OFFCURVE",
"271 83 CURVE SMOOTH",
"220 83 OFFCURVE",
"165 106 OFFCURVE",
"133 151 CURVE SMOOTH",
"122 166 OFFCURVE",
"108 177 OFFCURVE",
"90 177 CURVE SMOOTH",
"62 177 OFFCURVE",
"40 155 OFFCURVE",
"40 127 CURVE SMOOTH",
"40 119 OFFCURVE",
"43 109 OFFCURVE",
"47 101 CURVE SMOOTH",
"83 29 OFFCURVE",
"176 -17 OFFCURVE",
"260 -17 CURVE SMOOTH"
);
}
);
width = 515;
},
{
associatedMasterId = "2E7D65B2-411D-4607-BF7C-7C0096008F1D";
layerId = "C1B64C04-91E2-410E-90A7-837A2AD3A22D";
name = "Sep 23 19, 21:40";
paths = (
{
closed = 1;
nodes = (
"121 -3 OFFCURVE",
"210 -20 OFFCURVE",
"262 -20 CURVE SMOOTH",
"398 -20 OFFCURVE",
"482 24 OFFCURVE",
"482 95 CURVE SMOOTH",
"482 150 OFFCURVE",
"424 173 OFFCURVE",
"294 229 CURVE SMOOTH",
"225 259 OFFCURVE",
"152 288 OFFCURVE",
"152 344 CURVE SMOOTH",
"152 391 OFFCURVE",
"212 423 OFFCURVE",
"268 423 CURVE SMOOTH",
"342 423 OFFCURVE",
"393 391 OFFCURVE",
"387 335 CURVE SMOOTH",
"384 305 OFFCURVE",
"408 281 OFFCURVE",
"439 281 CURVE SMOOTH",
"465 281 OFFCURVE",
"487 301 OFFCURVE",
"490 327 CURVE SMOOTH",
"503 442 OFFCURVE",
"402 523 OFFCURVE",
"268 523 CURVE SMOOTH",
"157 523 OFFCURVE",
"50 441 OFFCURVE",
"50 344 CURVE SMOOTH",
"50 250 OFFCURVE",
"123 211 OFFCURVE",
"258 150 CURVE SMOOTH",
"322 121 OFFCURVE",
"379 111 OFFCURVE",
"379 92 CURVE SMOOTH",
"379 73 OFFCURVE",
"328 67 OFFCURVE",
"268 67 CURVE SMOOTH",
"225 67 OFFCURVE",
"157 87 OFFCURVE",
"132 98 CURVE SMOOTH",
"125 101 OFFCURVE",
"114 105 OFFCURVE",
"105 105 CURVE SMOOTH",
"77 105 OFFCURVE",
"54 89 OFFCURVE",
"54 61 CURVE SMOOTH",
"54 43 OFFCURVE",
"63 26 OFFCURVE",
"83 16 CURVE SMOOTH"
);
}
);
width = 511;
},
{
associatedMasterId = "F0262224-B9C7-46EB-9294-168F9DBDA589";
layerId = "D63430B0-7209-402A-BA3B-18DE8FE369C9";
name = "Sep 23 19, 21:40";
paths = (
{
closed = 1;
nodes = (
"112 -6 OFFCURVE",
"198 -20 OFFCURVE",
"238 -20 CURVE SMOOTH",
"344 -20 OFFCURVE",
"418 13 OFFCURVE",
"418 64 CURVE SMOOTH",
"418 112 OFFCURVE",
"379 132 OFFCURVE",
"267 195 CURVE SMOOTH",
"173 249 OFFCURVE",
"108 295 OFFCURVE",
"108 374 CURVE SMOOTH",
"108 435 OFFCURVE",
"175 483 OFFCURVE",
"244 483 CURVE SMOOTH",
"325 483 OFFCURVE",
"390 445 OFFCURVE",
"383 362 CURVE SMOOTH",
"382 350 OFFCURVE",
"392 341 OFFCURVE",
"405 341 CURVE SMOOTH",
"416 341 OFFCURVE",
"425 349 OFFCURVE",
"426 360 CURVE SMOOTH",
"436 466 OFFCURVE",
"349 523 OFFCURVE",
"244 523 CURVE SMOOTH",
"153 523 OFFCURVE",
"66 457 OFFCURVE",
"66 374 CURVE SMOOTH",
"66 279 OFFCURVE",
"139 222 OFFCURVE",
"246 161 CURVE SMOOTH",
"343 106 OFFCURVE",
"376 93 OFFCURVE",
"376 64 CURVE SMOOTH",
"376 42 OFFCURVE",
"316 20 OFFCURVE",
"238 20 CURVE SMOOTH",
"203 20 OFFCURVE",
"117 31 OFFCURVE",
"91 48 CURVE SMOOTH",
"88 50 OFFCURVE",
"84 50 OFFCURVE",
"81 50 CURVE SMOOTH",
"70 50 OFFCURVE",
"60 42 OFFCURVE",
"60 31 CURVE SMOOTH",
"60 23 OFFCURVE",
"66 16 OFFCURVE",
"72 13 CURVE SMOOTH"
);
}
);
width = 487;
}
);
leftKerningGroup = o;
leftMetricsKey = "=o";
rightKerningGroup = o;
rightMetricsKey = "=o";
unicode = 0073;
},
{
glyphname = germandbls;
layers = (
{
layerId = "F0262224-B9C7-46EB-9294-168F9DBDA589";
paths = (
{
closed = 1;
nodes = (
"60 8 OFFCURVE",
"69 -1 OFFCURVE",
"80 -1 CURVE SMOOTH",
"91 -1 OFFCURVE",
"100 8 OFFCURVE",
"100 19 CURVE SMOOTH",
"100 584 LINE SMOOTH",
"100 761 OFFCURVE",
"163 835 OFFCURVE",
"251 835 CURVE SMOOTH",
"339 835 OFFCURVE",
"401 773 OFFCURVE",
"401 671 CURVE SMOOTH",
"401 574 OFFCURVE",
"333 469 OFFCURVE",
"241 460 CURVE SMOOTH",
"231 459 OFFCURVE",
"223 450 OFFCURVE",
"223 439 CURVE SMOOTH",
"223 428 OFFCURVE",
"233 420 OFFCURVE",
"244 420 CURVE SMOOTH",
"377 420 OFFCURVE",
"459 322 OFFCURVE",
"459 218 CURVE SMOOTH",
"459 105 OFFCURVE",
"371 27 OFFCURVE",
"221 27 CURVE SMOOTH",
"210 27 OFFCURVE",
"202 18 OFFCURVE",
"202 7 CURVE SMOOTH",
"202 -4 OFFCURVE",
"212 -13 OFFCURVE",
"223 -13 CURVE SMOOTH",
"394 -13 OFFCURVE",
"499 81 OFFCURVE",
"499 218 CURVE SMOOTH",
"499 324 OFFCURVE",
"435 415 OFFCURVE",
"325 440 CURVE",
"300 443 OFFCURVE",
"283 444 OFFCURVE",
"283 438 CURVE SMOOTH",
"283 434 OFFCURVE",
"302 438 OFFCURVE",
"325 444 CURVE",
"395 481 OFFCURVE",
"441 585 OFFCURVE",
"441 671 CURVE SMOOTH",
"441 795 OFFCURVE",
"361 875 OFFCURVE",
"251 875 CURVE SMOOTH",
"139 875 OFFCURVE",
"60 783 OFFCURVE",
"60 584 CURVE SMOOTH",
"60 19 LINE SMOOTH"
);
}
);
width = 549;
},
{
layerId = "2E7D65B2-411D-4607-BF7C-7C0096008F1D";
paths = (
{
closed = 1;
nodes = (
"50 11 OFFCURVE",
"72 -11 OFFCURVE",
"100 -11 CURVE SMOOTH",
"128 -11 OFFCURVE",
"150 11 OFFCURVE",
"150 39 CURVE SMOOTH",
"150 614 LINE SMOOTH",
"150 725 OFFCURVE",
"191 785 OFFCURVE",
"261 785 CURVE SMOOTH",
"331 785 OFFCURVE",
"391 737 OFFCURVE",
"391 651 CURVE SMOOTH",
"391 570 OFFCURVE",
"336 486 OFFCURVE",
"258 480 CURVE SMOOTH",
"232 478 OFFCURVE",
"213 455 OFFCURVE",
"213 429 CURVE SMOOTH",
"213 402 OFFCURVE",
"236 381 OFFCURVE",
"263 380 CURVE SMOOTH",
"379 376 OFFCURVE",
"449 306 OFFCURVE",
"449 218 CURVE SMOOTH",
"449 122 OFFCURVE",
"373 82 OFFCURVE",
"240 77 CURVE SMOOTH",
"213 76 OFFCURVE",
"192 54 OFFCURVE",
"192 27 CURVE SMOOTH",
"192 -2 OFFCURVE",
"217 -25 OFFCURVE",
"247 -23 CURVE SMOOTH",
"432 -11 OFFCURVE",
"549 65 OFFCURVE",
"549 218 CURVE SMOOTH",
"549 337 OFFCURVE",
"494 408 OFFCURVE",
"381 434 CURVE",
"338 434 OFFCURVE",
"273 466 OFFCURVE",
"273 428 CURVE SMOOTH",
"273 385 OFFCURVE",
"339 426 OFFCURVE",
"381 437 CURVE",
"464 479 OFFCURVE",
"491 555 OFFCURVE",
"491 651 CURVE SMOOTH",
"491 792 OFFCURVE",
"388 885 OFFCURVE",
"261 885 CURVE SMOOTH",
"131 885 OFFCURVE",
"50 779 OFFCURVE",
"50 614 CURVE SMOOTH",
"50 39 LINE SMOOTH"
);
}
);
width = 589;
}
);
leftMetricsKey = "=h";
rightMetricsKey = "=o";
unicode = 00DF;
},
{
glyphname = t;
layers = (
{
layerId = "F0262224-B9C7-46EB-9294-168F9DBDA589";
paths = (
{
closed = 1;
nodes = (
"250 0 OFFCURVE",
"262 5 OFFCURVE",
"262 20 CURVE SMOOTH",
"262 32 OFFCURVE",
"254 42 OFFCURVE",
"240 45 CURVE SMOOTH",
"212 52 OFFCURVE",
"176 65 OFFCURVE",
"176 123 CURVE SMOOTH",
"174 682 LINE SMOOTH",
"174 693 OFFCURVE",
"165 702 OFFCURVE",
"154 702 CURVE SMOOTH",
"143 702 OFFCURVE",
"134 693 OFFCURVE",
"134 682 CURVE SMOOTH",
"136 105 LINE SMOOTH",
"136 36 OFFCURVE",
"195 0 OFFCURVE",
"240 0 CURVE SMOOTH"
);
},
{
closed = 1;
nodes = (
"293 460 LINE SMOOTH",
"304 460 OFFCURVE",
"313 469 OFFCURVE",
"313 480 CURVE SMOOTH",
"313 491 OFFCURVE",
"304 500 OFFCURVE",
"293 500 CURVE SMOOTH",
"70 500 LINE SMOOTH",
"59 500 OFFCURVE",
"50 491 OFFCURVE",
"50 480 CURVE SMOOTH",
"50 469 OFFCURVE",
"59 460 OFFCURVE",
"70 460 CURVE SMOOTH"
);
}
);
width = 353;
},
{
layerId = "2E7D65B2-411D-4607-BF7C-7C0096008F1D";
paths = (
{
closed = 1;
nodes = (
"315 -10 OFFCURVE",
"341 9 OFFCURVE",
"341 35 CURVE SMOOTH",
"341 65 OFFCURVE",
"314 84 OFFCURVE",
"298 87 CURVE SMOOTH",
"251 96 OFFCURVE",
"225 119 OFFCURVE",
"225 175 CURVE SMOOTH",
"224 662 LINE SMOOTH",
"224 690 OFFCURVE",
"202 712 OFFCURVE",
"174 712 CURVE SMOOTH",
"146 712 OFFCURVE",
"124 690 OFFCURVE",
"124 662 CURVE SMOOTH",
"125 175 LINE SMOOTH",
"125 43 OFFCURVE",
"186 -10 OFFCURVE",
"289 -10 CURVE SMOOTH"
);
},
{
closed = 1;
nodes = (
"313 410 LINE SMOOTH",
"341 410 OFFCURVE",
"363 432 OFFCURVE",
"363 460 CURVE SMOOTH",
"363 488 OFFCURVE",
"341 510 OFFCURVE",
"313 510 CURVE SMOOTH",
"90 510 LINE SMOOTH",
"62 510 OFFCURVE",
"40 488 OFFCURVE",
"40 460 CURVE SMOOTH",
"40 432 OFFCURVE",
"62 410 OFFCURVE",
"90 410 CURVE SMOOTH"
);
}
);
width = 403;
}
);
unicode = 0074;
},
{
glyphname = u;
layers = (
{
hints = (
{
origin = "{1, 7}";
target = "{1, 8}";
type = Cap;
name = _cap.top;
},
{
origin = "{0, 12}";
target = "{0, 13}";
type = Cap;
name = _cap.top;
}
);
layerId = "F0262224-B9C7-46EB-9294-168F9DBDA589";
paths = (
{
closed = 1;
nodes = (
"405 -9 OFFCURVE",
"467 108 OFFCURVE",
"475 179 CURVE",
"453 214 LINE",
"454 132 OFFCURVE",
"361 31 OFFCURVE",
"276 31 CURVE SMOOTH",
"207 31 OFFCURVE",
"154 83 OFFCURVE",
"153 159 CURVE SMOOTH",
"152 243 OFFCURVE",
"156 359 OFFCURVE",
"156 500 CURVE",
"116 500 LINE",
"116 359 OFFCURVE",
"112 243 OFFCURVE",
"113 159 CURVE SMOOTH",
"114 60 OFFCURVE",
"184 -9 OFFCURVE",
"276 -9 CURVE SMOOTH"
);
},
{
closed = 1;
nodes = (
"497 483 LINE SMOOTH",
"497 494 OFFCURVE",
"488 503 OFFCURVE",
"477 503 CURVE SMOOTH",
"466 503 OFFCURVE",
"457 495 OFFCURVE",
"457 484 CURVE SMOOTH",
"449 2 LINE",
"489 1 LINE"
);
}
);
width = 585;
},
{
hints = (
{
origin = "{1, 7}";
type = Cap;
name = _cap.top;
},
{
origin = "{0, 12}";
target = "{0, 13}";
type = Cap;
name = _cap.top;
}
);
layerId = "2E7D65B2-411D-4607-BF7C-7C0096008F1D";
paths = (
{
closed = 1;
nodes = (
"399 -14 OFFCURVE",
"497 70 OFFCURVE",
"506 200 CURVE",
"423 214 LINE",
"424 141 OFFCURVE",
"346 86 OFFCURVE",
"296 86 CURVE SMOOTH",
"244 86 OFFCURVE",
"204 130 OFFCURVE",
"203 189 CURVE SMOOTH",
"202 232 OFFCURVE",
"206 418 OFFCURVE",
"206 500 CURVE",
"106 500 LINE",
"106 419 OFFCURVE",
"102 232 OFFCURVE",
"103 189 CURVE SMOOTH",
"106 74 OFFCURVE",
"187 -14 OFFCURVE",
"296 -14 CURVE SMOOTH"
);
},
{
closed = 1;
nodes = (
"527 470 LINE SMOOTH",
"528 498 OFFCURVE",
"505 520 OFFCURVE",
"477 520 CURVE SMOOTH",
"449 520 OFFCURVE",
"427 499 OFFCURVE",
"427 471 CURVE SMOOTH",
"419 3 LINE",
"518 0 LINE"
);
}
);
width = 626;
}
);
leftKerningGroup = n;
leftMetricsKey = "=h";
rightKerningGroup = n;
rightMetricsKey = "=h";
unicode = 0075;
},
{
glyphname = v;
layers = (
{
layerId = "F0262224-B9C7-46EB-9294-168F9DBDA589";
paths = (
{
closed = 1;
nodes = (
"511 477 LINE SMOOTH",
"517 490 OFFCURVE",
"507 505 OFFCURVE",
"493 505 CURVE SMOOTH",
"485 505 OFFCURVE",
"478 500 OFFCURVE",
"475 493 CURVE SMOOTH",
"272 38 LINE",
"292 38 LINE",
"88 492 LINE SMOOTH",
"85 499 OFFCURVE",
"78 504 OFFCURVE",
"70 504 CURVE SMOOTH",
"56 504 OFFCURVE",
"46 489 OFFCURVE",
"52 476 CURVE SMOOTH",
"264 6 LINE SMOOTH",
"273 -14 OFFCURVE",
"287 -14 OFFCURVE",
"296 5 CURVE SMOOTH"
);
}
);
width = 563;
},
{
layerId = "2E7D65B2-411D-4607-BF7C-7C0096008F1D";
paths = (
{
closed = 1;
nodes = (
"551 445 LINE SMOOTH",
"567 478 OFFCURVE",
"542 516 OFFCURVE",
"506 516 CURVE SMOOTH",
"486 516 OFFCURVE",
"469 504 OFFCURVE",
"461 486 CURVE SMOOTH",
"269 54 LINE",
"328 46 LINE",
"135 486 LINE SMOOTH",
"127 504 OFFCURVE",
"110 516 OFFCURVE",
"90 516 CURVE SMOOTH",
"54 516 OFFCURVE",
"30 478 OFFCURVE",
"45 446 CURVE SMOOTH",
"250 -6 LINE SMOOTH",
"270 -50 OFFCURVE",
"316 -50 OFFCURVE",
"336 -8 CURVE SMOOTH"
);
}
);
width = 596;
}
);
leftKerningGroup = v;
rightKerningGroup = v;
rightMetricsKey = "=|";
unicode = 0076;
},
{
glyphname = w;
layers = (
{
layerId = "F0262224-B9C7-46EB-9294-168F9DBDA589";
paths = (
{
closed = 1;
nodes = (
"760 477 LINE SMOOTH",
"765 490 OFFCURVE",
"756 505 OFFCURVE",
"742 505 CURVE SMOOTH",
"734 505 OFFCURVE",
"727 500 OFFCURVE",
"724 493 CURVE SMOOTH",
"541 38 LINE",
"561 38 LINE",
"344 476 LINE SMOOTH",
"341 483 OFFCURVE",
"334 488 OFFCURVE",
"326 488 CURVE SMOOTH",
"312 488 OFFCURVE",
"302 473 OFFCURVE",
"308 460 CURVE SMOOTH",
"533 6 LINE SMOOTH",
"543 -14 OFFCURVE",
"557 -14 OFFCURVE",
"565 5 CURVE SMOOTH"
);
},
{
closed = 1;
nodes = (
"417 272 LINE",
"398 309 LINE",
"251 38 LINE",
"271 38 LINE",
"87 492 LINE SMOOTH",
"84 499 OFFCURVE",
"77 504 OFFCURVE",
"69 504 CURVE SMOOTH",
"55 504 OFFCURVE",
"46 489 OFFCURVE",
"51 476 CURVE SMOOTH",
"243 6 LINE SMOOTH",
"251 -14 OFFCURVE",
"265 -14 OFFCURVE",
"275 5 CURVE SMOOTH"
);
}
);
width = 811;
},
{
layerId = "2E7D65B2-411D-4607-BF7C-7C0096008F1D";
paths = (
{
closed = 1;
nodes = (
"791 442 LINE SMOOTH",
"806 475 OFFCURVE",
"782 513 OFFCURVE",
"746 513 CURVE SMOOTH",
"726 513 OFFCURVE",
"709 501 OFFCURVE",
"701 483 CURVE SMOOTH",
"529 82 LINE",
"599 79 LINE",
"408 482 LINE SMOOTH",
"400 500 OFFCURVE",
"383 512 OFFCURVE",
"363 512 CURVE SMOOTH",
"327 512 OFFCURVE",
"303 473 OFFCURVE",
"318 442 CURVE SMOOTH",
"520 22 LINE SMOOTH",
"541 -22 OFFCURVE",
"587 -23 OFFCURVE",
"606 20 CURVE SMOOTH"
);
},
{
closed = 1;
nodes = (
"442 265 LINE",
"382 383 LINE",
"236 69 LINE",
"306 69 LINE",
"134 482 LINE SMOOTH",
"126 500 OFFCURVE",
"109 512 OFFCURVE",
"89 512 CURVE SMOOTH",
"53 512 OFFCURVE",
"30 473 OFFCURVE",
"44 442 CURVE SMOOTH",
"226 22 LINE SMOOTH",
"245 -22 OFFCURVE",
"287 -26 OFFCURVE",
"312 20 CURVE SMOOTH"
);
}
);
width = 836;
}
);
leftKerningGroup = v;
leftMetricsKey = "=v";
rightKerningGroup = v;
rightMetricsKey = "=|";
unicode = 0077;
},
{
glyphname = x;
layers = (
{
layerId = "F0262224-B9C7-46EB-9294-168F9DBDA589";
paths = (
{
closed = 1;
nodes = (
"76 -4 OFFCURVE",
"82 -1 OFFCURVE",
"86 4 CURVE SMOOTH",
"465 474 LINE SMOOTH",
"467 477 OFFCURVE",
"469 481 OFFCURVE",
"469 486 CURVE SMOOTH",
"469 497 OFFCURVE",
"460 506 OFFCURVE",
"449 506 CURVE SMOOTH",
"443 506 OFFCURVE",
"437 503 OFFCURVE",
"433 498 CURVE SMOOTH",
"54 28 LINE SMOOTH",
"52 25 OFFCURVE",
"50 21 OFFCURVE",
"50 16 CURVE SMOOTH",
"50 5 OFFCURVE",
"59 -4 OFFCURVE",
"70 -4 CURVE SMOOTH"
);
},
{
closed = 1;
nodes = (
"460 -3 OFFCURVE",
"469 6 OFFCURVE",
"469 17 CURVE SMOOTH",
"469 22 OFFCURVE",
"467 26 OFFCURVE",
"465 29 CURVE SMOOTH",
"99 500 LINE SMOOTH",
"96 504 OFFCURVE",
"89 508 OFFCURVE",
"83 508 CURVE SMOOTH",
"72 508 OFFCURVE",
"63 499 OFFCURVE",
"63 488 CURVE SMOOTH",
"63 483 OFFCURVE",
"65 479 OFFCURVE",
"67 476 CURVE SMOOTH",
"433 5 LINE SMOOTH",
"436 1 OFFCURVE",
"443 -3 OFFCURVE",
"449 -3 CURVE SMOOTH"
);
}
);
width = 519;
},
{
layerId = "2E7D65B2-411D-4607-BF7C-7C0096008F1D";
paths = (
{
closed = 1;
nodes = (
"116 -14 OFFCURVE",
"130 -5 OFFCURVE",
"141 7 CURVE SMOOTH",
"499 427 LINE SMOOTH",
"506 435 OFFCURVE",
"509 446 OFFCURVE",
"509 456 CURVE SMOOTH",
"509 484 OFFCURVE",
"487 506 OFFCURVE",
"459 506 CURVE SMOOTH",
"443 506 OFFCURVE",
"429 497 OFFCURVE",
"418 485 CURVE SMOOTH",
"60 65 LINE SMOOTH",
"53 57 OFFCURVE",
"50 46 OFFCURVE",
"50 36 CURVE SMOOTH",
"50 8 OFFCURVE",
"72 -14 OFFCURVE",
"100 -14 CURVE SMOOTH"
);
},
{
closed = 1;
nodes = (
"487 -13 OFFCURVE",
"509 9 OFFCURVE",
"509 37 CURVE SMOOTH",
"509 47 OFFCURVE",
"507 58 OFFCURVE",
"499 67 CURVE SMOOTH",
"153 488 LINE SMOOTH",
"143 500 OFFCURVE",
"128 508 OFFCURVE",
"113 508 CURVE SMOOTH",
"85 508 OFFCURVE",
"63 486 OFFCURVE",
"63 458 CURVE SMOOTH",
"63 448 OFFCURVE",
"65 437 OFFCURVE",
"73 428 CURVE SMOOTH",
"419 7 LINE SMOOTH",
"429 -5 OFFCURVE",
"444 -13 OFFCURVE",
"459 -13 CURVE SMOOTH"
);
}
);
width = 559;
}
);
leftKerningGroup = n;
rightKerningGroup = n;
unicode = 0078;
},
{
glyphname = y;
layers = (
{
layerId = "F0262224-B9C7-46EB-9294-168F9DBDA589";
paths = (
{
closed = 1;
nodes = (
"150 -283 OFFCURVE",
"191 -227 OFFCURVE",
"243 -114 CURVE SMOOTH",
"517 478 LINE SMOOTH",
"523 491 OFFCURVE",
"512 507 OFFCURVE",
"498 507 CURVE SMOOTH",
"489 507 OFFCURVE",
"482 501 OFFCURVE",
"479 494 CURVE SMOOTH",
"207 -98 LINE SMOOTH",
"160 -201 OFFCURVE",
"126 -248 OFFCURVE",
"66 -263 CURVE SMOOTH",
"58 -265 OFFCURVE",
"50 -273 OFFCURVE",
"50 -282 CURVE SMOOTH",
"50 -296 OFFCURVE",
"63 -305 OFFCURVE",
"75 -302 CURVE SMOOTH"
);
},
{
closed = 1;
nodes = (
"282 24 LINE",
"102 491 LINE SMOOTH",
"99 498 OFFCURVE",
"92 504 OFFCURVE",
"83 504 CURVE SMOOTH",
"69 504 OFFCURVE",
"60 489 OFFCURVE",
"65 477 CURVE SMOOTH",
"261 -31 LINE"
);
}
);
width = 569;
},
{
layerId = "2E7D65B2-411D-4607-BF7C-7C0096008F1D";
paths = (
{
closed = 1;
nodes = (
"195 -290 OFFCURVE",
"269 -172 OFFCURVE",
"328 -45 CURVE SMOOTH",
"555 446 LINE SMOOTH",
"570 479 OFFCURVE",
"544 517 OFFCURVE",
"508 517 CURVE SMOOTH",
"488 517 OFFCURVE",
"470 505 OFFCURVE",
"461 486 CURVE SMOOTH",
"234 -20 LINE SMOOTH",
"190 -117 OFFCURVE",
"137 -202 OFFCURVE",
"89 -214 CURVE SMOOTH",
"66 -220 OFFCURVE",
"50 -240 OFFCURVE",
"50 -262 CURVE SMOOTH",
"50 -295 OFFCURVE",
"81 -319 OFFCURVE",
"112 -311 CURVE SMOOTH"
);
},
{
closed = 1;
nodes = (
"323 35 LINE",
"150 482 LINE SMOOTH",
"143 501 OFFCURVE",
"124 514 OFFCURVE",
"103 514 CURVE SMOOTH",
"67 514 OFFCURVE",
"45 477 OFFCURVE",
"57 446 CURVE SMOOTH",
"259 -60 LINE"
);
}
);
width = 609;
}
);
leftKerningGroup = v;
leftMetricsKey = "=x";
rightKerningGroup = v;
rightMetricsKey = "=|";
unicode = 0079;
},
{
glyphname = z;
layers = (
{
layerId = "F0262224-B9C7-46EB-9294-168F9DBDA589";
paths = (
{
closed = 1;
nodes = (
"462 0 LINE SMOOTH",
"473 0 OFFCURVE",
"482 9 OFFCURVE",
"482 20 CURVE SMOOTH",
"482 31 OFFCURVE",
"473 40 OFFCURVE",
"462 40 CURVE SMOOTH",
"101 40 LINE",
"105 24 LINE",
"456 471 LINE",
"468 487 OFFCURVE",
"462 500 OFFCURVE",
"442 500 CURVE SMOOTH",
"83 500 LINE SMOOTH",
"72 500 OFFCURVE",
"63 491 OFFCURVE",
"63 480 CURVE SMOOTH",
"63 469 OFFCURVE",
"72 460 OFFCURVE",
"83 460 CURVE SMOOTH",
"416 460 LINE",
"408 476 LINE",
"56 29 LINE",
"44 13 OFFCURVE",
"51 0 OFFCURVE",
"71 0 CURVE SMOOTH"
);
}
);
width = 532;
},
{
layerId = "2E7D65B2-411D-4607-BF7C-7C0096008F1D";
paths = (
{
closed = 1;
nodes = (
"462 0 LINE SMOOTH",
"490 0 OFFCURVE",
"512 22 OFFCURVE",
"512 50 CURVE SMOOTH",
"512 78 OFFCURVE",
"490 100 OFFCURVE",
"462 100 CURVE SMOOTH",
"121 100 LINE",
"171 50 LINE",
"480 423 LINE SMOOTH",
"510 460 OFFCURVE",
"487 500 OFFCURVE",
"442 500 CURVE SMOOTH",
"103 500 LINE SMOOTH",
"75 500 OFFCURVE",
"53 478 OFFCURVE",
"53 450 CURVE SMOOTH",
"53 422 OFFCURVE",
"75 400 OFFCURVE",
"103 400 CURVE SMOOTH",
"401 400 LINE",
"389 470 LINE",
"62 77 LINE SMOOTH",
"35 45 OFFCURVE",
"56 0 OFFCURVE",
"101 0 CURVE SMOOTH"
);
}
);
width = 562;
}
);
leftKerningGroup = n;
rightKerningGroup = n;
unicode = 007A;
},
{
glyphname = w.001;
layers = (
{
layerId = "F0262224-B9C7-46EB-9294-168F9DBDA589";
paths = (
{
closed = 1;
nodes = (
"761 477 LINE SMOOTH",
"767 490 OFFCURVE",
"757 505 OFFCURVE",
"743 505 CURVE SMOOTH",
"735 505 OFFCURVE",
"728 500 OFFCURVE",
"725 493 CURVE SMOOTH",
"522 38 LINE",
"542 38 LINE",
"338 492 LINE SMOOTH",
"335 499 OFFCURVE",
"328 504 OFFCURVE",
"320 504 CURVE SMOOTH",
"306 504 OFFCURVE",
"296 489 OFFCURVE",
"302 476 CURVE SMOOTH",
"514 6 LINE SMOOTH",
"523 -14 OFFCURVE",
"537 -14 OFFCURVE",
"546 5 CURVE SMOOTH"
);
},
{
closed = 1;
nodes = (
"511 477 LINE SMOOTH",
"517 490 OFFCURVE",
"507 505 OFFCURVE",
"493 505 CURVE SMOOTH",
"485 505 OFFCURVE",
"478 500 OFFCURVE",
"475 493 CURVE SMOOTH",
"272 38 LINE",
"292 38 LINE",
"88 492 LINE SMOOTH",
"85 499 OFFCURVE",
"78 504 OFFCURVE",
"70 504 CURVE SMOOTH",
"56 504 OFFCURVE",
"46 489 OFFCURVE",
"52 476 CURVE SMOOTH",
"264 6 LINE SMOOTH",
"273 -14 OFFCURVE",
"287 -14 OFFCURVE",
"296 5 CURVE SMOOTH"
);
}
);
width = 813;
},
{
layerId = "2E7D65B2-411D-4607-BF7C-7C0096008F1D";
paths = (
{
closed = 1;
nodes = (
"792 442 LINE SMOOTH",
"809 475 OFFCURVE",
"783 513 OFFCURVE",
"747 513 CURVE SMOOTH",
"727 513 OFFCURVE",
"711 501 OFFCURVE",
"702 483 CURVE SMOOTH",
"500 82 LINE",
"570 79 LINE",
"369 482 LINE SMOOTH",
"360 500 OFFCURVE",
"344 512 OFFCURVE",
"324 512 CURVE SMOOTH",
"288 512 OFFCURVE",
"263 473 OFFCURVE",
"279 442 CURVE SMOOTH",
"491 22 LINE SMOOTH",
"513 -21 OFFCURVE",
"555 -22 OFFCURVE",
"577 20 CURVE SMOOTH"
);
},
{
closed = 1;
nodes = (
"558 442 LINE SMOOTH",
"575 475 OFFCURVE",
"549 513 OFFCURVE",
"513 513 CURVE SMOOTH",
"493 513 OFFCURVE",
"477 501 OFFCURVE",
"468 483 CURVE SMOOTH",
"267 69 LINE",
"337 69 LINE",
"135 482 LINE SMOOTH",
"126 500 OFFCURVE",
"110 512 OFFCURVE",
"90 512 CURVE SMOOTH",
"54 512 OFFCURVE",
"29 473 OFFCURVE",
"45 442 CURVE SMOOTH",
"257 22 LINE SMOOTH",
"279 -21 OFFCURVE",
"321 -22 OFFCURVE",
"343 20 CURVE SMOOTH"
);
}
);
width = 837;
}
);
leftMetricsKey = "=v";
rightMetricsKey = "=|";
},
{
glyphname = ordfeminine;
layers = (
{
layerId = "F0262224-B9C7-46EB-9294-168F9DBDA589";
paths = (
{
closed = 1;
nodes = (
"419 430 OFFCURVE",
"427 438 OFFCURVE",
"427 447 CURVE SMOOTH",
"427 457 OFFCURVE",
"417 466 OFFCURVE",
"407 466 CURVE SMOOTH",
"392 466 OFFCURVE",
"377 478 OFFCURVE",
"373 495 CURVE SMOOTH",
"364 531 OFFCURVE",
"368 605 OFFCURVE",
"377 723 CURVE SMOOTH",
"382 792 OFFCURVE",
"329 842 OFFCURVE",
"249 842 CURVE SMOOTH",
"193 842 OFFCURVE",
"108 804 OFFCURVE",
"108 760 CURVE SMOOTH",
"108 750 OFFCURVE",
"117 742 OFFCURVE",
"127 742 CURVE SMOOTH",
"135 742 OFFCURVE",
"140 746 OFFCURVE",
"143 752 CURVE SMOOTH",
"156 786 OFFCURVE",
"195 805 OFFCURVE",
"249 805 CURVE SMOOTH",
"312 805 OFFCURVE",
"344 776 OFFCURVE",
"340 726 CURVE SMOOTH",
"331 628 OFFCURVE",
"329 531 OFFCURVE",
"337 487 CURVE SMOOTH",
"344 451 OFFCURVE",
"378 425 OFFCURVE",
"410 429 CURVE SMOOTH"
);
},
{
closed = 1;
nodes = (
"229 426 OFFCURVE",
"273 456 OFFCURVE",
"299 494 CURVE SMOOTH",
"303 500 OFFCURVE",
"304 507 OFFCURVE",
"303 510 CURVE SMOOTH",
"300 518 OFFCURVE",
"296 523 OFFCURVE",
"285 523 CURVE SMOOTH",
"278 523 OFFCURVE",
"273 520 OFFCURVE",
"270 516 CURVE SMOOTH",
"243 480 OFFCURVE",
"216 462 OFFCURVE",
"188 462 CURVE SMOOTH",
"149 462 OFFCURVE",
"123 486 OFFCURVE",
"123 520 CURVE SMOOTH",
"123 570 OFFCURVE",
"180 594 OFFCURVE",
"250 616 CURVE SMOOTH",
"292 629 OFFCURVE",
"351 654 OFFCURVE",
"368 690 CURVE",
"340 726 LINE",
"340 684 OFFCURVE",
"292 669 OFFCURVE",
"238 649 CURVE SMOOTH",
"170 624 OFFCURVE",
"86 593 OFFCURVE",
"86 520 CURVE SMOOTH",
"86 466 OFFCURVE",
"130 426 OFFCURVE",
"188 426 CURVE SMOOTH"
);
}
);
width = 525;
},
{
layerId = "2E7D65B2-411D-4607-BF7C-7C0096008F1D";
paths = (
{
closed = 1;
nodes = (
"425 434 OFFCURVE",
"448 452 OFFCURVE",
"448 474 CURVE SMOOTH",
"448 494 OFFCURVE",
"437 504 OFFCURVE",
"412 511 CURVE SMOOTH",
"397 515 OFFCURVE",
"390 527 OFFCURVE",
"390 546 CURVE SMOOTH",
"390 606 OFFCURVE",
"391 666 OFFCURVE",
"394 720 CURVE SMOOTH",
"399 804 OFFCURVE",
"348 848 OFFCURVE",
"248 848 CURVE SMOOTH",
"174 848 OFFCURVE",
"85 804 OFFCURVE",
"85 745 CURVE SMOOTH",
"85 722 OFFCURVE",
"104 704 OFFCURVE",
"127 704 CURVE SMOOTH",
"141 704 OFFCURVE",
"155 713 OFFCURVE",
"163 727 CURVE SMOOTH",
"179 755 OFFCURVE",
"208 772 OFFCURVE",
"248 772 CURVE SMOOTH",
"283 772 OFFCURVE",
"320 759 OFFCURVE",
"317 727 CURVE SMOOTH",
"308 631 OFFCURVE",
"306 556 OFFCURVE",
"314 503 CURVE SMOOTH",
"320 462 OFFCURVE",
"354 434 OFFCURVE",
"397 434 CURVE SMOOTH"
);
},
{
closed = 1;
nodes = (
"213 434 OFFCURVE",
"257 448 OFFCURVE",
"278 472 CURVE SMOOTH",
"284 479 OFFCURVE",
"292 493 OFFCURVE",
"292 503 CURVE SMOOTH",
"292 526 OFFCURVE",
"275 541 OFFCURVE",
"251 541 CURVE SMOOTH",
"241 541 OFFCURVE",
"231 534 OFFCURVE",
"223 528 CURVE SMOOTH",
"197 508 OFFCURVE",
"201 511 OFFCURVE",
"176 511 CURVE SMOOTH",
"155 511 OFFCURVE",
"140 523 OFFCURVE",
"140 539 CURVE SMOOTH",
"140 562 OFFCURVE",
"164 581 OFFCURVE",
"224 601 CURVE SMOOTH",
"301 627 OFFCURVE",
"344 661 OFFCURVE",
"351 700 CURVE",
"317 734 LINE",
"317 705 OFFCURVE",
"272 685 OFFCURVE",
"214 668 CURVE SMOOTH",
"116 639 OFFCURVE",
"63 590 OFFCURVE",
"63 526 CURVE SMOOTH",
"63 470 OFFCURVE",
"108 434 OFFCURVE",
"176 434 CURVE SMOOTH"
);
}
);
width = 585;
}
);
unicode = 00AA;
},
{
glyphname = ordmasculine;
layers = (
{
layerId = "F0262224-B9C7-46EB-9294-168F9DBDA589";
paths = (
{
closed = 1;
nodes = (
"351 452 OFFCURVE",
"429 537 OFFCURVE",
"429 655 CURVE SMOOTH",
"429 771 OFFCURVE",
"351 857 OFFCURVE",
"243 857 CURVE SMOOTH",
"134 857 OFFCURVE",
"56 772 OFFCURVE",
"56 655 CURVE SMOOTH",
"56 538 OFFCURVE",
"134 452 OFFCURVE",
"243 452 CURVE SMOOTH"
);
},
{
closed = 1;
nodes = (
"155 490 OFFCURVE",
"95 558 OFFCURVE",
"95 655 CURVE SMOOTH",
"95 752 OFFCURVE",
"155 819 OFFCURVE",
"243 819 CURVE SMOOTH",
"330 819 OFFCURVE",
"390 752 OFFCURVE",
"390 655 CURVE SMOOTH",
"390 558 OFFCURVE",
"330 490 OFFCURVE",
"243 490 CURVE SMOOTH"
);
}
);
width = 485;
},
{
layerId = "2E7D65B2-411D-4607-BF7C-7C0096008F1D";
paths = (
{
closed = 1;
nodes = (
"376 455 OFFCURVE",
"459 542 OFFCURVE",
"459 664 CURVE SMOOTH",
"459 785 OFFCURVE",
"376 872 OFFCURVE",
"259 872 CURVE SMOOTH",
"142 872 OFFCURVE",
"58 785 OFFCURVE",
"58 664 CURVE SMOOTH",
"58 542 OFFCURVE",
"141 455 OFFCURVE",
"259 455 CURVE SMOOTH"
);
},
{
closed = 1;
nodes = (
"188 536 OFFCURVE",
"139 589 OFFCURVE",
"139 664 CURVE SMOOTH",
"139 739 OFFCURVE",
"188 791 OFFCURVE",
"259 791 CURVE SMOOTH",
"329 791 OFFCURVE",
"378 738 OFFCURVE",
"378 664 CURVE SMOOTH",
"378 589 OFFCURVE",
"330 536 OFFCURVE",
"259 536 CURVE SMOOTH"
);
}
);
width = 517;
}
);
unicode = 00BA;
},
{
export = 0;
glyphname = uni4E09;
layers = (
{
layerId = "F0262224-B9C7-46EB-9294-168F9DBDA589";
paths = (
{
closed = 1;
nodes = (
"901 -3 LINE SMOOTH",
"910 -3 OFFCURVE",
"923 10 OFFCURVE",
"923 28 OFFCURVE",
"910 42 OFFCURVE",
"901 42 QCURVE SMOOTH",
"99 42 LINE SMOOTH",
"90 42 OFFCURVE",
"77 28 OFFCURVE",
"77 10 OFFCURVE",
"90 -3 OFFCURVE",
"99 -3 QCURVE"
);
},
{
closed = 1;
nodes = (
"167 723 LINE SMOOTH",
"158 723 OFFCURVE",
"145 710 OFFCURVE",
"145 692 OFFCURVE",
"158 678 OFFCURVE",
"167 678 QCURVE SMOOTH",
"832 678 LINE SMOOTH",
"841 678 OFFCURVE",
"855 692 OFFCURVE",
"855 710 OFFCURVE",
"841 723 OFFCURVE",
"832 723 QCURVE"
);
},
{
closed = 1;
nodes = (
"218 407 OFFCURVE",
"205 394 OFFCURVE",
"205 376 OFFCURVE",
"218 363 OFFCURVE",
"227 363 QCURVE SMOOTH",
"773 363 LINE SMOOTH",
"782 363 OFFCURVE",
"795 376 OFFCURVE",
"795 394 OFFCURVE",
"782 407 OFFCURVE",
"773 407 QCURVE SMOOTH",
"227 407 LINE"
);
}
);
width = 1000;
},
{
layerId = "2E7D65B2-411D-4607-BF7C-7C0096008F1D";
paths = (
{
closed = 1;
nodes = (
"877 -28 LINE SMOOTH",
"900 -28 OFFCURVE",
"933 5 OFFCURVE",
"933 58 OFFCURVE",
"900 92 OFFCURVE",
"877 92 QCURVE SMOOTH",
"123 92 LINE SMOOTH",
"100 92 OFFCURVE",
"67 58 OFFCURVE",
"67 3 OFFCURVE",
"98 -28 OFFCURVE",
"123 -28 QCURVE"
);
},
{
closed = 1;
nodes = (
"870 715 OFFCURVE",
"836 748 OFFCURVE",
"813 748 QCURVE SMOOTH",
"187 748 LINE SMOOTH",
"164 748 OFFCURVE",
"130 715 OFFCURVE",
"130 660 OFFCURVE",
"162 628 OFFCURVE",
"187 628 QCURVE SMOOTH",
"813 628 LINE SMOOTH",
"836 628 OFFCURVE",
"870 662 OFFCURVE"
);
},
{
closed = 1;
nodes = (
"224 442 OFFCURVE",
"190 408 OFFCURVE",
"190 359 OFFCURVE",
"223 325 OFFCURVE",
"247 325 QCURVE SMOOTH",
"753 325 LINE SMOOTH",
"776 325 OFFCURVE",
"810 359 OFFCURVE",
"810 408 OFFCURVE",
"776 442 OFFCURVE",
"753 442 QCURVE SMOOTH",
"247 442 LINE"
);
}
);
width = 1000;
}
);
unicode = 4E09;
},
{
export = 0;
glyphname = uni56FD;
layers = (
{
layerId = "F0262224-B9C7-46EB-9294-168F9DBDA589";
paths = (
{
closed = 1;
nodes = (
"660 346 OFFCURVE",
"643 332 QCURVE SMOOTH",
"636 327 OFFCURVE",
"635 309 OFFCURVE",
"641 302 QCURVE SMOOTH",
"686 254 OFFCURVE",
"733 198 QCURVE SMOOTH",
"747 183 OFFCURVE",
"764 195 QCURVE SMOOTH",
"780 207 OFFCURVE",
"767 224 QCURVE SMOOTH",
"709 293 OFFCURVE",
"675 329 QCURVE",
"675 329 LINE"
);
},
{
closed = 1;
nodes = (
"134 -42 LINE SMOOTH",
"134 -36 OFFCURVE",
"140 -36 QCURVE SMOOTH",
"860 -36 LINE SMOOTH",
"866 -36 OFFCURVE",
"866 -42 QCURVE SMOOTH",
"866 -59 LINE SMOOTH",
"866 -69 OFFCURVE",
"880 -83 OFFCURVE",
"900 -83 OFFCURVE",
"914 -69 OFFCURVE",
"914 -59 QCURVE SMOOTH",
"914 720 LINE SMOOTH",
"914 743 OFFCURVE",
"880 777 OFFCURVE",
"857 777 QCURVE SMOOTH",
"143 777 LINE SMOOTH",
"120 777 OFFCURVE",
"86 743 OFFCURVE",
"86 720 QCURVE SMOOTH",
"86 -59 LINE SMOOTH",
"86 -69 OFFCURVE",
"100 -83 OFFCURVE",
"120 -83 OFFCURVE",
"134 -69 OFFCURVE",
"134 -59 QCURVE",
"134 -59 LINE"
);
},
{
closed = 1;
nodes = (
"134 735 OFFCURVE",
"143 735 QCURVE SMOOTH",
"857 735 LINE SMOOTH",
"866 735 OFFCURVE",
"866 726 QCURVE SMOOTH",
"866 14 LINE SMOOTH",
"866 5 OFFCURVE",
"857 5 QCURVE SMOOTH",
"143 5 LINE SMOOTH",
"134 5 OFFCURVE",
"134 14 QCURVE SMOOTH",
"134 726 LINE",
"134 726 LINE"
);
},
{
closed = 1;
nodes = (
"788 99 LINE SMOOTH",
"796 99 OFFCURVE",
"808 112 OFFCURVE",
"808 128 OFFCURVE",
"796 140 OFFCURVE",
"788 140 QCURVE SMOOTH",
"527 140 LINE SMOOTH",
"518 140 OFFCURVE",
"518 149 QCURVE SMOOTH",
"518 370 LINE SMOOTH",
"518 378 OFFCURVE",
"527 378 QCURVE SMOOTH",
"734 378 LINE SMOOTH",
"742 378 OFFCURVE",
"753 390 OFFCURVE",
"753 406 OFFCURVE",
"742 418 OFFCURVE",
"734 418 QCURVE SMOOTH",
"527 418 LINE SMOOTH",
"518 418 OFFCURVE",
"518 426 QCURVE SMOOTH",
"518 601 LINE SMOOTH",
"518 609 OFFCURVE",
"527 609 QCURVE SMOOTH",
"771 609 LINE SMOOTH",
"779 609 OFFCURVE",
"791 621 OFFCURVE",
"791 637 OFFCURVE",
"779 649 OFFCURVE",
"771 649 QCURVE SMOOTH",
"229 649 LINE SMOOTH",
"221 649 OFFCURVE",
"209 637 OFFCURVE",
"209 621 OFFCURVE",
"221 609 OFFCURVE",
"229 609 QCURVE SMOOTH",
"463 609 LINE SMOOTH",
"472 609 OFFCURVE",
"472 601 QCURVE SMOOTH",
"472 426 LINE SMOOTH",
"472 418 OFFCURVE",
"463 418 QCURVE SMOOTH",
"266 418 LINE SMOOTH",
"258 418 OFFCURVE",
"247 406 OFFCURVE",
"247 390 OFFCURVE",
"258 378 OFFCURVE",
"266 378 QCURVE SMOOTH",
"463 378 LINE SMOOTH",
"472 378 OFFCURVE",
"472 370 QCURVE SMOOTH",
"472 149 LINE SMOOTH",
"472 140 OFFCURVE",
"463 140 QCURVE SMOOTH",
"212 140 LINE SMOOTH",
"204 140 OFFCURVE",
"192 128 OFFCURVE",
"192 112 OFFCURVE",
"204 99 OFFCURVE",
"212 99 QCURVE",
"212 99 LINE"
);
}
);
width = 1000;
},
{
layerId = "2E7D65B2-411D-4607-BF7C-7C0096008F1D";
paths = (
{
closed = 1;
nodes = (
"154 -93 LINE SMOOTH",
"168 -93 OFFCURVE",
"188 -73 OFFCURVE",
"188 -59 QCURVE SMOOTH",
"188 -53 OFFCURVE",
"194 -53 QCURVE SMOOTH",
"806 -53 LINE SMOOTH",
"812 -53 OFFCURVE",
"812 -59 QCURVE SMOOTH",
"812 -73 OFFCURVE",
"832 -93 OFFCURVE",
"846 -93 QCURVE SMOOTH",
"883 -93 LINE SMOOTH",
"906 -93 OFFCURVE",
"940 -60 OFFCURVE",
"940 -37 QCURVE SMOOTH",
"940 740 LINE SMOOTH",
"940 763 OFFCURVE",
"906 797 OFFCURVE",
"883 797 QCURVE SMOOTH",
"117 797 LINE SMOOTH",
"94 797 OFFCURVE",
"60 763 OFFCURVE",
"60 740 QCURVE SMOOTH",
"60 -37 LINE SMOOTH",
"60 -60 OFFCURVE",
"94 -93 OFFCURVE",
"117 -93 QCURVE",
"117 -93 LINE"
);
},
{
closed = 1;
nodes = (
"188 695 OFFCURVE",
"197 695 QCURVE SMOOTH",
"803 695 LINE SMOOTH",
"812 695 OFFCURVE",
"812 686 QCURVE SMOOTH",
"812 54 LINE SMOOTH",
"812 45 OFFCURVE",
"803 45 QCURVE SMOOTH",
"197 45 LINE SMOOTH",
"188 45 OFFCURVE",
"188 54 QCURVE SMOOTH",
"188 686 LINE",
"188 686 LINE"
);
},
{
closed = 1;
nodes = (
"277 207 LINE SMOOTH",
"256 207 OFFCURVE",
"227 178 OFFCURVE",
"227 136 OFFCURVE",
"256 107 OFFCURVE",
"277 107 QCURVE SMOOTH",
"723 107 LINE SMOOTH",
"744 107 OFFCURVE",
"773 136 OFFCURVE",
"773 157 QCURVE SMOOTH",
"773 177 OFFCURVE",
"759 191 QCURVE",
"757 192 OFFCURVE",
"759 197 OFFCURVE",
"761 198 QCURVE",
"768 199 OFFCURVE",
"778 205 QCURVE SMOOTH",
"795 216 OFFCURVE",
"803 256 OFFCURVE",
"791 273 QCURVE SMOOTH",
"786 280 OFFCURVE",
"764 312 OFFCURVE",
"758 319 QCURVE SMOOTH",
"745 336 OFFCURVE",
"703 343 OFFCURVE",
"685 332 QCURVE SMOOTH",
"668 321 OFFCURVE",
"662 280 OFFCURVE",
"674 264 QCURVE SMOOTH",
"707 219 LINE SMOOTH",
"708 218 OFFCURVE",
"712 213 OFFCURVE",
"713 212 QCURVE SMOOTH",
"715 210 OFFCURVE",
"713 207 OFFCURVE",
"711 207 QCURVE SMOOTH",
"565 207 LINE SMOOTH",
"557 207 OFFCURVE",
"557 215 QCURVE SMOOTH",
"557 335 LINE SMOOTH",
"557 343 OFFCURVE",
"565 343 QCURVE SMOOTH",
"688 343 LINE SMOOTH",
"707 343 OFFCURVE",
"733 370 OFFCURVE",
"733 408 OFFCURVE",
"707 435 OFFCURVE",
"688 435 QCURVE SMOOTH",
"565 435 LINE SMOOTH",
"557 435 OFFCURVE",
"557 444 QCURVE SMOOTH",
"557 532 LINE SMOOTH",
"557 540 OFFCURVE",
"565 540 QCURVE SMOOTH",
"715 540 LINE SMOOTH",
"735 540 OFFCURVE",
"763 568 OFFCURVE",
"763 608 OFFCURVE",
"735 637 OFFCURVE",
"715 637 QCURVE SMOOTH",
"285 637 LINE SMOOTH",
"265 637 OFFCURVE",
"237 608 OFFCURVE",
"237 568 OFFCURVE",
"265 540 OFFCURVE",
"285 540 QCURVE SMOOTH",
"425 540 LINE SMOOTH",
"433 540 OFFCURVE",
"433 532 QCURVE SMOOTH",
"433 444 LINE SMOOTH",
"433 435 OFFCURVE",
"425 435 QCURVE SMOOTH",
"312 435 LINE SMOOTH",
"293 435 OFFCURVE",
"267 408 OFFCURVE",
"267 370 OFFCURVE",
"293 343 OFFCURVE",
"312 343 QCURVE SMOOTH",
"425 343 LINE SMOOTH",
"433 343 OFFCURVE",
"433 335 QCURVE SMOOTH",
"433 215 LINE SMOOTH",
"433 207 OFFCURVE",
"425 207 QCURVE",
"425 207 LINE"
);
}
);
width = 1000;
}
);
unicode = 56FD;
},
{
export = 0;
glyphname = uni590F;
layers = (
{
layerId = "F0262224-B9C7-46EB-9294-168F9DBDA589";
paths = (
{
closed = 1;
nodes = (
"462 729 LINE SMOOTH",
"465 729 OFFCURVE",
"469 723 OFFCURVE",
"468 720 QCURVE SMOOTH",
"458 693 OFFCURVE",
"444 669 QCURVE SMOOTH",
"441 663 OFFCURVE",
"432 663 QCURVE SMOOTH",
"213 663 LINE SMOOTH",
"190 663 OFFCURVE",
"156 629 OFFCURVE",
"156 606 QCURVE SMOOTH",
"156 348 LINE SMOOTH",
"156 325 OFFCURVE",
"190 291 OFFCURVE",
"213 291 QCURVE SMOOTH",
"359 291 LINE SMOOTH",
"361 291 OFFCURVE",
"363 286 OFFCURVE",
"361 285 QCURVE",
"255 193 OFFCURVE",
"95 128 QCURVE SMOOTH",
"75 119 OFFCURVE",
"83 100 QCURVE SMOOTH",
"87 92 OFFCURVE",
"105 84 OFFCURVE",
"114 88 QCURVE SMOOTH",
"207 127 OFFCURVE",
"290 182 QCURVE SMOOTH",
"298 187 OFFCURVE",
"306 187 QCURVE SMOOTH",
"738 187 LINE SMOOTH",
"740 187 OFFCURVE",
"741 184 OFFCURVE",
"739 182 QCURVE",
"657 123 OFFCURVE",
"527 73 QCURVE SMOOTH",
"520 70 OFFCURVE",
"512 73 QCURVE SMOOTH",
"408 115 OFFCURVE",
"333 165 QCURVE SMOOTH",
"316 176 OFFCURVE",
"304 161 QCURVE SMOOTH",
"299 154 OFFCURVE",
"301 138 OFFCURVE",
"308 133 QCURVE SMOOTH",
"371 89 OFFCURVE",
"453 53 QCURVE SMOOTH",
"455 52 OFFCURVE",
"455 48 OFFCURVE",
"453 47 QCURVE SMOOTH",
"291 -4 OFFCURVE",
"99 -28 QCURVE SMOOTH",
"91 -29 OFFCURVE",
"81 -43 OFFCURVE",
"83 -51 QCURVE SMOOTH",
"85 -60 OFFCURVE",
"101 -71 OFFCURVE",
"110 -70 QCURVE SMOOTH",
"323 -42 OFFCURVE",
"509 23 QCURVE SMOOTH",
"516 26 OFFCURVE",
"526 22 QCURVE SMOOTH",
"701 -44 OFFCURVE",
"902 -70 QCURVE SMOOTH",
"911 -71 OFFCURVE",
"927 -60 OFFCURVE",
"929 -51 QCURVE SMOOTH",
"931 -43 OFFCURVE",
"921 -29 OFFCURVE",
"913 -28 QCURVE SMOOTH",
"740 -6 OFFCURVE",
"584 46 QCURVE SMOOTH",
"582 47 OFFCURVE",
"583 51 OFFCURVE",
"585 52 QCURVE SMOOTH",
"713 105 OFFCURVE",
"798 174 QCURVE SMOOTH",
"814 187 OFFCURVE",
"814 206 QCURVE SMOOTH",
"814 214 OFFCURVE",
"802 226 OFFCURVE",
"794 226 QCURVE SMOOTH",
"361 226 LINE SMOOTH",
"359 226 OFFCURVE",
"357 230 OFFCURVE",
"359 231 QCURVE",
"391 257 OFFCURVE",
"413 280 QCURVE",
"414 280 OFFCURVE",
"414 282 QCURVE",
"414 282 OFFCURVE",
"415 283 QCURVE SMOOTH",
"421 291 OFFCURVE",
"427 291 QCURVE SMOOTH",
"799 291 LINE SMOOTH",
"822 291 OFFCURVE",
"856 325 OFFCURVE",
"856 348 QCURVE SMOOTH",
"856 606 LINE SMOOTH",
"856 629 OFFCURVE",
"822 663 OFFCURVE",
"799 663 QCURVE SMOOTH",
"503 663 LINE SMOOTH",
"494 663 OFFCURVE",
"498 670 QCURVE SMOOTH",
"508 690 OFFCURVE",
"520 721 QCURVE SMOOTH",
"523 729 OFFCURVE",
"531 729 QCURVE SMOOTH",
"910 729 LINE SMOOTH",
"919 729 OFFCURVE",
"931 741 OFFCURVE",
"931 759 OFFCURVE",
"919 772 OFFCURVE",
"910 772 QCURVE SMOOTH",
"102 772 LINE SMOOTH",
"93 772 OFFCURVE",
"81 759 OFFCURVE",
"81 741 OFFCURVE",
"93 729 OFFCURVE",
"102 729 QCURVE",
"102 729 LINE"
);
},
{
closed = 1;
nodes = (
"806 330 OFFCURVE",
"797 330 QCURVE SMOOTH",
"214 330 LINE SMOOTH",
"206 330 OFFCURVE",
"206 339 QCURVE SMOOTH",
"206 392 LINE SMOOTH",
"206 400 OFFCURVE",
"214 400 QCURVE SMOOTH",
"797 400 LINE SMOOTH",
"806 400 OFFCURVE",
"806 392 QCURVE SMOOTH",
"806 339 LINE",
"806 339 LINE"
);
},
{
closed = 1;
nodes = (
"806 440 OFFCURVE",
"797 440 QCURVE SMOOTH",
"214 440 LINE SMOOTH",
"206 440 OFFCURVE",
"206 449 QCURVE SMOOTH",
"206 502 LINE SMOOTH",
"206 511 OFFCURVE",
"214 511 QCURVE SMOOTH",
"797 511 LINE SMOOTH",
"806 511 OFFCURVE",
"806 502 QCURVE SMOOTH",
"806 449 LINE",
"806 449 LINE"
);
},
{
closed = 1;
nodes = (
"806 622 OFFCURVE",
"806 614 QCURVE SMOOTH",
"806 559 LINE SMOOTH",
"806 551 OFFCURVE",
"797 551 QCURVE SMOOTH",
"214 551 LINE SMOOTH",
"206 551 OFFCURVE",
"206 559 QCURVE SMOOTH",
"206 614 LINE SMOOTH",
"206 622 OFFCURVE",
"214 622 QCURVE SMOOTH",
"797 622 LINE",
"797 622 LINE"
);
}
);
width = 1000;
},
{
layerId = "2E7D65B2-411D-4607-BF7C-7C0096008F1D";
paths = (
{
closed = 1;
nodes = (
"405 685 LINE SMOOTH",
"413 685 OFFCURVE",
"411 677 QCURVE SMOOTH",
"405 659 LINE SMOOTH",
"402 652 OFFCURVE",
"394 652 QCURVE SMOOTH",
"180 652 LINE SMOOTH",
"157 652 OFFCURVE",
"123 618 OFFCURVE",
"123 595 QCURVE SMOOTH",
"123 322 LINE SMOOTH",
"123 299 OFFCURVE",
"157 265 OFFCURVE",
"180 265 QCURVE SMOOTH",
"260 265 LINE",
"292 265 LINE SMOOTH",
"293 265 OFFCURVE",
"293 261 OFFCURVE",
"292 260 QCURVE",
"208 212 OFFCURVE",
"97 176 QCURVE SMOOTH",
"77 169 OFFCURVE",
"60 131 OFFCURVE",
"70 112 QCURVE SMOOTH",
"81 91 OFFCURVE",
"124 73 OFFCURVE",
"146 81 QCURVE SMOOTH",
"215 107 OFFCURVE",
"291 148 QCURVE",
"293 148 LINE",
"289 142 LINE",
"275 126 OFFCURVE",
"280 85 OFFCURVE",
"298 75 QCURVE SMOOTH",
"324 59 OFFCURVE",
"346 49 QCURVE SMOOTH",
"348 48 OFFCURVE",
"347 44 OFFCURVE",
"345 44 QCURVE SMOOTH",
"225 23 OFFCURVE",
"109 14 QCURVE SMOOTH",
"89 12 OFFCURVE",
"65 -22 OFFCURVE",
"71 -42 QCURVE SMOOTH",
"78 -65 OFFCURVE",
"116 -90 OFFCURVE",
"139 -88 QCURVE SMOOTH",
"346 -65 OFFCURVE",
"500 -19 QCURVE SMOOTH",
"508 -16 OFFCURVE",
"516 -19 QCURVE SMOOTH",
"683 -72 OFFCURVE",
"865 -89 QCURVE SMOOTH",
"888 -91 OFFCURVE",
"928 -64 OFFCURVE",
"935 -42 QCURVE SMOOTH",
"941 -22 OFFCURVE",
"917 12 OFFCURVE",
"897 14 QCURVE SMOOTH",
"782 23 OFFCURVE",
"677 43 QCURVE",
"671 45 OFFCURVE",
"677 48 QCURVE SMOOTH",
"749 83 OFFCURVE",
"800 121 QCURVE SMOOTH",
"833 145 OFFCURVE",
"833 191 QCURVE SMOOTH",
"833 208 OFFCURVE",
"808 233 OFFCURVE",
"791 233 QCURVE SMOOTH",
"425 233 LINE SMOOTH",
"419 233 OFFCURVE",
"423 237 QCURVE",
"423 238 OFFCURVE",
"425 239 QCURVE SMOOTH",
"427 240 LINE SMOOTH",
"435 246 OFFCURVE",
"438 256 QCURVE SMOOTH",
"442 265 OFFCURVE",
"448 265 QCURVE SMOOTH",
"826 265 LINE SMOOTH",
"849 265 OFFCURVE",
"883 299 OFFCURVE",
"883 322 QCURVE SMOOTH",
"883 595 LINE SMOOTH",
"883 618 OFFCURVE",
"849 652 OFFCURVE",
"826 652 QCURVE SMOOTH",
"550 652 LINE SMOOTH",
"543 652 OFFCURVE",
"545 660 QCURVE SMOOTH",
"546 663 OFFCURVE",
"549 674 OFFCURVE",
"550 677 QCURVE SMOOTH",
"553 685 OFFCURVE",
"561 685 QCURVE SMOOTH",
"890 685 LINE SMOOTH",
"912 685 OFFCURVE",
"943 716 OFFCURVE",
"943 760 OFFCURVE",
"912 792 OFFCURVE",
"890 792 QCURVE SMOOTH",
"116 792 LINE SMOOTH",
"94 792 OFFCURVE",
"63 760 OFFCURVE",
"63 716 OFFCURVE",
"94 685 OFFCURVE",
"116 685 QCURVE",
"116 685 LINE"
);
},
{
closed = 1;
nodes = (
"663 148 OFFCURVE",
"663 145 OFFCURVE",
"662 144 QCURVE",
"605 113 OFFCURVE",
"522 86 QCURVE SMOOTH",
"515 83 OFFCURVE",
"507 86 QCURVE SMOOTH",
"428 112 OFFCURVE",
"366 144 QCURVE",
"365 145 OFFCURVE",
"365 148 OFFCURVE",
"367 148 QCURVE SMOOTH",
"662 148 LINE",
"662 148 LINE"
);
},
{
closed = 1;
nodes = (
"746 335 OFFCURVE",
"738 335 QCURVE SMOOTH",
"268 335 LINE SMOOTH",
"260 335 OFFCURVE",
"260 344 QCURVE SMOOTH",
"260 360 LINE SMOOTH",
"260 368 OFFCURVE",
"268 368 QCURVE SMOOTH",
"738 368 LINE SMOOTH",
"746 368 OFFCURVE",
"746 360 QCURVE SMOOTH",
"746 344 LINE",
"746 344 LINE"
);
},
{
closed = 1;
nodes = (
"746 437 OFFCURVE",
"738 437 QCURVE SMOOTH",
"268 437 LINE SMOOTH",
"260 437 OFFCURVE",
"260 445 QCURVE SMOOTH",
"260 462 LINE SMOOTH",
"260 470 OFFCURVE",
"268 470 QCURVE SMOOTH",
"738 470 LINE SMOOTH",
"746 470 OFFCURVE",
"746 462 QCURVE SMOOTH",
"746 445 LINE",
"746 445 LINE"
);
},
{
closed = 1;
nodes = (
"746 572 OFFCURVE",
"746 563 QCURVE SMOOTH",
"746 547 LINE SMOOTH",
"746 538 OFFCURVE",
"738 538 QCURVE SMOOTH",
"268 538 LINE SMOOTH",
"260 538 OFFCURVE",
"260 547 QCURVE SMOOTH",
"260 563 LINE SMOOTH",
"260 572 OFFCURVE",
"268 572 QCURVE SMOOTH",
"738 572 LINE",
"738 572 LINE"
);
}
);
width = 1000;
}
);
unicode = 590F;
},
{
export = 0;
glyphname = uni6771;
layers = (
{
layerId = "F0262224-B9C7-46EB-9294-168F9DBDA589";
paths = (
{
closed = 1;
nodes = (
"64 -13 OFFCURVE",
"57 -31 OFFCURVE",
"61 -40 QCURVE SMOOTH",
"71 -61 OFFCURVE",
"92 -52 QCURVE SMOOTH",
"337 59 OFFCURVE",
"472 195 QCURVE",
"473 197 OFFCURVE",
"478 195 OFFCURVE",
"478 193 QCURVE SMOOTH",
"478 -58 LINE SMOOTH",
"478 -68 OFFCURVE",
"493 -83 OFFCURVE",
"513 -83 OFFCURVE",
"528 -68 OFFCURVE",
"528 -58 QCURVE SMOOTH",
"528 193 LINE SMOOTH",
"528 195 OFFCURVE",
"533 196 OFFCURVE",
"535 194 QCURVE SMOOTH",
"669 59 OFFCURVE",
"914 -52 QCURVE SMOOTH",
"934 -60 OFFCURVE",
"945 -40 QCURVE SMOOTH",
"949 -31 OFFCURVE",
"942 -13 OFFCURVE",
"933 -9 QCURVE SMOOTH",
"688 99 OFFCURVE",
"561 225 QCURVE",
"559 226 OFFCURVE",
"562 232 OFFCURVE",
"564 232 QCURVE SMOOTH",
"796 232 LINE SMOOTH",
"819 232 OFFCURVE",
"853 265 OFFCURVE",
"853 288 QCURVE SMOOTH",
"853 542 LINE SMOOTH",
"853 565 OFFCURVE",
"819 598 OFFCURVE",
"796 598 QCURVE SMOOTH",
"537 598 LINE SMOOTH",
"528 598 OFFCURVE",
"528 607 QCURVE SMOOTH",
"528 669 LINE SMOOTH",
"528 678 OFFCURVE",
"537 678 QCURVE SMOOTH",
"925 678 LINE SMOOTH",
"946 678 OFFCURVE",
"946 698 QCURVE SMOOTH",
"946 707 OFFCURVE",
"934 719 OFFCURVE",
"925 719 QCURVE SMOOTH",
"537 719 LINE SMOOTH",
"528 719 OFFCURVE",
"528 728 QCURVE SMOOTH",
"528 788 LINE SMOOTH",
"528 798 OFFCURVE",
"513 813 OFFCURVE",
"493 813 OFFCURVE",
"478 798 OFFCURVE",
"478 788 QCURVE SMOOTH",
"478 728 LINE SMOOTH",
"478 719 OFFCURVE",
"469 719 QCURVE SMOOTH",
"80 719 LINE SMOOTH",
"60 719 OFFCURVE",
"60 698 QCURVE SMOOTH",
"60 678 OFFCURVE",
"80 678 QCURVE SMOOTH",
"469 678 LINE SMOOTH",
"478 678 OFFCURVE",
"478 669 QCURVE SMOOTH",
"478 607 LINE SMOOTH",
"478 598 OFFCURVE",
"469 598 QCURVE SMOOTH",
"210 598 LINE SMOOTH",
"187 598 OFFCURVE",
"153 565 OFFCURVE",
"153 542 QCURVE SMOOTH",
"153 288 LINE SMOOTH",
"153 265 OFFCURVE",
"187 232 OFFCURVE",
"210 232 QCURVE SMOOTH",
"442 232 LINE SMOOTH",
"444 232 OFFCURVE",
"447 226 OFFCURVE",
"445 225 QCURVE",
"318 99 OFFCURVE",
"73 -9 QCURVE",
"73 -9 LINE"
);
},
{
closed = 1;
nodes = (
"528 558 OFFCURVE",
"537 558 QCURVE SMOOTH",
"797 558 LINE SMOOTH",
"806 558 OFFCURVE",
"806 550 QCURVE SMOOTH",
"806 447 LINE SMOOTH",
"806 438 OFFCURVE",
"797 438 QCURVE SMOOTH",
"537 438 LINE SMOOTH",
"528 438 OFFCURVE",
"528 447 QCURVE SMOOTH",
"528 550 LINE",
"528 550 LINE"
);
},
{
closed = 1;
nodes = (
"528 400 OFFCURVE",
"537 400 QCURVE SMOOTH",
"797 400 LINE SMOOTH",
"806 400 OFFCURVE",
"806 392 QCURVE SMOOTH",
"806 280 LINE SMOOTH",
"806 272 OFFCURVE",
"797 272 QCURVE SMOOTH",
"537 272 LINE SMOOTH",
"528 272 OFFCURVE",
"528 280 QCURVE SMOOTH",
"528 392 LINE",
"528 392 LINE"
);
},
{
closed = 1;
nodes = (
"200 558 OFFCURVE",
"209 558 QCURVE SMOOTH",
"469 558 LINE SMOOTH",
"478 558 OFFCURVE",
"478 550 QCURVE SMOOTH",
"478 447 LINE SMOOTH",
"478 438 OFFCURVE",
"469 438 QCURVE SMOOTH",
"209 438 LINE SMOOTH",
"200 438 OFFCURVE",
"200 447 QCURVE SMOOTH",
"200 550 LINE",
"200 550 LINE"
);
},
{
closed = 1;
nodes = (
"200 272 OFFCURVE",
"200 280 QCURVE SMOOTH",
"200 392 LINE SMOOTH",
"200 400 OFFCURVE",
"209 400 QCURVE SMOOTH",
"469 400 LINE SMOOTH",
"478 400 OFFCURVE",
"478 392 QCURVE SMOOTH",
"478 280 LINE SMOOTH",
"478 272 OFFCURVE",
"469 272 QCURVE SMOOTH",
"209 272 LINE",
"209 272 LINE"
);
}
);
width = 1000;
},
{
layerId = "2E7D65B2-411D-4607-BF7C-7C0096008F1D";
paths = (
{
closed = 1;
nodes = (
"64 51 OFFCURVE",
"47 8 OFFCURVE",
"57 -12 QCURVE SMOOTH",
"61 -20 LINE SMOOTH",
"72 -42 OFFCURVE",
"115 -59 OFFCURVE",
"137 -49 QCURVE SMOOTH",
"313 31 OFFCURVE",
"431 121 QCURVE",
"433 122 OFFCURVE",
"436 123 OFFCURVE",
"439 121 OFFCURVE",
"439 119 QCURVE SMOOTH",
"439 -27 LINE SMOOTH",
"439 -50 OFFCURVE",
"472 -83 OFFCURVE",
"495 -83 QCURVE SMOOTH",
"519 -83 LINE SMOOTH",
"542 -83 OFFCURVE",
"575 -50 OFFCURVE",
"575 -27 QCURVE SMOOTH",
"575 119 LINE SMOOTH",
"575 127 OFFCURVE",
"582 122 QCURVE SMOOTH",
"705 37 OFFCURVE",
"876 -49 QCURVE SMOOTH",
"898 -60 OFFCURVE",
"942 -42 OFFCURVE",
"953 -20 QCURVE SMOOTH",
"957 -12 LINE SMOOTH",
"967 8 OFFCURVE",
"950 51 OFFCURVE",
"929 59 QCURVE SMOOTH",
"768 145 OFFCURVE",
"635 211 QCURVE SMOOTH",
"633 212 OFFCURVE",
"634 217 OFFCURVE",
"636 217 QCURVE SMOOTH",
"830 217 LINE SMOOTH",
"853 217 OFFCURVE",
"887 250 OFFCURVE",
"887 273 QCURVE SMOOTH",
"887 547 LINE SMOOTH",
"887 570 OFFCURVE",
"853 603 OFFCURVE",
"830 603 QCURVE SMOOTH",
"584 603 LINE SMOOTH",
"575 603 OFFCURVE",
"575 612 QCURVE SMOOTH",
"575 645 LINE SMOOTH",
"575 653 OFFCURVE",
"584 653 QCURVE SMOOTH",
"909 653 LINE SMOOTH",
"931 653 OFFCURVE",
"960 683 OFFCURVE",
"960 727 OFFCURVE",
"931 757 OFFCURVE",
"909 757 QCURVE SMOOTH",
"584 757 LINE SMOOTH",
"575 757 OFFCURVE",
"575 765 QCURVE SMOOTH",
"575 777 LINE SMOOTH",
"575 800 OFFCURVE",
"542 833 OFFCURVE",
"519 833 QCURVE SMOOTH",
"495 833 LINE SMOOTH",
"472 833 OFFCURVE",
"439 800 OFFCURVE",
"439 777 QCURVE SMOOTH",
"439 765 LINE SMOOTH",
"439 757 OFFCURVE",
"430 757 QCURVE SMOOTH",
"105 757 LINE SMOOTH",
"83 757 OFFCURVE",
"54 727 OFFCURVE",
"54 683 OFFCURVE",
"83 653 OFFCURVE",
"105 653 QCURVE SMOOTH",
"430 653 LINE SMOOTH",
"439 653 OFFCURVE",
"439 645 QCURVE SMOOTH",
"439 612 LINE SMOOTH",
"439 603 OFFCURVE",
"430 603 QCURVE SMOOTH",
"184 603 LINE SMOOTH",
"161 603 OFFCURVE",
"127 570 OFFCURVE",
"127 547 QCURVE SMOOTH",
"127 273 LINE SMOOTH",
"127 250 OFFCURVE",
"161 217 OFFCURVE",
"184 217 QCURVE SMOOTH",
"252 217 LINE",
"378 217 LINE SMOOTH",
"380 217 OFFCURVE",
"382 213 OFFCURVE",
"380 212 QCURVE SMOOTH",
"252 148 OFFCURVE",
"85 59 QCURVE",
"85 59 LINE"
);
},
{
closed = 1;
nodes = (
"575 510 OFFCURVE",
"584 510 QCURVE SMOOTH",
"753 510 LINE SMOOTH",
"762 510 OFFCURVE",
"762 501 QCURVE SMOOTH",
"762 460 LINE SMOOTH",
"762 452 OFFCURVE",
"753 452 QCURVE SMOOTH",
"584 452 LINE SMOOTH",
"575 452 OFFCURVE",
"575 460 QCURVE SMOOTH",
"575 501 LINE",
"575 501 LINE"
);
},
{
closed = 1;
nodes = (
"575 368 OFFCURVE",
"584 368 QCURVE SMOOTH",
"753 368 LINE SMOOTH",
"762 368 OFFCURVE",
"762 360 QCURVE SMOOTH",
"762 315 LINE SMOOTH",
"762 307 OFFCURVE",
"753 307 QCURVE SMOOTH",
"584 307 LINE SMOOTH",
"575 307 OFFCURVE",
"575 315 QCURVE SMOOTH",
"575 360 LINE",
"575 360 LINE"
);
},
{
closed = 1;
nodes = (
"252 510 OFFCURVE",
"261 510 QCURVE SMOOTH",
"430 510 LINE SMOOTH",
"439 510 OFFCURVE",
"439 501 QCURVE SMOOTH",
"439 460 LINE SMOOTH",
"439 452 OFFCURVE",
"430 452 QCURVE SMOOTH",
"261 452 LINE SMOOTH",
"252 452 OFFCURVE",
"252 460 QCURVE SMOOTH",
"252 501 LINE",
"252 501 LINE"
);
},
{
closed = 1;
nodes = (
"252 307 OFFCURVE",
"252 315 QCURVE SMOOTH",
"252 360 LINE SMOOTH",
"252 368 OFFCURVE",
"261 368 QCURVE SMOOTH",
"430 368 LINE SMOOTH",
"439 368 OFFCURVE",
"439 360 QCURVE SMOOTH",
"439 315 LINE SMOOTH",
"439 307 OFFCURVE",
"430 307 QCURVE SMOOTH",
"261 307 LINE",
"261 307 LINE"
);
}
);
width = 1000;
}
);
unicode = 6771;
},
{
export = 0;
glyphname = uni6C38;
layers = (
{
layerId = "F0262224-B9C7-46EB-9294-168F9DBDA589";
paths = (
{
closed = 1;
nodes = (
"678 672 OFFCURVE",
"685 693 QCURVE SMOOTH",
"688 702 OFFCURVE",
"679 719 OFFCURVE",
"670 722 QCURVE SMOOTH",
"489 781 OFFCURVE",
"311 811 QCURVE SMOOTH",
"290 814 OFFCURVE",
"285 793 QCURVE SMOOTH",
"283 784 OFFCURVE",
"293 770 OFFCURVE",
"302 768 QCURVE SMOOTH",
"485 737 OFFCURVE",
"656 679 QCURVE",
"656 679 LINE"
);
},
{
closed = 1;
nodes = (
"54 65 OFFCURVE",
"49 46 OFFCURVE",
"61 30 OFFCURVE",
"82 26 OFFCURVE",
"90 31 QCURVE SMOOTH",
"297 163 OFFCURVE",
"400 355 QCURVE SMOOTH",
"408 371 OFFCURVE",
"420 399 OFFCURVE",
"426 430 OFFCURVE",
"416 448 OFFCURVE",
"401 448 QCURVE SMOOTH",
"90 448 LINE SMOOTH",
"81 448 OFFCURVE",
"69 435 OFFCURVE",
"69 417 OFFCURVE",
"81 405 OFFCURVE",
"90 405 QCURVE SMOOTH",
"368 405 LINE SMOOTH",
"377 405 OFFCURVE",
"373 397 QCURVE SMOOTH",
"278 206 OFFCURVE",
"62 70 QCURVE",
"62 70 LINE"
);
},
{
closed = 1;
nodes = (
"479 576 LINE SMOOTH",
"488 576 OFFCURVE",
"488 567 QCURVE SMOOTH",
"488 32 LINE SMOOTH",
"488 -13 OFFCURVE",
"470 -32 OFFCURVE",
"428 -32 QCURVE SMOOTH",
"377 -32 OFFCURVE",
"309 -28 QCURVE SMOOTH",
"300 -27 OFFCURVE",
"287 -39 OFFCURVE",
"287 -57 OFFCURVE",
"300 -70 OFFCURVE",
"309 -71 QCURVE SMOOTH",
"380 -75 OFFCURVE",
"435 -75 QCURVE SMOOTH",
"501 -75 OFFCURVE",
"537 -37 OFFCURVE",
"537 33 QCURVE SMOOTH",
"537 498 LINE",
"538 500 OFFCURVE",
"540 500 QCURVE",
"602 360 OFFCURVE",
"795 112 OFFCURVE",
"913 23 QCURVE SMOOTH",
"921 17 OFFCURVE",
"942 20 OFFCURVE",
"948 28 QCURVE SMOOTH",
"963 47 OFFCURVE",
"944 61 QCURVE SMOOTH",
"791 175 OFFCURVE",
"675 345 QCURVE",
"670 351 OFFCURVE",
"677 356 QCURVE SMOOTH",
"800 444 OFFCURVE",
"909 580 QCURVE SMOOTH",
"923 597 OFFCURVE",
"904 612 QCURVE SMOOTH",
"886 626 OFFCURVE",
"872 608 QCURVE SMOOTH",
"769 479 OFFCURVE",
"653 396 QCURVE SMOOTH",
"645 390 OFFCURVE",
"641 397 QCURVE SMOOTH",
"590 483 OFFCURVE",
"556 566 QCURVE SMOOTH",
"547 590 OFFCURVE",
"505 619 OFFCURVE",
"480 619 QCURVE SMOOTH",
"226 619 LINE SMOOTH",
"217 619 OFFCURVE",
"204 607 OFFCURVE",
"204 589 OFFCURVE",
"217 576 OFFCURVE",
"226 576 QCURVE",
"226 576 LINE"
);
}
);
width = 1000;
},
{
layerId = "2E7D65B2-411D-4607-BF7C-7C0096008F1D";
paths = (
{
closed = 1;
nodes = (
"312 826 OFFCURVE",
"271 799 OFFCURVE",
"264 776 QCURVE SMOOTH",
"258 754 OFFCURVE",
"282 716 OFFCURVE",
"304 713 QCURVE SMOOTH",
"472 689 OFFCURVE",
"620 650 QCURVE SMOOTH",
"643 644 OFFCURVE",
"686 666 OFFCURVE",
"694 689 QCURVE SMOOTH",
"695 692 LINE SMOOTH",
"703 714 OFFCURVE",
"681 754 OFFCURVE",
"659 760 QCURVE SMOOTH",
"499 802 OFFCURVE",
"336 823 QCURVE",
"336 823 LINE"
);
},
{
closed = 1;
nodes = (
"83 7 OFFCURVE",
"130 1 OFFCURVE",
"148 16 QCURVE SMOOTH",
"305 143 OFFCURVE",
"380 293 QCURVE SMOOTH",
"406 344 OFFCURVE",
"403 401 QCURVE SMOOTH",
"402 422 OFFCURVE",
"372 452 OFFCURVE",
"350 452 QCURVE SMOOTH",
"113 452 LINE SMOOTH",
"91 452 OFFCURVE",
"60 420 OFFCURVE",
"60 376 OFFCURVE",
"91 345 OFFCURVE",
"113 345 QCURVE SMOOTH",
"270 345 LINE SMOOTH",
"278 345 OFFCURVE",
"274 337 QCURVE SMOOTH",
"212 223 OFFCURVE",
"70 116 QCURVE SMOOTH",
"52 102 OFFCURVE",
"45 56 OFFCURVE",
"59 38 QCURVE SMOOTH",
"69 26 LINE",
"69 26 LINE"
);
},
{
closed = 1;
nodes = (
"823 207 OFFCURVE",
"735 329 QCURVE SMOOTH",
"730 336 OFFCURVE",
"736 341 QCURVE SMOOTH",
"838 422 OFFCURVE",
"927 536 QCURVE SMOOTH",
"941 555 OFFCURVE",
"935 601 OFFCURVE",
"916 615 QCURVE SMOOTH",
"908 621 LINE SMOOTH",
"889 635 OFFCURVE",
"844 629 OFFCURVE",
"829 611 QCURVE SMOOTH",
"749 512 OFFCURVE",
"671 447 QCURVE SMOOTH",
"669 445 OFFCURVE",
"661 446 OFFCURVE",
"660 449 QCURVE",
"625 514 OFFCURVE",
"601 577 QCURVE SMOOTH",
"592 601 OFFCURVE",
"551 632 OFFCURVE",
"526 632 QCURVE SMOOTH",
"238 632 LINE SMOOTH",
"215 632 OFFCURVE",
"183 600 OFFCURVE",
"183 554 OFFCURVE",
"215 522 OFFCURVE",
"238 522 QCURVE SMOOTH",
"441 522 LINE SMOOTH",
"450 522 OFFCURVE",
"450 513 QCURVE SMOOTH",
"450 67 LINE SMOOTH",
"450 33 OFFCURVE",
"438 20 OFFCURVE",
"405 20 QCURVE SMOOTH",
"363 20 OFFCURVE",
"326 22 QCURVE SMOOTH",
"303 23 OFFCURVE",
"272 -8 OFFCURVE",
"273 -30 QCURVE SMOOTH",
"275 -53 OFFCURVE",
"308 -86 OFFCURVE",
"331 -87 QCURVE SMOOTH",
"400 -90 OFFCURVE",
"431 -90 QCURVE SMOOTH",
"487 -90 OFFCURVE",
"540 -82 OFFCURVE",
"576 -45 OFFCURVE",
"583 13 OFFCURVE",
"583 73 QCURVE SMOOTH",
"583 355 LINE",
"585 358 OFFCURVE",
"587 357 QCURVE",
"697 145 OFFCURVE",
"852 8 QCURVE SMOOTH",
"870 -8 OFFCURVE",
"917 -3 OFFCURVE",
"932 15 QCURVE SMOOTH",
"945 29 LINE SMOOTH",
"960 47 OFFCURVE",
"955 94 OFFCURVE",
"937 109 QCURVE",
"937 109 LINE"
);
}
);
width = 1000;
}
);
unicode = 6C38;
},
{
glyphname = "a-hira";
layers = (
{
anchors = (
{
name = LSB;
position = "{97, 370}";
},
{
name = RSB;
position = "{947, -54}";
}
);
layerId = "F0262224-B9C7-46EB-9294-168F9DBDA589";
paths = (
{
closed = 1;
nodes = (
"508 -35 OFFCURVE",
"510 -35 OFFCURVE",
"511 -34 CURVE",
"702 11 OFFCURVE",
"843 158 OFFCURVE",
"841 321 CURVE SMOOTH",
"840 456 OFFCURVE",
"733 558 OFFCURVE",
"591 558 CURVE SMOOTH",
"345 558 OFFCURVE",
"209 384 OFFCURVE",
"209 263 CURVE SMOOTH",
"209 183 OFFCURVE",
"237 142 OFFCURVE",
"293 142 CURVE SMOOTH",
"361 142 OFFCURVE",
"499 291 OFFCURVE",
"546 421 CURVE SMOOTH",
"550 432 OFFCURVE",
"544 444 OFFCURVE",
"533 448 CURVE SMOOTH",
"522 452 OFFCURVE",
"510 446 OFFCURVE",
"506 435 CURVE SMOOTH",
"456 297 OFFCURVE",
"326 184 OFFCURVE",
"293 184 CURVE SMOOTH",
"279 184 OFFCURVE",
"251 184 OFFCURVE",
"251 263 CURVE SMOOTH",
"251 419 OFFCURVE",
"449 515 OFFCURVE",
"591 515 CURVE SMOOTH",
"709 515 OFFCURVE",
"798 432 OFFCURVE",
"799 321 CURVE SMOOTH",
"800 177 OFFCURVE",
"673 48 OFFCURVE",
"502 7 CURVE SMOOTH",
"490 4 OFFCURVE",
"483 -7 OFFCURVE",
"486 -18 CURVE",
"488 -28 OFFCURVE",
"497 -35 OFFCURVE",
"506 -35 CURVE SMOOTH"
);
},
{
closed = 1;
nodes = (
"486 215 OFFCURVE",
"497 231 OFFCURVE",
"491 245 CURVE",
"468 301 OFFCURVE",
"446 436 OFFCURVE",
"472 758 CURVE SMOOTH",
"473 770 LINE SMOOTH",
"474 782 OFFCURVE",
"465 792 OFFCURVE",
"453 793 CURVE SMOOTH",
"441 794 OFFCURVE",
"431 785 OFFCURVE",
"430 773 CURVE SMOOTH",
"429 762 LINE SMOOTH",
"408 496 OFFCURVE",
"416 317 OFFCURVE",
"452 228 CURVE SMOOTH",
"455 220 OFFCURVE",
"463 215 OFFCURVE",
"471 215 CURVE SMOOTH"
);
},
{
closed = 1;
nodes = (
"455 615 OFFCURVE",
"517 635 OFFCURVE",
"561 667 CURVE SMOOTH",
"571 674 OFFCURVE",
"573 687 OFFCURVE",
"566 696 CURVE",
"559 706 OFFCURVE",
"546 708 OFFCURVE",
"536 701 CURVE SMOOTH",
"467 650 OFFCURVE",
"353 643 OFFCURVE",
"308 685 CURVE SMOOTH",
"299 693 OFFCURVE",
"286 693 OFFCURVE",
"278 684 CURVE",
"270 676 OFFCURVE",
"270 662 OFFCURVE",
"279 654 CURVE SMOOTH",
"308 627 OFFCURVE",
"351 615 OFFCURVE",
"396 615 CURVE SMOOTH"
);
}
);
width = 1000;
},
{
anchors = (
{
name = LSB;
position = "{67, 370}";
},
{
name = RSB;
position = "{977, 266}";
}
);
layerId = "2E7D65B2-411D-4607-BF7C-7C0096008F1D";
paths = (
{
closed = 1;
nodes = (
"511 -63 OFFCURVE",
"517 -62 OFFCURVE",
"522 -61 CURVE SMOOTH",
"736 -18 OFFCURVE",
"877 141 OFFCURVE",
"875 310 CURVE SMOOTH",
"873 454 OFFCURVE",
"749 567 OFFCURVE",
"591 567 CURVE SMOOTH",
"370 567 OFFCURVE",
"175 415 OFFCURVE",
"175 243 CURVE SMOOTH",
"175 146 OFFCURVE",
"217 93 OFFCURVE",
"293 93 CURVE SMOOTH",
"390 93 OFFCURVE",
"554 239 OFFCURVE",
"597 365 CURVE SMOOTH",
"608 397 OFFCURVE",
"603 424 OFFCURVE",
"576 435 CURVE SMOOTH",
"549 446 OFFCURVE",
"522 435 OFFCURVE",
"513 409 CURVE SMOOTH",
"467 277 OFFCURVE",
"336 196 OFFCURVE",
"303 196 CURVE SMOOTH",
"288 196 OFFCURVE",
"278 213 OFFCURVE",
"278 243 CURVE SMOOTH",
"278 361 OFFCURVE",
"433 484 OFFCURVE",
"591 484 CURVE SMOOTH",
"683 484 OFFCURVE",
"764 403 OFFCURVE",
"765 310 CURVE SMOOTH",
"766 185 OFFCURVE",
"657 78 OFFCURVE",
"494 36 CURVE SMOOTH",
"463 28 OFFCURVE",
"447 4 OFFCURVE",
"453 -24 CURVE SMOOTH",
"458 -46 OFFCURVE",
"480 -63 OFFCURVE",
"506 -63 CURVE SMOOTH"
);
},
{
closed = 1;
nodes = (
"522 131 OFFCURVE",
"551 162 OFFCURVE",
"532 201 CURVE SMOOTH",
"496 274 OFFCURVE",
"485 489 OFFCURVE",
"506 736 CURVE SMOOTH",
"507 748 LINE SMOOTH",
"509 776 OFFCURVE",
"487 799 OFFCURVE",
"456 802 CURVE SMOOTH",
"426 805 OFFCURVE",
"399 783 OFFCURVE",
"396 755 CURVE SMOOTH",
"395 744 LINE SMOOTH",
"372 492 OFFCURVE",
"391 266 OFFCURVE",
"431 162 CURVE SMOOTH",
"438 144 OFFCURVE",
"468 131 OFFCURVE",
"490 131 CURVE SMOOTH"
);
},
{
closed = 1;
nodes = (
"462 590 OFFCURVE",
"551 609 OFFCURVE",
"599 641 CURVE SMOOTH",
"625 658 OFFCURVE",
"625 689 OFFCURVE",
"611 710 CURVE SMOOTH",
"602 724 OFFCURVE",
"571 740 OFFCURVE",
"540 721 CURVE SMOOTH",
"480 684 OFFCURVE",
"348 679 OFFCURVE",
"316 696 CURVE SMOOTH",
"297 706 OFFCURVE",
"272 710 OFFCURVE",
"254 692 CURVE SMOOTH",
"238 676 OFFCURVE",
"230 641 OFFCURVE",
"256 621 CURVE SMOOTH",
"290 595 OFFCURVE",
"341 590 OFFCURVE",
"396 590 CURVE SMOOTH"
);
}
);
width = 1000;
}
);
unicode = 3042;
},
{
glyphname = "asmall-hira";
layers = (
{
anchors = (
{
name = LSB;
position = "{97, 370}";
},
{
name = RSB;
position = "{877, 246}";
}
);
layerId = "F0262224-B9C7-46EB-9294-168F9DBDA589";
paths = (
{
closed = 1;
nodes = (
"657 -12 OFFCURVE",
"769 109 OFFCURVE",
"767 240 CURVE SMOOTH",
"765 341 OFFCURVE",
"681 420 OFFCURVE",
"571 420 CURVE SMOOTH",
"380 420 OFFCURVE",
"273 284 OFFCURVE",
"273 189 CURVE SMOOTH",
"273 123 OFFCURVE",
"296 92 OFFCURVE",
"342 92 CURVE SMOOTH",
"398 92 OFFCURVE",
"506 208 OFFCURVE",
"540 308 CURVE SMOOTH",
"544 320 OFFCURVE",
"538 331 OFFCURVE",
"528 335 CURVE SMOOTH",
"517 339 OFFCURVE",
"505 333 OFFCURVE",
"501 323 CURVE",
"463 217 OFFCURVE",
"365 132 OFFCURVE",
"342 132 CURVE SMOOTH",
"331 132 OFFCURVE",
"313 132 OFFCURVE",
"313 189 CURVE SMOOTH",
"313 307 OFFCURVE",
"463 379 OFFCURVE",
"571 379 CURVE SMOOTH",
"656 379 OFFCURVE",
"726 318 OFFCURVE",
"727 240 CURVE SMOOTH",
"728 131 OFFCURVE",
"631 26 OFFCURVE",
"501 -4 CURVE SMOOTH",
"489 -7 OFFCURVE",
"483 -18 OFFCURVE",
"486 -28 CURVE SMOOTH",
"489 -39 OFFCURVE",
"497 -46 OFFCURVE",
"505 -44 CURVE SMOOTH"
);
},
{
closed = 1;
nodes = (
"481 147 OFFCURVE",
"486 148 OFFCURVE",
"489 149 CURVE SMOOTH",
"499 152 OFFCURVE",
"503 166 OFFCURVE",
"498 177 CURVE SMOOTH",
"471 236 OFFCURVE",
"467 373 OFFCURVE",
"484 578 CURVE",
"485 590 OFFCURVE",
"477 600 OFFCURVE",
"465 600 CURVE",
"453 601 OFFCURVE",
"444 593 OFFCURVE",
"443 582 CURVE SMOOTH",
"427 382 OFFCURVE",
"431 237 OFFCURVE",
"460 160 CURVE SMOOTH",
"463 153 OFFCURVE",
"471 147 OFFCURVE",
"478 147 CURVE SMOOTH"
);
},
{
closed = 1;
nodes = (
"467 456 OFFCURVE",
"515 472 OFFCURVE",
"550 497 CURVE SMOOTH",
"560 504 OFFCURVE",
"561 517 OFFCURVE",
"555 524 CURVE",
"549 533 OFFCURVE",
"537 536 OFFCURVE",
"526 529 CURVE",
"476 492 OFFCURVE",
"390 484 OFFCURVE",
"355 516 CURVE",
"348 525 OFFCURVE",
"334 524 OFFCURVE",
"327 515 CURVE",
"319 507 OFFCURVE",
"320 494 OFFCURVE",
"329 487 CURVE",
"351 467 OFFCURVE",
"384 456 OFFCURVE",
"421 456 CURVE SMOOTH"
);
}
);
width = 1000;
},
{
anchors = (
{
name = LSB;
position = "{107, 370}";
},
{
name = RSB;
position = "{907, 255}";
}
);
layerId = "2E7D65B2-411D-4607-BF7C-7C0096008F1D";
paths = (
{
closed = 1;
nodes = (
"689 -39 OFFCURVE",
"801 112 OFFCURVE",
"801 240 CURVE SMOOTH",
"801 358 OFFCURVE",
"699 451 OFFCURVE",
"571 451 CURVE SMOOTH",
"395 451 OFFCURVE",
"239 328 OFFCURVE",
"239 189 CURVE SMOOTH",
"239 107 OFFCURVE",
"275 63 OFFCURVE",
"342 63 CURVE SMOOTH",
"428 63 OFFCURVE",
"567 179 OFFCURVE",
"606 282 CURVE SMOOTH",
"617 311 OFFCURVE",
"609 334 OFFCURVE",
"581 344 CURVE SMOOTH",
"559 352 OFFCURVE",
"529 339 OFFCURVE",
"520 318 CURVE SMOOTH",
"483 232 OFFCURVE",
"394 153 OFFCURVE",
"360 153 CURVE SMOOTH",
"341 153 OFFCURVE",
"330 166 OFFCURVE",
"330 189 CURVE SMOOTH",
"330 274 OFFCURVE",
"457 370 OFFCURVE",
"571 370 CURVE SMOOTH",
"643 370 OFFCURVE",
"693 317 OFFCURVE",
"693 240 CURVE SMOOTH",
"693 133 OFFCURVE",
"620 54 OFFCURVE",
"494 24 CURVE SMOOTH",
"462 17 OFFCURVE",
"445 -8 OFFCURVE",
"453 -36 CURVE SMOOTH",
"459 -59 OFFCURVE",
"485 -77 OFFCURVE",
"507 -73 CURVE SMOOTH"
);
},
{
closed = 1;
nodes = (
"491 70 OFFCURVE",
"500 71 OFFCURVE",
"503 72 CURVE SMOOTH",
"531 82 OFFCURVE",
"544 109 OFFCURVE",
"536 139 CURVE SMOOTH",
"498 269 OFFCURVE",
"501 368 OFFCURVE",
"517 561 CURVE SMOOTH",
"520 598 OFFCURVE",
"501 621 OFFCURVE",
"467 622 CURVE SMOOTH",
"434 625 OFFCURVE",
"411 605 OFFCURVE",
"408 569 CURVE SMOOTH",
"392 370 OFFCURVE",
"400 240 OFFCURVE",
"434 101 CURVE SMOOTH",
"438 84 OFFCURVE",
"462 70 OFFCURVE",
"484 70 CURVE SMOOTH"
);
},
{
closed = 1;
nodes = (
"465 451 OFFCURVE",
"519 463 OFFCURVE",
"582 487 CURVE SMOOTH",
"608 498 OFFCURVE",
"619 524 OFFCURVE",
"606 546 CURVE SMOOTH",
"595 563 OFFCURVE",
"562 567 OFFCURVE",
"526 554 CURVE SMOOTH",
"468 533 OFFCURVE",
"411 531 OFFCURVE",
"355 553 CURVE SMOOTH",
"323 566 OFFCURVE",
"304 566 OFFCURVE",
"291 551 CURVE SMOOTH",
"270 526 OFFCURVE",
"272 502 OFFCURVE",
"297 482 CURVE SMOOTH",
"332 455 OFFCURVE",
"378 451 OFFCURVE",
"421 451 CURVE SMOOTH"
);
}
);
width = 1000;
}
);
unicode = 3041;
},
{
glyphname = "i-hira";
layers = (
{
anchors = (
{
name = BSB;
position = "{388, -98}";
},
{
name = LSB;
position = "{17, 490}";
},
{
name = RSB;
position = "{972, 336}";
},
{
name = TSB;
position = "{505, 794}";
}
);
layerId = "F0262224-B9C7-46EB-9294-168F9DBDA589";
paths = (
{
closed = 1;
nodes = (
"364 76 OFFCURVE",
"370 77 OFFCURVE",
"374 82 CURVE SMOOTH",
"379 89 OFFCURVE",
"379 100 OFFCURVE",
"375 107 CURVE",
"350 156 OFFCURVE",
"380 256 OFFCURVE",
"408 327 CURVE",
"413 337 OFFCURVE",
"408 350 OFFCURVE",
"397 355 CURVE",
"386 359 OFFCURVE",
"374 354 OFFCURVE",
"369 344 CURVE",
"354 310 OFFCURVE",
"313 195 OFFCURVE",
"328 113 CURVE",
"343 119 LINE",
"260 194 OFFCURVE",
"217 298 OFFCURVE",
"193 408 CURVE SMOOTH",
"188 431 OFFCURVE",
"170 535 OFFCURVE",
"164 560 CURVE",
"162 572 OFFCURVE",
"150 579 OFFCURVE",
"139 576 CURVE SMOOTH",
"127 573 OFFCURVE",
"120 562 OFFCURVE",
"123 550 CURVE SMOOTH",
"132 515 OFFCURVE",
"145 436 OFFCURVE",
"152 395 CURVE SMOOTH",
"171 285 OFFCURVE",
"217 176 OFFCURVE",
"298 106 CURVE SMOOTH",
"319 88 OFFCURVE",
"338 76 OFFCURVE",
"358 76 CURVE SMOOTH"
);
},
{
closed = 1;
nodes = (
"890 301 LINE",
"902 302 OFFCURVE",
"911 313 OFFCURVE",
"910 324 CURVE SMOOTH",
"897 472 OFFCURVE",
"783 560 OFFCURVE",
"688 595 CURVE SMOOTH",
"677 599 OFFCURVE",
"665 593 OFFCURVE",
"661 582 CURVE SMOOTH",
"657 571 OFFCURVE",
"663 559 OFFCURVE",
"674 555 CURVE SMOOTH",
"758 525 OFFCURVE",
"855 448 OFFCURVE",
"867 321 CURVE SMOOTH",
"868 310 OFFCURVE",
"878 301 OFFCURVE",
"889 301 CURVE SMOOTH"
);
}
);
width = 1000;
},
{
anchors = (
{
name = BSB;
position = "{508, -98}";
},
{
name = LSB;
position = "{17, 490}";
},
{
name = RSB;
position = "{978, 336}";
},
{
name = TSB;
position = "{505, 794}";
}
);
layerId = "2E7D65B2-411D-4607-BF7C-7C0096008F1D";
paths = (
{
closed = 1;
nodes = (
"376 37 OFFCURVE",
"393 45 OFFCURVE",
"401 55 CURVE SMOOTH",
"415 72 OFFCURVE",
"416 92 OFFCURVE",
"405 110 CURVE",
"391 140 OFFCURVE",
"404 215 OFFCURVE",
"439 305 CURVE SMOOTH",
"450 333 OFFCURVE",
"439 360 OFFCURVE",
"410 372 CURVE SMOOTH",
"384 383 OFFCURVE",
"350 370 OFFCURVE",
"338 346 CURVE SMOOTH",
"320 310 OFFCURVE",
"275 178 OFFCURVE",
"296 88 CURVE",
"371 126 LINE",
"287 198 OFFCURVE",
"246 305 OFFCURVE",
"220 434 CURVE SMOOTH",
"212 474 OFFCURVE",
"201 542 OFFCURVE",
"198 556 CURVE SMOOTH",
"192 584 OFFCURVE",
"159 602 OFFCURVE",
"130 594 CURVE SMOOTH",
"100 586 OFFCURVE",
"83 562 OFFCURVE",
"90 533 CURVE SMOOTH",
"98 500 OFFCURVE",
"111 422 OFFCURVE",
"118 380 CURVE SMOOTH",
"140 249 OFFCURVE",
"195 141 OFFCURVE",
"276 74 CURVE SMOOTH",
"306 49 OFFCURVE",
"332 37 OFFCURVE",
"358 37 CURVE SMOOTH"
);
},
{
closed = 1;
nodes = (
"891 262 LINE SMOOTH",
"922 262 OFFCURVE",
"946 288 OFFCURVE",
"944 316 CURVE SMOOTH",
"934 449 OFFCURVE",
"839 561 OFFCURVE",
"699 613 CURVE SMOOTH",
"672 623 OFFCURVE",
"638 607 OFFCURVE",
"629 582 CURVE SMOOTH",
"619 555 OFFCURVE",
"633 528 OFFCURVE",
"663 517 CURVE SMOOTH",
"757 482 OFFCURVE",
"826 403 OFFCURVE",
"833 309 CURVE SMOOTH",
"835 283 OFFCURVE",
"860 262 OFFCURVE",
"889 262 CURVE SMOOTH"
);
}
);
width = 1000;
}
);
unicode = 3044;
},
{
glyphname = "ismall-hira";
layers = (
{
anchors = (
{
name = LSB;
position = "{77, 370}";
},
{
name = RSB;
position = "{937, 255}";
}
);
layerId = "F0262224-B9C7-46EB-9294-168F9DBDA589";
paths = (
{
closed = 1;
nodes = (
"392 15 OFFCURVE",
"397 18 OFFCURVE",
"400 22 CURVE SMOOTH",
"404 27 OFFCURVE",
"406 37 OFFCURVE",
"401 45 CURVE",
"386 73 OFFCURVE",
"395 131 OFFCURVE",
"427 210 CURVE",
"432 219 OFFCURVE",
"428 232 OFFCURVE",
"417 238 CURVE",
"406 242 OFFCURVE",
"395 237 OFFCURVE",
"390 227 CURVE",
"378 200 OFFCURVE",
"344 107 OFFCURVE",
"358 41 CURVE",
"380 50 LINE",
"308 114 OFFCURVE",
"266 208 OFFCURVE",
"254 318 CURVE SMOOTH",
"253 327 OFFCURVE",
"242 383 OFFCURVE",
"239 392 CURVE",
"237 403 OFFCURVE",
"227 411 OFFCURVE",
"215 408 CURVE",
"202 404 OFFCURVE",
"197 394 OFFCURVE",
"200 382 CURVE SMOOTH",
"207 356 OFFCURVE",
"217 295 OFFCURVE",
"222 263 CURVE SMOOTH",
"237 169 OFFCURVE",
"278 91 OFFCURVE",
"336 39 CURVE SMOOTH",
"356 21 OFFCURVE",
"369 15 OFFCURVE",
"385 15 CURVE SMOOTH"
);
},
{
closed = 1;
nodes = (
"794 188 LINE",
"795 188 LINE",
"805 189 OFFCURVE",
"814 199 OFFCURVE",
"813 211 CURVE SMOOTH",
"803 326 OFFCURVE",
"713 395 OFFCURVE",
"640 422 CURVE SMOOTH",
"629 426 OFFCURVE",
"618 420 OFFCURVE",
"614 410 CURVE SMOOTH",
"610 400 OFFCURVE",
"615 388 OFFCURVE",
"626 383 CURVE",
"690 361 OFFCURVE",
"763 303 OFFCURVE",
"772 207 CURVE SMOOTH",
"773 196 OFFCURVE",
"782 188 OFFCURVE",
"793 188 CURVE SMOOTH"
);
}
);
width = 1000;
},
{
anchors = (
{
name = LSB;
position = "{57, 370}";
},
{
name = RSB;
position = "{957, 255}";
}
);
layerId = "2E7D65B2-411D-4607-BF7C-7C0096008F1D";
paths = (
{
closed = 1;
nodes = (
"401 -14 OFFCURVE",
"419 -6 OFFCURVE",
"427 4 CURVE SMOOTH",
"441 21 OFFCURVE",
"442 41 OFFCURVE",
"431 59 CURVE SMOOTH",
"422 74 OFFCURVE",
"427 118 OFFCURVE",
"441 172 CURVE SMOOTH",
"449 202 OFFCURVE",
"446 223 OFFCURVE",
"426 231 CURVE SMOOTH",
"401 241 OFFCURVE",
"380 231 OFFCURVE",
"368 206 CURVE SMOOTH",
"354 178 OFFCURVE",
"338 137 OFFCURVE",
"347 67 CURVE",
"403 61 LINE",
"341 115 OFFCURVE",
"316 185 OFFCURVE",
"288 323 CURVE SMOOTH",
"286 333 OFFCURVE",
"274 393 OFFCURVE",
"272 399 CURVE SMOOTH",
"263 425 OFFCURVE",
"234 444 OFFCURVE",
"206 436 CURVE SMOOTH",
"175 427 OFFCURVE",
"160 403 OFFCURVE",
"167 375 CURVE SMOOTH",
"172 356 OFFCURVE",
"181 310 OFFCURVE",
"188 258 CURVE SMOOTH",
"201 158 OFFCURVE",
"248 73 OFFCURVE",
"315 17 CURVE SMOOTH",
"341 -5 OFFCURVE",
"361 -14 OFFCURVE",
"385 -14 CURVE SMOOTH"
);
},
{
closed = 1;
nodes = (
"794 159 LINE",
"796 159 LINE SMOOTH",
"827 159 OFFCURVE",
"849 185 OFFCURVE",
"847 213 CURVE SMOOTH",
"839 318 OFFCURVE",
"763 407 OFFCURVE",
"651 450 CURVE SMOOTH",
"625 460 OFFCURVE",
"593 445 OFFCURVE",
"583 421 CURVE SMOOTH",
"572 394 OFFCURVE",
"585 367 OFFCURVE",
"614 356 CURVE SMOOTH",
"682 330 OFFCURVE",
"730 274 OFFCURVE",
"738 205 CURVE SMOOTH",
"741 179 OFFCURVE",
"764 159 OFFCURVE",
"793 159 CURVE SMOOTH"
);
}
);
width = 1000;
}
);
unicode = 3043;
},
{
glyphname = "u-hira";
layers = (
{
anchors = (
{
name = LSB;
position = "{157, 440}";
},
{
name = RSB;
position = "{787, 306}";
}
);
layerId = "F0262224-B9C7-46EB-9294-168F9DBDA589";
paths = (
{
closed = 1;
nodes = (
"445 -64 OFFCURVE",
"449 -62 OFFCURVE",
"452 -60 CURVE SMOOTH",
"625 59 OFFCURVE",
"637 245 OFFCURVE",
"637 300 CURVE SMOOTH",
"637 418 OFFCURVE",
"610 523 OFFCURVE",
"510 523 CURVE SMOOTH",
"473 523 OFFCURVE",
"425 500 OFFCURVE",
"387 474 CURVE SMOOTH",
"372 463 OFFCURVE",
"349 453 OFFCURVE",
"331 453 CURVE SMOOTH",
"325 453 OFFCURVE",
"316 456 OFFCURVE",
"310 465 CURVE",
"303 474 OFFCURVE",
"290 476 OFFCURVE",
"280 469 CURVE SMOOTH",
"271 463 OFFCURVE",
"269 449 OFFCURVE",
"276 440 CURVE",
"287 424 OFFCURVE",
"310 411 OFFCURVE",
"331 411 CURVE SMOOTH",
"355 411 OFFCURVE",
"386 428 OFFCURVE",
"411 444 CURVE SMOOTH",
"442 464 OFFCURVE",
"479 482 OFFCURVE",
"508 481 CURVE SMOOTH",
"581 479 OFFCURVE",
"591 396 OFFCURVE",
"594 300 CURVE SMOOTH",
"596 250 OFFCURVE",
"582 80 OFFCURVE",
"428 -25 CURVE",
"419 -32 OFFCURVE",
"416 -45 OFFCURVE",
"423 -55 CURVE SMOOTH",
"427 -61 OFFCURVE",
"434 -64 OFFCURVE",
"440 -64 CURVE SMOOTH"
);
},
{
closed = 1;
nodes = (
"628 666 CURVE SMOOTH",
"638 666 OFFCURVE",
"647 673 OFFCURVE",
"649 684 CURVE SMOOTH",
"651 695 OFFCURVE",
"643 706 OFFCURVE",
"631 708 CURVE SMOOTH",
"572 717 OFFCURVE",
"513 752 OFFCURVE",
"456 812 CURVE SMOOTH",
"448 820 OFFCURVE",
"434 821 OFFCURVE",
"426 812 CURVE",
"417 804 OFFCURVE",
"417 791 OFFCURVE",
"425 782 CURVE",
"488 717 OFFCURVE",
"554 677 OFFCURVE"
);
}
);
width = 1000;
},
{
anchors = (
{
name = LSB;
position = "{117, 440}";
},
{
name = RSB;
position = "{838, 306}";
}
);
layerId = "2E7D65B2-411D-4607-BF7C-7C0096008F1D";
paths = (
{
closed = 1;
nodes = (
"451 -71 OFFCURVE",
"464 -67 OFFCURVE",
"471 -62 CURVE SMOOTH",
"656 70 OFFCURVE",
"671 244 OFFCURVE",
"671 300 CURVE SMOOTH",
"671 466 OFFCURVE",
"616 552 OFFCURVE",
"510 552 CURVE SMOOTH",
"468 552 OFFCURVE",
"428 535 OFFCURVE",
"380 501 CURVE SMOOTH",
"376 498 OFFCURVE",
"348 480 OFFCURVE",
"339 480 CURVE SMOOTH",
"331 480 OFFCURVE",
"319 486 OFFCURVE",
"307 496 CURVE SMOOTH",
"297 504 OFFCURVE",
"274 507 OFFCURVE",
"258 496 CURVE SMOOTH",
"235 480 OFFCURVE",
"234 443 OFFCURVE",
"249 423 CURVE SMOOTH",
"265 401 OFFCURVE",
"299 382 OFFCURVE",
"331 382 CURVE SMOOTH",
"365 382 OFFCURVE",
"405 404 OFFCURVE",
"429 420 CURVE SMOOTH",
"465 442 OFFCURVE",
"491 453 OFFCURVE",
"507 452 CURVE SMOOTH",
"541 451 OFFCURVE",
"565 404 OFFCURVE",
"565 299 CURVE SMOOTH",
"565 250 OFFCURVE",
"548 118 OFFCURVE",
"408 20 CURVE SMOOTH",
"383 2 OFFCURVE",
"378 -25 OFFCURVE",
"395 -50 CURVE SMOOTH",
"403 -61 OFFCURVE",
"423 -71 OFFCURVE",
"440 -71 CURVE SMOOTH"
);
},
{
closed = 1;
nodes = (
"628 637 CURVE SMOOTH",
"655 634 OFFCURVE",
"678 655 OFFCURVE",
"683 679 CURVE SMOOTH",
"687 707 OFFCURVE",
"667 732 OFFCURVE",
"637 737 CURVE SMOOTH",
"573 746 OFFCURVE",
"531 768 OFFCURVE",
"482 817 CURVE SMOOTH",
"462 836 OFFCURVE",
"433 839 OFFCURVE",
"415 823 CURVE SMOOTH",
"394 804 OFFCURVE",
"398 768 OFFCURVE",
"415 746 CURVE SMOOTH",
"457 692 OFFCURVE",
"534 647 OFFCURVE"
);
}
);
width = 1000;
}
);
unicode = 3046;
},
{
glyphname = "usmall-hira";
layers = (
{
anchors = (
{
name = LSB;
position = "{197, 370}";
},
{
name = RSB;
position = "{742, 255}";
}
);
layerId = "F0262224-B9C7-46EB-9294-168F9DBDA589";
paths = (
{
closed = 1;
nodes = (
"450 -79 OFFCURVE",
"454 -77 OFFCURVE",
"457 -75 CURVE SMOOTH",
"593 16 OFFCURVE",
"601 164 OFFCURVE",
"601 206 CURVE SMOOTH",
"601 323 OFFCURVE",
"567 382 OFFCURVE",
"499 382 CURVE SMOOTH",
"472 382 OFFCURVE",
"434 369 OFFCURVE",
"401 344 CURVE SMOOTH",
"389 335 OFFCURVE",
"373 329 OFFCURVE",
"361 329 CURVE SMOOTH",
"356 329 OFFCURVE",
"352 331 OFFCURVE",
"349 336 CURVE SMOOTH",
"342 345 OFFCURVE",
"329 347 OFFCURVE",
"319 340 CURVE SMOOTH",
"310 333 OFFCURVE",
"307 319 OFFCURVE",
"315 311 CURVE SMOOTH",
"324 296 OFFCURVE",
"344 286 OFFCURVE",
"361 286 CURVE SMOOTH",
"377 286 OFFCURVE",
"400 296 OFFCURVE",
"425 313 CURVE SMOOTH",
"448 328 OFFCURVE",
"476 341 OFFCURVE",
"497 340 CURVE SMOOTH",
"549 338 OFFCURVE",
"556 280 OFFCURVE",
"558 206 CURVE SMOOTH",
"559 167 OFFCURVE",
"549 40 OFFCURVE",
"433 -40 CURVE SMOOTH",
"423 -48 OFFCURVE",
"421 -61 OFFCURVE",
"428 -70 CURVE SMOOTH",
"432 -76 OFFCURVE",
"438 -79 OFFCURVE",
"445 -79 CURVE SMOOTH"
);
},
{
closed = 1;
nodes = (
"594 481 OFFCURVE",
"607 484 OFFCURVE",
"611 500 CURVE SMOOTH",
"612 512 OFFCURVE",
"605 522 OFFCURVE",
"593 525 CURVE SMOOTH",
"548 532 OFFCURVE",
"505 559 OFFCURVE",
"461 603 CURVE SMOOTH",
"452 612 OFFCURVE",
"438 612 OFFCURVE",
"430 604 CURVE SMOOTH",
"422 596 OFFCURVE",
"421 583 OFFCURVE",
"429 574 CURVE SMOOTH",
"479 522 OFFCURVE",
"540 484 OFFCURVE",
"582 482 CURVE SMOOTH"
);
}
);
width = 1000;
},
{
anchors = (
{
name = LSB;
position = "{167, 370}";
},
{
name = RSB;
position = "{783, 255}";
}
);
layerId = "2E7D65B2-411D-4607-BF7C-7C0096008F1D";
paths = (
{
closed = 1;
nodes = (
"456 -108 OFFCURVE",
"469 -104 OFFCURVE",
"476 -99 CURVE SMOOTH",
"574 -34 OFFCURVE",
"635 88 OFFCURVE",
"635 218 CURVE SMOOTH",
"635 349 OFFCURVE",
"592 411 OFFCURVE",
"499 411 CURVE SMOOTH",
"464 411 OFFCURVE",
"424 397 OFFCURVE",
"390 367 CURVE SMOOTH",
"381 359 OFFCURVE",
"373 354 OFFCURVE",
"368 354 CURVE SMOOTH",
"363 354 OFFCURVE",
"353 360 OFFCURVE",
"350 363 CURVE SMOOTH",
"340 374 OFFCURVE",
"313 375 OFFCURVE",
"299 363 CURVE SMOOTH",
"279 347 OFFCURVE",
"269 319 OFFCURVE",
"288 293 CURVE SMOOTH",
"302 274 OFFCURVE",
"333 257 OFFCURVE",
"361 257 CURVE SMOOTH",
"384 257 OFFCURVE",
"415 269 OFFCURVE",
"443 289 CURVE SMOOTH",
"466 303 OFFCURVE",
"486 311 OFFCURVE",
"496 311 CURVE SMOOTH",
"521 310 OFFCURVE",
"534 278 OFFCURVE",
"536 205 CURVE SMOOTH",
"537 168 OFFCURVE",
"516 54 OFFCURVE",
"413 -17 CURVE SMOOTH",
"388 -36 OFFCURVE",
"383 -63 OFFCURVE",
"401 -87 CURVE SMOOTH",
"409 -100 OFFCURVE",
"427 -108 OFFCURVE",
"445 -108 CURVE SMOOTH"
);
},
{
closed = 1;
nodes = (
"619 453 OFFCURVE",
"638 467 OFFCURVE",
"645 495 CURVE SMOOTH",
"648 523 OFFCURVE",
"632 547 OFFCURVE",
"599 554 CURVE SMOOTH",
"565 561 OFFCURVE",
"513 595 OFFCURVE",
"485 624 CURVE SMOOTH",
"465 644 OFFCURVE",
"426 644 OFFCURVE",
"406 625 CURVE SMOOTH",
"385 603 OFFCURVE",
"384 577 OFFCURVE",
"404 555 CURVE SMOOTH",
"456 499 OFFCURVE",
"528 453 OFFCURVE",
"580 453 CURVE SMOOTH"
);
}
);
width = 1000;
}
);
unicode = 3045;
},
{
glyphname = "e-hira";
layers = (
{
anchors = (
{
name = LSB;
position = "{127, 370}";
},
{
name = RSB;
position = "{927, 146}";
}
);
layerId = "F0262224-B9C7-46EB-9294-168F9DBDA589";
paths = (
{
closed = 1;
nodes = (
"710 -24 OFFCURVE",
"780 -14 OFFCURVE",
"822 2 CURVE SMOOTH",
"833 6 OFFCURVE",
"838 18 OFFCURVE",
"834 29 CURVE SMOOTH",
"830 40 OFFCURVE",
"818 45 OFFCURVE",
"807 41 CURVE SMOOTH",
"753 21 OFFCURVE",
"639 12 OFFCURVE",
"589 25 CURVE SMOOTH",
"557 33 OFFCURVE",
"533 70 OFFCURVE",
"511 106 CURVE SMOOTH",
"485 146 OFFCURVE",
"460 187 OFFCURVE",
"418 187 CURVE SMOOTH",
"406 187 OFFCURVE",
"392 185 OFFCURVE",
"375 177 CURVE",
"382 170 LINE",
"426 235 OFFCURVE",
"465 289 OFFCURVE",
"496 332 CURVE SMOOTH",
"518 362 OFFCURVE",
"549 406 OFFCURVE",
"559 432 CURVE SMOOTH",
"565 447 OFFCURVE",
"565 458 OFFCURVE",
"562 467 CURVE SMOOTH",
"558 477 OFFCURVE",
"550 484 OFFCURVE",
"539 487 CURVE SMOOTH",
"521 492 OFFCURVE",
"494 483 OFFCURVE",
"397 446 CURVE SMOOTH",
"369 435 OFFCURVE",
"326 431 OFFCURVE",
"310 440 CURVE SMOOTH",
"300 446 OFFCURVE",
"287 442 OFFCURVE",
"281 432 CURVE SMOOTH",
"275 422 OFFCURVE",
"278 409 OFFCURVE",
"288 403 CURVE SMOOTH",
"324 382 OFFCURVE",
"390 398 OFFCURVE",
"412 406 CURVE SMOOTH",
"476 431 OFFCURVE",
"506 441 OFFCURVE",
"524 446 CURVE",
"520 450 LINE",
"519 432 OFFCURVE",
"360 217 OFFCURVE",
"286 101 CURVE SMOOTH",
"272 81 OFFCURVE",
"257 57 OFFCURVE",
"242 29 CURVE SMOOTH",
"237 19 OFFCURVE",
"241 6 OFFCURVE",
"251 0 CURVE",
"261 -5 OFFCURVE",
"273 -2 OFFCURVE",
"279 8 CURVE SMOOTH",
"322 78 LINE SMOOTH",
"365 134 OFFCURVE",
"399 144 OFFCURVE",
"418 144 CURVE SMOOTH",
"436 144 OFFCURVE",
"456 113 OFFCURVE",
"475 83 CURVE SMOOTH",
"501 42 OFFCURVE",
"530 -4 OFFCURVE",
"579 -17 CURVE SMOOTH",
"598 -21 OFFCURVE",
"624 -24 OFFCURVE",
"652 -24 CURVE SMOOTH"
);
},
{
closed = 1;
nodes = (
"471 594 OFFCURVE",
"476 596 OFFCURVE",
"480 599 CURVE SMOOTH",
"500 611 OFFCURVE",
"546 624 OFFCURVE",
"579 621 CURVE SMOOTH",
"590 619 OFFCURVE",
"604 629 OFFCURVE",
"602 646 CURVE SMOOTH",
"593 697 OFFCURVE",
"535 741 OFFCURVE",
"448 763 CURVE SMOOTH",
"436 766 OFFCURVE",
"425 759 OFFCURVE",
"422 747 CURVE SMOOTH",
"419 736 OFFCURVE",
"426 725 OFFCURVE",
"438 722 CURVE SMOOTH",
"494 706 OFFCURVE",
"537 682 OFFCURVE",
"553 655 CURVE",
"562 664 LINE",
"524 663 OFFCURVE",
"475 650 OFFCURVE",
"452 632 CURVE SMOOTH",
"443 624 OFFCURVE",
"442 611 OFFCURVE",
"450 602 CURVE SMOOTH",
"454 597 OFFCURVE",
"460 594 OFFCURVE",
"466 594 CURVE SMOOTH"
);
}
);
width = 1000;
},
{
anchors = (
{
name = LSB;
position = "{117, 440}";
},
{
name = RSB;
position = "{977, 306}";
}
);
layerId = "2E7D65B2-411D-4607-BF7C-7C0096008F1D";
paths = (
{
closed = 1;
nodes = (
"717 -53 OFFCURVE",
"792 -41 OFFCURVE",
"834 -25 CURVE SMOOTH",
"863 -15 OFFCURVE",
"876 12 OFFCURVE",
"866 39 CURVE SMOOTH",
"857 64 OFFCURVE",
"823 78 OFFCURVE",
"796 69 CURVE SMOOTH",
"745 50 OFFCURVE",
"641 42 OFFCURVE",
"598 53 CURVE SMOOTH",
"584 56 OFFCURVE",
"569 74 OFFCURVE",
"539 122 CURVE SMOOTH",
"515 160 OFFCURVE",
"481 216 OFFCURVE",
"418 216 CURVE SMOOTH",
"395 216 OFFCURVE",
"371 210 OFFCURVE",
"354 200 CURVE",
"403 144 LINE",
"452 214 OFFCURVE",
"492 272 OFFCURVE",
"523 315 CURVE SMOOTH",
"558 363 OFFCURVE",
"582 401 OFFCURVE",
"590 421 CURVE SMOOTH",
"599 441 OFFCURVE",
"600 459 OFFCURVE",
"594 477 CURVE SMOOTH",
"587 495 OFFCURVE",
"570 509 OFFCURVE",
"548 515 CURVE SMOOTH",
"522 523 OFFCURVE",
"494 515 OFFCURVE",
"384 473 CURVE SMOOTH",
"364 465 OFFCURVE",
"334 462 OFFCURVE",
"327 465 CURVE SMOOTH",
"296 479 OFFCURVE",
"265 470 OFFCURVE",
"251 447 CURVE SMOOTH",
"236 420 OFFCURVE",
"244 394 OFFCURVE",
"271 378 CURVE SMOOTH",
"306 357 OFFCURVE",
"379 380 OFFCURVE",
"429 397 CURVE",
"459 410 OFFCURVE",
"515 432 OFFCURVE",
"531 447 CURVE",
"494 465 LINE",
"486 452 OFFCURVE",
"267 131 OFFCURVE",
"258 117 CURVE",
"241 94 OFFCURVE",
"226 69 OFFCURVE",
"212 42 CURVE SMOOTH",
"199 16 OFFCURVE",
"208 -10 OFFCURVE",
"234 -25 CURVE SMOOTH",
"260 -38 OFFCURVE",
"295 -29 OFFCURVE",
"309 -7 CURVE SMOOTH",
"351 61 LINE SMOOTH",
"383 114 OFFCURVE",
"396 128 OFFCURVE",
"409 128 CURVE SMOOTH",
"416 128 OFFCURVE",
"435 104 OFFCURVE",
"451 68 CURVE SMOOTH",
"478 8 OFFCURVE",
"519 -32 OFFCURVE",
"571 -45 CURVE SMOOTH",
"595 -50 OFFCURVE",
"624 -53 OFFCURVE",
"652 -53 CURVE SMOOTH"
);
},
{
closed = 1;
nodes = (
"477 565 OFFCURVE",
"490 569 OFFCURVE",
"500 576 CURVE SMOOTH",
"517 586 OFFCURVE",
"551 593 OFFCURVE",
"576 592 CURVE SMOOTH",
"615 592 OFFCURVE",
"641 618 OFFCURVE",
"636 651 CURVE SMOOTH",
"625 713 OFFCURVE",
"556 766 OFFCURVE",
"456 791 CURVE SMOOTH",
"427 798 OFFCURVE",
"396 781 OFFCURVE",
"389 754 CURVE SMOOTH",
"381 727 OFFCURVE",
"400 700 OFFCURVE",
"431 694 CURVE SMOOTH",
"488 682 OFFCURVE",
"551 662 OFFCURVE",
"537 634 CURVE",
"592 641 LINE",
"564 670 OFFCURVE",
"468 662 OFFCURVE",
"440 641 CURVE SMOOTH",
"420 626 OFFCURVE",
"414 601 OFFCURVE",
"423 584 CURVE SMOOTH",
"428 574 OFFCURVE",
"450 565 OFFCURVE",
"466 565 CURVE SMOOTH"
);
}
);
width = 1000;
}
);
unicode = 3048;
},
{
glyphname = "esmall-hira";
layers = (
{
anchors = (
{
name = LSB;
position = "{187, 370}";
},
{
name = RSB;
position = "{887, 255}";
}
);
layerId = "F0262224-B9C7-46EB-9294-168F9DBDA589";
paths = (
{
closed = 1;
nodes = (
"625 -50 OFFCURVE",
"709 -46 OFFCURVE",
"759 -26 CURVE SMOOTH",
"769 -22 OFFCURVE",
"775 -11 OFFCURVE",
"771 1 CURVE SMOOTH",
"767 10 OFFCURVE",
"755 16 OFFCURVE",
"744 12 CURVE SMOOTH",
"702 -3 OFFCURVE",
"616 -10 OFFCURVE",
"579 0 CURVE SMOOTH",
"556 5 OFFCURVE",
"538 32 OFFCURVE",
"521 60 CURVE SMOOTH",
"502 92 OFFCURVE",
"481 124 OFFCURVE",
"447 124 CURVE SMOOTH",
"433 124 OFFCURVE",
"422 121 OFFCURVE",
"408 115 CURVE",
"419 101 LINE",
"525 251 OFFCURVE",
"536 278 OFFCURVE",
"553 302 CURVE SMOOTH",
"563 316 OFFCURVE",
"565 330 OFFCURVE",
"561 338 CURVE SMOOTH",
"557 347 OFFCURVE",
"549 353 OFFCURVE",
"541 355 CURVE SMOOTH",
"526 359 OFFCURVE",
"507 353 OFFCURVE",
"428 323 CURVE SMOOTH",
"407 315 OFFCURVE",
"381 312 OFFCURVE",
"367 318 CURVE SMOOTH",
"356 323 OFFCURVE",
"342 320 OFFCURVE",
"338 312 CURVE SMOOTH",
"333 303 OFFCURVE",
"335 288 OFFCURVE",
"345 283 CURVE SMOOTH",
"391 260 OFFCURVE",
"479 288 OFFCURVE",
"540 326 CURVE",
"524 324 LINE",
"498 288 OFFCURVE",
"474 250 OFFCURVE",
"460 229 CURVE SMOOTH",
"427 178 OFFCURVE",
"339 53 OFFCURVE",
"308 1 CURVE SMOOTH",
"302 -9 OFFCURVE",
"305 -21 OFFCURVE",
"317 -28 CURVE SMOOTH",
"327 -32 OFFCURVE",
"337 -28 OFFCURVE",
"343 -19 CURVE SMOOTH",
"354 -1 OFFCURVE",
"363 17 OFFCURVE",
"376 34 CURVE SMOOTH",
"407 74 OFFCURVE",
"417 91 OFFCURVE",
"447 91 CURVE SMOOTH",
"461 91 OFFCURVE",
"472 73 OFFCURVE",
"492 38 CURVE SMOOTH",
"510 6 OFFCURVE",
"531 -30 OFFCURVE",
"569 -41 CURVE SMOOTH"
);
},
{
closed = 1;
nodes = (
"487 429 OFFCURVE",
"492 431 OFFCURVE",
"496 434 CURVE SMOOTH",
"508 443 OFFCURVE",
"547 452 OFFCURVE",
"570 450 CURVE SMOOTH",
"578 449 OFFCURVE",
"583 453 OFFCURVE",
"587 456 CURVE SMOOTH",
"592 462 OFFCURVE",
"593 469 OFFCURVE",
"592 474 CURVE SMOOTH",
"584 515 OFFCURVE",
"537 552 OFFCURVE",
"471 567 CURVE SMOOTH",
"459 570 OFFCURVE",
"448 565 OFFCURVE",
"446 552 CURVE SMOOTH",
"445 543 OFFCURVE",
"449 531 OFFCURVE",
"461 528 CURVE SMOOTH",
"501 517 OFFCURVE",
"540 495 OFFCURVE",
"548 473 CURVE",
"567 491 LINE",
"534 492 OFFCURVE",
"489 480 OFFCURVE",
"471 466 CURVE SMOOTH",
"461 457 OFFCURVE",
"461 444 OFFCURVE",
"468 437 CURVE SMOOTH",
"473 431 OFFCURVE",
"479 429 OFFCURVE",
"484 429 CURVE SMOOTH"
);
}
);
width = 1000;
},
{
anchors = (
{
name = LSB;
position = "{167, 370}";
},
{
name = RSB;
position = "{911, 255}";
}
);
layerId = "2E7D65B2-411D-4607-BF7C-7C0096008F1D";
paths = (
{
closed = 1;
nodes = (
"675 -76 OFFCURVE",
"735 -67 OFFCURVE",
"771 -54 CURVE SMOOTH",
"799 -42 OFFCURVE",
"812 -17 OFFCURVE",
"801 11 CURVE SMOOTH",
"791 34 OFFCURVE",
"758 48 OFFCURVE",
"732 39 CURVE SMOOTH",
"691 25 OFFCURVE",
"640 17 OFFCURVE",
"602 17 CURVE SMOOTH",
"587 17 OFFCURVE",
"569 35 OFFCURVE",
"550 73 CURVE SMOOTH",
"525 121 OFFCURVE",
"505 153 OFFCURVE",
"461 153 CURVE SMOOTH",
"432 153 OFFCURVE",
"401 139 OFFCURVE",
"388 120 CURVE",
"454 92 LINE",
"515 178 OFFCURVE",
"583 280 OFFCURVE",
"589 294 CURVE SMOOTH",
"598 315 OFFCURVE",
"599 333 OFFCURVE",
"591 349 CURVE SMOOTH",
"584 364 OFFCURVE",
"568 377 OFFCURVE",
"549 382 CURVE SMOOTH",
"524 389 OFFCURVE",
"495 380 OFFCURVE",
"414 349 CURVE SMOOTH",
"404 345 OFFCURVE",
"361 339 OFFCURVE",
"351 343 CURVE SMOOTH",
"322 352 OFFCURVE",
"286 350 OFFCURVE",
"277 325 CURVE SMOOTH",
"266 296 OFFCURVE",
"279 267 OFFCURVE",
"309 260 CURVE SMOOTH",
"406 240 OFFCURVE",
"511 295 OFFCURVE",
"546 325 CURVE",
"531 366 LINE",
"493 316 OFFCURVE",
"434 247 OFFCURVE",
"408 206 CURVE SMOOTH",
"389 177 OFFCURVE",
"307 65 OFFCURVE",
"277 14 CURVE SMOOTH",
"262 -12 OFFCURVE",
"271 -39 OFFCURVE",
"300 -55 CURVE SMOOTH",
"328 -67 OFFCURVE",
"358 -56 OFFCURVE",
"370 -36 CURVE SMOOTH",
"382 -19 OFFCURVE",
"396 4 OFFCURVE",
"404 17 CURVE SMOOTH",
"429 61 OFFCURVE",
"436 70 OFFCURVE",
"442 70 CURVE SMOOTH",
"450 70 OFFCURVE",
"466 41 OFFCURVE",
"475 20 CURVE SMOOTH",
"501 -38 OFFCURVE",
"548 -76 OFFCURVE",
"626 -76 CURVE SMOOTH"
);
},
{
closed = 1;
nodes = (
"489 403 OFFCURVE",
"500 408 OFFCURVE",
"511 412 CURVE SMOOTH",
"529 419 OFFCURVE",
"541 422 OFFCURVE",
"561 420 CURVE SMOOTH",
"577 418 OFFCURVE",
"597 424 OFFCURVE",
"609 433 CURVE SMOOTH",
"622 447 OFFCURVE",
"627 461 OFFCURVE",
"625 478 CURVE SMOOTH",
"616 531 OFFCURVE",
"561 574 OFFCURVE",
"478 594 CURVE SMOOTH",
"450 601 OFFCURVE",
"420 586 OFFCURVE",
"413 561 CURVE SMOOTH",
"403 534 OFFCURVE",
"420 510 OFFCURVE",
"453 503 CURVE SMOOTH",
"499 489 OFFCURVE",
"519 475 OFFCURVE",
"530 450 CURVE",
"598 477 LINE",
"563 499 OFFCURVE",
"472 478 OFFCURVE",
"454 462 CURVE SMOOTH",
"440 448 OFFCURVE",
"436 433 OFFCURVE",
"445 418 CURVE SMOOTH",
"450 411 OFFCURVE",
"468 403 OFFCURVE",
"483 403 CURVE SMOOTH"
);
}
);
width = 1000;
}
);
unicode = 3047;
},
{
glyphname = "o-hira";
layers = (
{
layerId = "F0262224-B9C7-46EB-9294-168F9DBDA589";
paths = (
{
closed = 1;
nodes = (
"665 48 OFFCURVE",
"828 168 OFFCURVE",
"828 295 CURVE SMOOTH",
"828 376 OFFCURVE",
"771 423 OFFCURVE",
"674 421 CURVE SMOOTH",
"595 419 OFFCURVE",
"469 342 OFFCURVE",
"342 258 CURVE SMOOTH",
"254 200 OFFCURVE",
"147 129 OFFCURVE",
"110 126 CURVE SMOOTH",
"98 125 OFFCURVE",
"90 114 OFFCURVE",
"91 102 CURVE SMOOTH",
"92 90 OFFCURVE",
"103 82 OFFCURVE",
"115 83 CURVE SMOOTH",
"162 87 OFFCURVE",
"248 146 OFFCURVE",
"348 213 CURVE SMOOTH",
"458 287 OFFCURVE",
"608 377 OFFCURVE",
"674 378 CURVE SMOOTH",
"744 379 OFFCURVE",
"786 349 OFFCURVE",
"786 295 CURVE SMOOTH",
"786 190 OFFCURVE",
"643 91 OFFCURVE",
"492 91 CURVE SMOOTH",
"480 91 OFFCURVE",
"471 81 OFFCURVE",
"471 70 CURVE SMOOTH",
"471 58 OFFCURVE",
"480 48 OFFCURVE",
"492 48 CURVE SMOOTH"
);
},
{
closed = 1;
nodes = (
"346 0 OFFCURVE",
"362 7 OFFCURVE",
"363 24 CURVE SMOOTH",
"376 244 OFFCURVE",
"380 598 OFFCURVE",
"352 751 CURVE SMOOTH",
"350 762 OFFCURVE",
"337 768 OFFCURVE",
"326 765 CURVE SMOOTH",
"315 762 OFFCURVE",
"311 749 OFFCURVE",
"312 738 CURVE SMOOTH",
"334 573 OFFCURVE",
"336 221 OFFCURVE",
"319 33 CURVE",
"338 37 LINE",
"289 97 OFFCURVE",
"237 137 OFFCURVE",
"204 152 CURVE SMOOTH",
"193 157 OFFCURVE",
"180 152 OFFCURVE",
"176 141 CURVE SMOOTH",
"172 130 OFFCURVE",
"176 118 OFFCURVE",
"187 113 CURVE SMOOTH",
"211 102 OFFCURVE",
"241 73 OFFCURVE",
"265 49 CURVE SMOOTH",
"295 19 OFFCURVE",
"314 0 OFFCURVE",
"334 0 CURVE SMOOTH"
);
},
{
closed = 1;
nodes = (
"290 430 OFFCURVE",
"392 468 OFFCURVE",
"440 490 CURVE SMOOTH",
"451 495 OFFCURVE",
"455 509 OFFCURVE",
"449 519 CURVE SMOOTH",
"443 529 OFFCURVE",
"431 534 OFFCURVE",
"421 529 CURVE SMOOTH",
"358 497 OFFCURVE",
"230 461 OFFCURVE",
"134 478 CURVE SMOOTH",
"123 480 OFFCURVE",
"111 473 OFFCURVE",
"109 461 CURVE SMOOTH",
"107 450 OFFCURVE",
"114 439 OFFCURVE",
"125 436 CURVE SMOOTH",
"147 430 OFFCURVE",
"169 430 OFFCURVE",
"192 430 CURVE SMOOTH"
);
},
{
closed = 1;
nodes = (
"912 394 OFFCURVE",
"921 406 OFFCURVE",
"923 417 CURVE SMOOTH",
"936 503 OFFCURVE",
"854 574 OFFCURVE",
"771 581 CURVE SMOOTH",
"759 582 OFFCURVE",
"749 573 OFFCURVE",
"748 561 CURVE SMOOTH",
"747 550 OFFCURVE",
"756 539 OFFCURVE",
"768 538 CURVE SMOOTH",
"823 533 OFFCURVE",
"889 483 OFFCURVE",
"881 422 CURVE SMOOTH",
"879 407 OFFCURVE",
"891 398 OFFCURVE",
"901 396 CURVE SMOOTH"
);
}
);
width = 1000;
},
{
layerId = "2E7D65B2-411D-4607-BF7C-7C0096008F1D";
paths = (
{
closed = 1;
nodes = (
"683 19 OFFCURVE",
"861 152 OFFCURVE",
"861 295 CURVE SMOOTH",
"861 392 OFFCURVE",
"788 452 OFFCURVE",
"673 450 CURVE SMOOTH",
"583 448 OFFCURVE",
"447 378 OFFCURVE",
"321 295 CURVE SMOOTH",
"254 251 OFFCURVE",
"150 169 OFFCURVE",
"105 155 CURVE SMOOTH",
"76 146 OFFCURVE",
"54 128 OFFCURVE",
"56 100 CURVE SMOOTH",
"58 72 OFFCURVE",
"87 50 OFFCURVE",
"118 54 CURVE SMOOTH",
"179 62 OFFCURVE",
"296 178 OFFCURVE",
"361 218 CURVE SMOOTH",
"537 325 OFFCURVE",
"630 348 OFFCURVE",
"673 349 CURVE SMOOTH",
"726 351 OFFCURVE",
"751 332 OFFCURVE",
"751 295 CURVE SMOOTH",
"751 207 OFFCURVE",
"623 120 OFFCURVE",
"491 120 CURVE SMOOTH",
"461 120 OFFCURVE",
"436 98 OFFCURVE",
"436 70 CURVE SMOOTH",
"436 42 OFFCURVE",
"461 19 OFFCURVE",
"491 19 CURVE SMOOTH"
);
},
{
closed = 1;
nodes = (
"370 -29 OFFCURVE",
"398 0 OFFCURVE",
"401 40 CURVE SMOOTH",
"417 271 OFFCURVE",
"408 600 OFFCURVE",
"385 756 CURVE",
"379 783 OFFCURVE",
"345 801 OFFCURVE",
"315 793 CURVE SMOOTH",
"289 785 OFFCURVE",
"275 763 OFFCURVE",
"277 735 CURVE SMOOTH",
"297 558 OFFCURVE",
"324 334 OFFCURVE",
"304 13 CURVE",
"367 41 LINE",
"330 89 OFFCURVE",
"261 129 OFFCURVE",
"200 140 CURVE SMOOTH",
"164 146 OFFCURVE",
"135 135 OFFCURVE",
"129 113 CURVE SMOOTH",
"124 93 OFFCURVE",
"135 79 OFFCURVE",
"159 72 CURVE SMOOTH",
"185 65 OFFCURVE",
"204 64 OFFCURVE",
"240 28 CURVE SMOOTH",
"285 -17 OFFCURVE",
"305 -29 OFFCURVE",
"333 -29 CURVE SMOOTH"
);
},
{
closed = 1;
nodes = (
"297 401 OFFCURVE",
"408 441 OFFCURVE",
"455 465 CURVE SMOOTH",
"483 480 OFFCURVE",
"492 507 OFFCURVE",
"478 533 CURVE SMOOTH",
"466 557 OFFCURVE",
"429 567 OFFCURVE",
"404 554 CURVE SMOOTH",
"343 523 OFFCURVE",
"226 488 OFFCURVE",
"140 507 CURVE SMOOTH",
"110 512 OFFCURVE",
"79 493 OFFCURVE",
"75 467 CURVE SMOOTH",
"69 440 OFFCURVE",
"86 416 OFFCURVE",
"117 408 CURVE SMOOTH",
"140 403 OFFCURVE",
"165 401 OFFCURVE",
"191 401 CURVE SMOOTH"
);
},
{
closed = 1;
nodes = (
"928 366 OFFCURVE",
"953 388 OFFCURVE",
"956 413 CURVE SMOOTH",
"969 508 OFFCURVE",
"882 600 OFFCURVE",
"773 610 CURVE SMOOTH",
"743 612 OFFCURVE",
"720 595 OFFCURVE",
"718 567 CURVE SMOOTH",
"716 542 OFFCURVE",
"730 522 OFFCURVE",
"764 519 CURVE SMOOTH",
"807 517 OFFCURVE",
"861 474 OFFCURVE",
"855 430 CURVE SMOOTH",
"851 403 OFFCURVE",
"858 373 OFFCURVE",
"899 369 CURVE SMOOTH"
);
}
);
width = 1000;
}
);
unicode = 304A;
},
